<?xml version="1.0" standalone="no"?>
<!DOCTYPE svg PUBLIC "-//W3C//DTD SVG 20010904//EN"
 "http://www.w3.org/TR/2001/REC-SVG-20010904/DTD/svg10.dtd">
<svg version="1.0" xmlns="http://www.w3.org/2000/svg"
 width="1024.000000pt" height="1024.000000pt" viewBox="0 0 1024.000000 1024.000000"
 preserveAspectRatio="xMidYMid meet">

<g transform="translate(0.000000,1024.000000) scale(0.100000,-0.100000)"
fill="#000000" stroke="none">
<path d="M0 10107 l0 -134 198 -32 c108 -17 316 -49 462 -71 146 -21 342 -51
435 -65 94 -14 258 -39 366 -55 108 -16 232 -36 275 -44 44 -9 102 -20 129
-25 28 -5 42 -9 33 -10 -9 0 -200 26 -425 59 -224 33 -473 70 -553 81 -150 21
-830 125 -887 135 l-33 6 0 -90 0 -90 63 -11 c153 -25 1249 -181 1665 -236
106 -14 228 -32 270 -40 93 -17 228 -83 344 -166 45 -33 111 -76 147 -96 133
-74 338 -220 422 -300 47 -46 91 -83 96 -83 6 0 24 -7 39 -15 16 -8 43 -15 59
-16 17 0 62 -7 100 -15 67 -13 68 -14 15 -9 -30 3 -80 8 -110 12 l-54 6 18
-28 c18 -28 18 -28 -24 6 -24 19 -84 74 -132 122 -106 104 -251 203 -703 479
-128 78 -121 77 -990 193 -543 73 -901 124 -1086 155 -64 11 -121 20 -128 20
-8 0 -11 -48 -11 -165 l0 -164 38 -10 c39 -11 130 -26 247 -41 l70 -9 -88 5
c-49 3 -125 12 -170 20 -45 7 -85 14 -89 14 -5 0 -8 -13 -8 -30 0 -16 3 -30 8
-30 4 0 83 -7 177 -15 94 -9 251 -22 350 -30 99 -8 295 -26 435 -39 183 -18
324 -25 499 -25 134 -1 249 -5 256 -9 8 -4 -68 -5 -167 -4 -163 4 -180 2 -175
-12 7 -19 3 -20 -21 -6 -15 9 -645 68 -1122 105 -107 8 -205 18 -217 20 -22 5
-23 3 -23 -70 0 -71 1 -75 23 -76 12 0 103 -7 202 -14 l180 -14 -140 5 c-77 3
-168 7 -202 11 l-63 6 0 -37 c0 -20 5 -38 13 -41 15 -5 548 -41 839 -57 l218
-12 30 29 c36 34 37 42 8 48 -15 3 -10 5 13 6 22 0 43 9 54 21 10 11 23 20 28
20 6 0 2 -8 -7 -19 -17 -18 -14 -19 86 -26 72 -5 103 -4 106 4 2 7 9 6 19 -4
8 -9 34 -15 61 -16 26 0 92 -7 147 -14 104 -15 107 -15 -129 2 l-89 6 7 -39
c4 -21 9 -40 10 -41 1 -1 98 -11 216 -21 150 -14 219 -17 228 -9 9 7 20 3 40
-16 16 -15 34 -27 41 -27 17 0 11 -132 -7 -138 -8 -2 -12 10 -12 41 0 44 -16
107 -28 107 -4 1 -23 3 -43 6 -94 14 -425 41 -431 35 -4 -3 -3 -49 2 -101 6
-52 12 -117 15 -145 4 -37 3 -44 -4 -28 -5 11 -15 77 -21 145 -7 67 -15 126
-18 130 -10 10 -286 32 -314 25 -13 -4 -43 -25 -68 -47 l-45 -41 -190 7 c-104
3 -194 9 -198 11 -5 3 -11 -4 -14 -16 -3 -11 -13 -23 -22 -26 -9 -3 -32 -18
-51 -35 -19 -16 -36 -27 -39 -25 -2 3 -14 -3 -25 -12 -11 -10 5 11 37 46 31
36 57 68 57 72 0 5 10 13 21 20 17 8 23 8 29 -1 5 -8 57 -15 156 -21 239 -13
229 -14 272 25 20 19 34 38 30 42 -9 9 -11 9 -528 39 -234 14 -442 28 -462 31
l-38 6 0 -485 c0 -428 2 -487 16 -501 8 -9 11 -16 5 -16 -15 0 -14 -67 2 -73
9 -4 9 -6 -1 -6 -13 -1 -12 -20 14 -210 8 -57 12 -106 10 -109 -8 -7 -27 9
-36 32 -5 13 -9 -54 -9 -175 l-1 -196 66 -7 c36 -4 76 -14 89 -22 13 -8 54
-18 91 -21 88 -7 95 -13 16 -13 -34 0 -62 -2 -62 -5 0 -3 16 -38 36 -78 35
-69 37 -77 40 -187 l3 -115 -10 90 c-11 112 -30 177 -68 237 -35 55 -49 64
-116 73 -27 4 -58 9 -68 12 -15 4 -17 -4 -17 -69 0 -44 5 -79 12 -86 9 -9 9
-12 0 -12 -7 0 -12 -8 -12 -19 0 -20 87 -184 128 -241 l25 -35 -26 25 c-14 14
-49 63 -77 110 l-51 85 2 -145 1 -145 31 -18 c29 -16 21 -17 -18 -1 -13 5 -15
-42 -15 -364 l0 -370 26 -6 c31 -8 57 7 112 66 69 74 263 312 279 342 11 22
13 47 7 114 l-7 86 -31 -35 c-49 -55 -308 -362 -337 -400 -15 -19 -31 -30 -35
-26 -17 17 43 101 198 279 88 101 165 195 171 211 6 15 14 27 17 27 6 0 -2
150 -19 370 -15 190 -20 218 -39 230 -16 9 -16 9 1 10 21 0 22 -25 -8 345 -14
171 -25 315 -25 322 0 13 -49 23 -165 33 -69 6 -72 7 -25 8 30 1 86 -2 123 -7
66 -7 68 -6 63 13 -3 12 -6 31 -6 43 0 16 -7 23 -27 26 l-28 4 29 2 c27 1 28
2 23 44 -4 23 -9 74 -12 112 -10 104 -8 102 -73 110 -61 7 -82 18 -82 42 0 13
13 15 71 11 l71 -4 -7 112 c-9 137 0 167 64 227 27 25 46 48 43 51 -3 3 -1 6
5 6 6 0 13 -7 17 -15 3 -9 0 -15 -8 -15 -17 0 -49 -36 -71 -80 -22 -43 -20
-89 35 -730 22 -256 49 -571 60 -700 11 -129 31 -363 45 -520 14 -157 32 -368
40 -470 8 -102 29 -329 46 -505 27 -291 50 -507 139 -1322 17 -150 37 -386 45
-525 31 -546 90 -1120 120 -1178 17 -32 62 -67 72 -56 4 4 9 36 11 71 l4 65
27 -18 c14 -10 51 -28 81 -41 30 -13 71 -30 90 -39 43 -19 203 -88 250 -109
111 -48 511 -246 743 -367 167 -87 243 -117 272 -106 11 4 58 10 105 14 114
10 352 43 401 56 21 6 39 15 39 21 0 5 -30 23 -67 40 -38 17 -95 44 -128 59
-33 16 -130 61 -215 100 -85 40 -191 90 -235 112 -44 22 -106 53 -138 69 -31
16 -66 29 -77 29 -11 0 -20 4 -20 9 0 10 -175 101 -195 101 -8 0 -17 4 -20 10
-3 5 0 7 9 4 8 -3 88 4 178 15 199 25 263 32 314 36 21 2 77 8 124 13 47 6
150 16 230 22 80 6 181 15 225 20 44 5 172 16 285 25 309 24 652 56 795 75 65
9 213 21 410 35 151 10 554 45 627 54 40 5 120 12 178 16 58 3 119 8 135 10
17 2 73 6 125 10 52 3 124 10 160 15 36 5 97 11 135 14 39 3 142 12 230 20
186 18 184 18 166 7 -7 -5 -22 -6 -34 -3 -14 3 -18 1 -13 -7 5 -8 -1 -11 -21
-10 -29 1 -216 -16 -268 -25 -34 -6 -190 -17 -247 -18 -21 -1 -38 -5 -38 -10
0 -4 -3 -7 -7 -6 -10 2 -180 -13 -208 -18 -58 -11 -390 -33 -455 -29 -55 3
-65 2 -35 -4 38 -8 38 -8 9 -10 -17 0 -47 -3 -65 -6 -29 -4 -30 -3 -9 4 25 9
25 9 -5 9 -16 0 -52 -3 -80 -8 l-50 -7 55 -3 55 -3 -70 -8 c-278 -31 -418 -42
-535 -43 -77 0 -118 -3 -95 -7 l40 -6 -37 -2 c-20 0 -39 2 -41 7 -3 4 -31 5
-64 3 -50 -4 -54 -5 -28 -12 18 -5 8 -6 -27 -2 -42 4 -58 2 -58 -7 0 -9 -18
-11 -67 -7 -43 4 -59 3 -43 -2 23 -8 23 -9 -10 -10 -58 -3 -224 -19 -420 -40
-218 -24 -231 -25 -210 -10 12 8 8 9 -16 5 -17 -3 -67 -8 -110 -13 -78 -8 -78
-8 -29 -13 37 -4 4 -9 -120 -18 -212 -16 -243 -21 -225 -32 8 -5 11 -12 8 -16
-4 -4 -19 1 -33 10 -25 16 -38 16 -238 -3 -328 -32 -317 -31 -317 -47 0 -18
58 -44 78 -36 8 2 18 -1 23 -9 8 -14 12 -15 46 -18 9 0 13 -4 10 -8 -11 -11
66 -43 87 -37 12 4 16 2 12 -5 -7 -11 12 -16 43 -12 7 2 10 -2 6 -8 -4 -7 3
-11 18 -11 13 0 27 -3 31 -7 3 -4 12 -8 19 -9 7 -1 78 -34 159 -73 81 -39 154
-71 162 -71 9 0 16 -4 16 -10 0 -5 6 -10 14 -10 8 0 40 -13 71 -30 31 -16 62
-30 69 -30 6 0 29 -9 51 -20 22 -11 44 -20 50 -20 6 0 22 -10 35 -22 14 -13
25 -21 25 -18 1 3 22 -6 48 -20 l46 -25 188 23 c259 32 256 31 250 52 -3 13 0
16 14 13 11 -3 22 -9 25 -14 8 -13 87 -11 188 6 131 21 149 30 109 54 -32 18
-4 12 42 -10 35 -17 55 -20 88 -14 23 3 65 9 92 11 85 8 195 35 195 47 0 8 3
7 9 -2 10 -15 101 -11 270 14 85 13 129 25 88 25 -9 0 -29 12 -44 26 l-28 26
38 -21 c21 -12 43 -19 48 -16 5 4 19 -1 31 -9 14 -10 44 -16 77 -16 66 0 126
-17 166 -46 17 -12 80 -40 140 -62 99 -37 329 -128 380 -152 11 -5 63 -25 115
-45 52 -21 146 -57 207 -81 62 -24 115 -44 118 -44 3 0 24 -9 48 -19 62 -28
186 -34 330 -16 272 35 247 33 247 13 0 -13 -8 -18 -30 -19 -16 -1 -33 -2 -37
-3 -5 -1 -42 -8 -83 -15 -41 -7 -95 -17 -120 -22 -25 -5 -61 -11 -80 -14 -19
-4 -55 -11 -80 -16 -25 -6 -58 -12 -75 -15 -16 -2 -50 -8 -75 -14 -25 -6 -85
-17 -135 -24 -114 -18 -206 -33 -320 -51 -49 -8 -121 -19 -160 -24 -38 -5
-135 -20 -215 -34 -80 -14 -194 -33 -255 -42 -60 -9 -164 -25 -230 -36 -66
-10 -138 -22 -160 -25 -22 -3 -71 -11 -110 -19 -38 -7 -99 -18 -135 -24 -36
-6 -78 -13 -95 -16 -16 -3 -75 -12 -130 -21 -209 -33 -313 -67 -417 -137 -36
-25 -72 -47 -79 -49 -19 -6 -2 -26 39 -47 72 -36 179 -53 332 -54 151 0 218 9
625 79 110 19 344 57 520 84 176 28 604 98 950 155 347 57 727 120 845 139
118 20 339 58 490 85 151 27 410 70 575 96 165 25 408 64 540 85 132 22 290
46 350 55 272 39 1141 181 1323 215 57 11 105 20 108 20 2 0 4 36 4 80 0 44
-3 80 -7 80 -14 0 -453 -50 -623 -70 -144 -18 -469 -62 -672 -90 -70 -10 -217
-30 -525 -70 -87 -11 -124 -2 -120 31 1 17 -6 24 -38 35 -32 11 -37 11 -23 1
16 -13 16 -14 -2 -29 -21 -18 -23 -19 -236 -47 -83 -11 -169 -23 -190 -26
-274 -38 -577 -77 -689 -89 -211 -21 -269 -14 -142 19 39 10 82 23 93 28 26
11 36 59 24 110 -4 20 -4 37 0 39 5 2 10 74 12 161 3 124 7 160 19 168 12 7
12 9 0 9 -11 0 -10 4 4 14 11 8 26 11 35 8 37 -13 0 8 -54 30 l-58 25 48 13
c27 6 96 16 154 20 58 5 179 19 270 33 91 14 215 31 275 37 61 7 196 23 300
36 105 14 230 29 279 34 106 12 122 20 40 20 -33 0 -64 4 -69 9 -6 5 -48 19
-94 31 -47 12 -98 28 -113 36 -16 8 -64 24 -106 35 -42 10 -79 24 -82 29 -3 5
-32 15 -63 21 -46 10 -60 9 -74 -2 -10 -9 -14 -9 -10 -2 9 15 -32 34 -129 58
-88 22 -343 103 -363 116 -24 14 53 0 118 -22 29 -10 58 -16 64 -12 6 3 7 1 3
-5 -4 -8 0 -12 12 -12 11 0 39 -7 63 -16 73 -25 391 -104 400 -98 16 10 9 23
-8 18 -15 -5 -16 -4 -3 5 18 13 43 14 36 2 -4 -5 13 -9 36 -8 24 1 54 -2 68
-6 20 -7 22 -6 10 3 -12 9 -8 11 17 6 19 -3 35 -1 39 6 4 7 3 8 -4 4 -7 -4
-12 -2 -12 3 0 6 5 11 10 11 6 0 10 4 10 9 0 5 -52 26 -115 47 -147 49 -142
60 27 63 53 1 81 6 92 16 8 8 21 15 29 15 19 0 50 36 52 60 3 40 -45 45 -450
46 -550 1 -524 0 -534 27 -12 31 -82 547 -76 557 3 4 22 4 42 -1 81 -19 470
-97 514 -103 48 -7 203 2 614 34 138 10 331 24 430 30 475 29 519 35 528 71
15 55 -17 65 -378 125 -134 22 -180 45 -115 57 40 8 364 9 576 2 145 -6 173
-4 186 9 16 15 43 108 73 246 9 42 20 82 25 89 7 12 33 12 161 3 83 -6 156 -9
162 -5 19 11 -4 137 -48 269 -49 143 -53 164 -31 164 19 0 50 -84 70 -192 23
-122 53 -215 77 -237 22 -21 71 -34 93 -25 16 6 27 32 50 116 14 49 16 186 16
1127 0 934 -2 1070 -15 1065 -22 -9 -79 14 -105 41 -31 33 -37 102 -11 132 23
27 61 43 102 43 l29 0 0 1640 0 1640 -5120 0 -5120 0 0 -133z m1626 -284 c13
-51 -29 -77 -87 -53 -33 14 -46 48 -30 78 23 43 105 25 117 -25z m373 -142
c31 -16 94 -44 141 -61 71 -26 196 -91 235 -123 64 -50 197 -142 220 -152 17
-7 89 -20 160 -29 72 -9 195 -25 275 -36 80 -10 233 -30 340 -45 107 -14 220
-29 250 -35 135 -22 -105 4 -549 61 -507 65 -477 58 -591 144 -115 88 -243
165 -322 195 -104 38 -169 68 -205 91 -42 28 -18 23 46 -10z m754 -4 c12 -13
36 -32 52 -42 78 -48 193 -127 220 -150 42 -37 27 -28 -118 69 -71 47 -133 86
-138 86 -5 0 -12 -7 -15 -15 -9 -22 -41 -18 -58 7 -20 28 -20 33 0 52 21 21
31 20 57 -7z m-2600 -91 c30 -32 31 -32 317 -61 135 -13 384 -43 555 -65 437
-58 587 -76 770 -95 249 -26 375 -62 465 -136 23 -19 -32 8 -96 47 -32 19
-120 42 -209 53 -110 15 -677 83 -1035 126 -162 19 -371 42 -464 50 -94 9
-174 19 -179 22 -6 3 -7 1 -3 -5 5 -9 -9 -12 -47 -12 -36 0 -59 -5 -67 -15
-21 -25 -68 -18 -101 14 -16 16 -29 37 -29 47 0 54 83 73 123 30z m3570 12
c27 -22 31 -60 7 -86 -11 -12 -25 -22 -31 -22 -16 0 -59 48 -59 65 0 48 45 71
83 43z m1109 -135 c31 -28 20 -83 -16 -83 -12 0 -27 5 -34 12 -24 24 -9 88 22
88 5 0 18 -7 28 -17z m-1722 -9 c0 -2 -11 -4 -25 -4 -14 0 -25 4 -25 9 0 4 11
6 25 3 14 -2 25 -6 25 -8z m673 9 c-7 -2 -19 -2 -25 0 -7 3 -2 5 12 5 14 0 19
-2 13 -5z m-3339 -23 c202 -25 652 -75 901 -100 225 -23 367 -41 362 -47 -3
-2 -89 6 -193 17 -399 43 -741 80 -799 86 -109 10 -470 56 -474 60 -8 8 44 4
203 -16z m2719 3 c-7 -2 -21 -2 -30 0 -10 3 -4 5 12 5 17 0 24 -2 18 -5z m60
-10 c-7 -2 -21 -2 -30 0 -10 3 -4 5 12 5 17 0 24 -2 18 -5z m54 -9 c-3 -3 -12
-4 -19 -1 -8 3 -5 6 6 6 11 1 17 -2 13 -5z m331 -41 c-10 -2 -26 -2 -35 0 -10
3 -2 5 17 5 19 0 27 -2 18 -5z m-3118 -33 c48 -6 50 -7 15 -8 -22 0 -65 3 -95
8 -48 6 -50 7 -15 8 22 0 65 -3 95 -8z m133 -17 c-13 -2 -35 -2 -50 0 -16 2
-5 4 22 4 28 0 40 -2 28 -4z m1855 -32 c20 -10 62 -35 92 -55 30 -20 59 -36
65 -36 6 0 20 -7 31 -16 37 -29 -24 -5 -85 34 -31 20 -78 49 -106 64 -56 31
-54 38 3 9z m-725 -18 c-7 -2 -19 -2 -25 0 -7 3 -2 5 12 5 14 0 19 -2 13 -5z
m50 -10 c-7 -2 -19 -2 -25 0 -7 3 -2 5 12 5 14 0 19 -2 13 -5z m44 -9 c-3 -3
-12 -4 -19 -1 -8 3 -5 6 6 6 11 1 17 -2 13 -5z m3594 -44 c12 -7 19 -21 19
-40 0 -26 -4 -30 -29 -30 -49 0 -60 67 -13 79 2 1 12 -4 23 -9z m-3562 -13
c17 -7 94 -71 171 -142 145 -133 227 -198 346 -274 46 -29 86 -65 119 -108 28
-36 63 -75 78 -89 16 -13 25 -24 20 -24 -11 0 -80 73 -117 123 -15 20 -74 69
-130 107 -119 79 -182 130 -321 260 -134 124 -165 144 -239 151 l-61 6 51 1
c29 1 66 -4 83 -11z m623 -149 c64 -48 119 -92 123 -98 4 -6 -58 38 -137 97
-194 145 -211 159 -153 122 28 -18 103 -72 167 -121z m-1224 107 c-28 -42 -44
-46 -23 -6 12 24 22 34 43 40 1 1 -8 -15 -20 -34z m2597 3 c88 -13 151 -24
140 -25 -11 -2 -92 8 -180 21 -88 13 -151 24 -140 25 11 1 92 -9 180 -21z
m-1025 -3 c73 -13 74 -14 15 -9 -64 6 -143 22 -110 22 11 1 54 -5 95 -13z
m-2347 -22 c-13 -2 -35 -2 -50 0 -16 2 -5 4 22 4 28 0 40 -2 28 -4z m2485 0
c-10 -2 -28 -2 -40 0 -13 2 -5 4 17 4 22 1 32 -1 23 -4z m-2350 -10 c-10 -2
-26 -2 -35 0 -10 3 -2 5 17 5 19 0 27 -2 18 -5z m2430 0 c-10 -2 -26 -2 -35 0
-10 3 -2 5 17 5 19 0 27 -2 18 -5z m65 -10 c-7 -2 -21 -2 -30 0 -10 3 -4 5 12
5 17 0 24 -2 18 -5z m110 -9 c13 -5 12 -9 -4 -25 -16 -16 -23 -18 -42 -8 -12
7 -28 18 -35 26 -11 11 -7 13 26 13 22 0 47 -3 55 -6z m3997 -44 c0 -50 -25
-56 -33 -7 -5 37 -2 47 19 47 10 0 14 -12 14 -40z m-3857 13 c-7 -2 -21 -2
-30 0 -10 3 -4 5 12 5 17 0 24 -2 18 -5z m65 -10 c-10 -2 -26 -2 -35 0 -10 3
-2 5 17 5 19 0 27 -2 18 -5z m80 -10 c-10 -2 -26 -2 -35 0 -10 3 -2 5 17 5 19
0 27 -2 18 -5z m2418 -20 c9 -33 -7 -58 -36 -58 -29 0 -45 25 -36 58 5 22 12
27 36 27 24 0 31 -5 36 -27z m-4028 -7 c4 -19 -15 -21 -55 -5 -15 6 -55 14
-88 19 -52 7 -47 8 40 5 83 -2 101 -5 103 -19z m1882 -1 c107 -14 238 -32 290
-41 52 -8 117 -17 143 -21 26 -3 50 -10 54 -16 4 -6 -5 -8 -23 -3 -29 6 -415
63 -614 90 -58 7 -91 14 -75 15 17 0 118 -10 225 -24z m-564 -7 c4 -6 2 -14
-4 -16 -7 -2 -10 -8 -6 -13 3 -5 -15 -9 -40 -9 -54 0 -58 9 -13 32 39 20 54
22 63 6z m1479 -88 c154 -17 303 -35 330 -39 l50 -9 -41 -1 c-23 0 -146 12
-275 28 -363 45 -361 45 -358 30 4 -33 -2 -40 -27 -37 -36 4 -53 31 -34 53 10
11 23 15 44 11 17 -3 157 -19 311 -36z m-2733 -2 c-7 -7 -12 -8 -12 -2 0 14
12 26 19 19 2 -3 -1 -11 -7 -17z m770 -68 c51 -40 69 -57 48 -45 -25 15 -160
115 -160 120 0 5 54 -31 112 -75z m5254 63 c26 -35 8 -103 -27 -103 -42 0 -75
53 -59 95 7 19 17 25 41 25 19 0 37 -7 45 -17z m-1192 -38 c-4 -8 -10 -15 -15
-15 -5 0 -9 7 -9 15 0 8 7 15 15 15 9 0 12 -6 9 -15z m-1677 -11 c-3 -3 -12
-4 -19 -1 -8 3 -5 6 6 6 11 1 17 -2 13 -5z m487 -54 c94 -9 143 -21 80 -19
-66 1 -264 25 -271 33 -4 5 15 6 42 2 28 -4 94 -11 149 -16z m179 -27 c-13 -2
-33 -2 -45 0 -13 2 -3 4 22 4 25 0 35 -2 23 -4z m189 -15 c-10 -10 -139 -1
-146 11 -2 3 32 5 76 3 54 -3 77 -7 70 -14z m-3096 -19 c3 -6 -5 -3 -20 6 -14
10 -26 19 -26 22 0 7 39 -17 46 -28z m452 4 c-10 -2 -26 -2 -35 0 -10 3 -2 5
17 5 19 0 27 -2 18 -5z m5973 -3 c13 -7 19 -21 19 -43 0 -57 -45 -77 -74 -35
-20 29 -20 52 0 72 18 19 28 20 55 6z m-5888 -7 c-7 -2 -19 -2 -25 0 -7 3 -2
5 12 5 14 0 19 -2 13 -5z m187 -3 c0 -5 12 -10 28 -11 15 0 21 -3 14 -6 -18
-7 -62 5 -62 17 0 6 5 10 10 10 6 0 10 -4 10 -10z m1025 -2 c-11 -6 -41 -29
-67 -51 -27 -21 -48 -36 -48 -32 0 15 97 94 115 94 l20 0 -20 -11z m-912 -25
c-7 -2 -19 -2 -25 0 -7 3 -2 5 12 5 14 0 19 -2 13 -5z m-543 -56 c0 -12 -64
29 -68 43 -3 7 12 1 32 -12 20 -13 36 -27 36 -31z m1908 46 c-10 -2 -26 -2
-35 0 -10 3 -2 5 17 5 19 0 27 -2 18 -5z m75 -10 c-7 -2 -19 -2 -25 0 -7 3 -2
5 12 5 14 0 19 -2 13 -5z m-158 -36 c94 -15 191 -29 218 -32 26 -4 45 -10 42
-15 -6 -10 -47 -5 -240 27 -213 37 -215 37 -215 23 0 -19 -60 -100 -75 -100
-28 0 -21 26 16 58 51 44 51 62 0 62 -42 0 -71 -8 -71 -19 0 -3 -50 -58 -111
-121 -61 -63 -110 -110 -108 -104 2 6 54 65 114 132 l110 122 75 -4 c41 -2
152 -15 245 -29z m345 23 c12 -8 12 -10 -5 -10 -11 0 -27 5 -35 10 -12 8 -12
10 5 10 11 0 27 -5 35 -10z m-1510 -59 c30 -44 40 -51 70 -52 32 -1 33 -2 10
-9 -14 -4 -20 -9 -15 -10 6 -1 -1 -6 -14 -11 -27 -11 -39 1 -66 61 -9 19 -20
43 -25 52 -28 51 -2 31 40 -31z m1634 20 c95 -45 162 -64 204 -58 57 9 73 -8
20 -21 -37 -10 -55 -8 -113 9 -39 12 -79 29 -90 38 -18 16 -62 39 -105 54 -11
4 -10 6 4 6 10 1 46 -12 80 -28z m954 17 c15 -15 16 -58 2 -58 -5 0 -10 4 -10
8 0 5 -13 7 -30 6 -25 -2 -30 2 -30 20 0 13 3 26 7 29 11 11 48 8 61 -5z
m-3497 -15 c13 -16 12 -17 -3 -4 -10 7 -18 15 -18 17 0 8 8 3 21 -13z m397 0
c-10 -2 -26 -2 -35 0 -10 3 -2 5 17 5 19 0 27 -2 18 -5z m1182 3 c0 -2 -8 -10
-17 -17 -16 -13 -17 -12 -4 4 13 16 21 21 21 13z m3700 -6 c45 -12 103 -66
131 -121 52 -103 56 -277 9 -386 l-22 -52 22 -36 c29 -47 87 -79 190 -105 86
-22 125 -40 147 -69 22 -28 90 -165 103 -206 15 -47 109 -236 174 -350 26 -44
53 -98 61 -120 8 -22 33 -89 56 -150 22 -60 49 -139 58 -175 10 -36 24 -77 31
-90 8 -15 13 -64 14 -129 1 -88 -2 -111 -18 -133 -20 -31 -47 -36 -66 -13 -9
10 -10 32 -5 70 7 63 -4 71 -28 20 -21 -44 -52 -47 -61 -7 -4 15 -12 47 -18
72 -6 25 -11 85 -10 133 l2 88 -72 122 c-76 129 -157 286 -196 379 -13 31 -32
64 -42 73 -18 16 -19 15 -30 -27 -8 -27 -11 -90 -8 -173 4 -115 9 -141 37
-220 18 -49 43 -123 57 -164 13 -41 28 -79 34 -85 5 -5 10 -26 10 -46 0 -19 7
-67 16 -105 9 -39 20 -104 24 -145 9 -84 25 -213 40 -310 16 -109 21 -162 25
-240 7 -133 29 -259 75 -415 11 -38 20 -86 20 -105 0 -43 21 -115 51 -172 46
-89 49 -98 43 -122 -10 -42 -36 -56 -127 -67 -100 -12 -152 -2 -198 39 -26 23
-32 39 -44 112 -8 47 -23 117 -34 155 -11 39 -29 106 -41 150 -13 44 -42 154
-66 245 -41 156 -79 288 -103 355 -6 17 -26 82 -45 145 -35 116 -58 162 -72
147 -11 -10 -13 -299 -4 -417 4 -52 19 -144 33 -205 17 -73 29 -170 37 -290 7
-99 20 -222 31 -274 20 -100 17 -136 -12 -151 -10 -6 -72 -13 -137 -17 -120
-6 -120 -6 -146 20 -21 21 -26 36 -27 79 -1 29 -4 64 -8 78 -4 14 -3 39 2 56
6 21 3 68 -12 160 -48 293 -68 395 -78 405 -7 7 -10 24 -7 38 5 23 -5 92 -37
276 -50 283 -83 556 -77 635 7 83 28 173 44 191 33 36 26 170 -17 359 -21 90
-53 83 -84 -18 -28 -96 -151 -331 -225 -432 -39 -52 -70 -98 -70 -103 0 -4
-18 -27 -39 -50 -104 -112 -104 -112 -97 -177 6 -52 5 -60 -13 -69 -16 -9 -24
-5 -49 20 l-31 32 -23 -27 c-15 -18 -29 -25 -40 -21 -23 9 -41 58 -33 94 4 17
3 31 -1 31 -4 0 -27 -18 -51 -41 -36 -33 -47 -38 -59 -29 -26 23 -21 33 84
160 27 34 42 62 42 80 0 29 39 70 66 70 7 0 18 18 24 40 7 25 23 49 44 65 32
24 116 138 116 157 0 5 9 18 19 30 20 20 70 153 138 363 43 131 86 232 126
299 33 54 87 85 147 86 19 0 49 9 65 20 17 11 36 20 44 20 31 0 61 42 61 86 0
35 -7 51 -44 95 -59 72 -92 155 -105 262 -10 85 -9 91 14 137 14 27 40 60 58
74 52 40 139 55 207 36z m-4757 -7 c-13 -2 -33 -2 -45 0 -13 2 -3 4 22 4 25 0
35 -2 23 -4z m105 -10 c-10 -2 -26 -2 -35 0 -10 3 -2 5 17 5 19 0 27 -2 18 -5z
m-299 -58 c75 -7 116 -13 91 -14 -117 -2 -290 30 -290 55 0 2 14 -3 31 -12 19
-9 86 -21 168 -29z m5541 -21 c0 -29 -16 -40 -35 -24 -18 15 -20 57 -2 63 18
7 37 -13 37 -39z m-5769 9 c13 -16 12 -17 -3 -4 -10 7 -18 15 -18 17 0 8 8 3
21 -13z m452 -10 c-13 -2 -33 -2 -45 0 -13 2 -3 4 22 4 25 0 35 -2 23 -4z
m100 -10 c-13 -2 -33 -2 -45 0 -13 2 -3 4 22 4 25 0 35 -2 23 -4z m418 -30
c21 -23 25 -30 9 -18 -38 30 -62 55 -52 55 4 0 24 -17 43 -37z m1224 2 c91
-18 132 -22 150 -15 29 11 32 5 9 -17 -14 -14 -25 -14 -118 5 -56 12 -139 24
-184 28 -45 4 -82 11 -82 15 0 16 100 9 225 -16z m-1428 9 c-3 -3 -12 -4 -19
-1 -8 3 -5 6 6 6 11 1 17 -2 13 -5z m1111 -51 c-18 -14 -64 -56 -102 -92 -56
-53 -63 -58 -38 -25 18 23 48 55 69 70 20 16 48 39 62 51 14 12 30 23 34 23 5
0 -6 -12 -25 -27z m815 20 c-7 -2 -19 -2 -25 0 -7 3 -2 5 12 5 14 0 19 -2 13
-5z m-1485 -38 c34 -4 62 -11 62 -17 0 -20 -151 14 -171 39 -13 15 -12 15 16
1 17 -9 58 -19 93 -23z m1560 28 c-10 -2 -26 -2 -35 0 -10 3 -2 5 17 5 19 0
27 -2 18 -5z m157 -13 c29 -6 19 -7 -40 -3 -44 3 -82 7 -84 9 -8 7 84 3 124
-6z m-1865 -35 c19 -19 32 -35 29 -35 -3 0 -20 16 -39 35 -19 19 -32 35 -29
35 3 0 20 -16 39 -35z m1993 18 c-13 -2 -33 -2 -45 0 -13 2 -3 4 22 4 25 0 35
-2 23 -4z m60 -10 c-7 -2 -19 -2 -25 0 -7 3 -2 5 12 5 14 0 19 -2 13 -5z m152
-13 c30 -6 21 -7 -35 -3 -41 3 -77 7 -79 9 -8 7 74 3 114 -6z m-2298 -16 c-3
-3 -12 -4 -19 -1 -8 3 -5 6 6 6 11 1 17 -2 13 -5z m407 -20 c-27 -26 -54 -29
-62 -6 -2 8 7 12 27 12 16 0 33 5 36 10 3 6 10 10 15 10 5 0 -2 -11 -16 -26z
m710 1 c-14 -14 -28 -25 -31 -25 -4 0 4 11 17 25 13 14 27 25 31 25 5 0 -3
-11 -17 -25z m1326 16 c0 -8 -79 -3 -89 5 -2 2 17 4 42 4 26 0 47 -4 47 -9z
m53 -8 c-7 -2 -21 -2 -30 0 -10 3 -4 5 12 5 17 0 24 -2 18 -5z m87 -12 c0 -5
-11 -8 -25 -6 -38 4 -43 15 -7 15 18 0 32 -4 32 -9z m-2 -46 c-3 -12 -29 -8
-43 7 -7 6 -1 8 18 6 15 -2 26 -7 25 -13z m-5199 -55 c47 -6 257 -24 466 -40
209 -17 481 -39 605 -50 595 -53 696 -62 840 -76 85 -8 182 -16 215 -19 80 -7
398 -36 915 -84 234 -22 535 -50 670 -61 135 -11 362 -32 505 -46 143 -14 307
-29 365 -34 169 -14 188 -19 216 -55 40 -53 27 -106 -31 -121 -14 -3 -136 3
-272 15 -803 69 -2112 175 -3093 251 -74 6 -346 29 -605 50 -259 21 -551 44
-650 50 -231 15 -244 18 -272 59 -31 46 -31 116 -1 148 25 27 17 26 127 13z
m5495 -296 c9 -8 16 -23 16 -31 0 -9 -3 -14 -6 -11 -7 8 -51 -35 -47 -44 2 -5
13 -8 24 -8 11 0 17 -4 14 -10 -11 -19 -46 -10 -71 18 -14 15 -33 35 -41 45
-12 12 -13 17 -4 17 7 0 24 9 38 20 31 24 56 25 77 4z m-199 -34 c3 -5 1 -10
-4 -10 -6 0 -11 5 -11 10 0 6 2 10 4 10 3 0 8 -4 11 -10z m-6400 -20 c-3 -5
-15 -10 -26 -10 -11 0 -17 5 -14 10 3 6 15 10 26 10 11 0 17 -4 14 -10z m1145
-42 c0 -13 9 -36 20 -53 24 -36 25 -45 5 -45 -8 0 -15 7 -15 15 0 18 -24 30
-41 20 -8 -6 -7 -10 2 -16 10 -6 6 -9 -12 -9 l-26 0 21 55 c21 56 46 73 46 33z
m154 0 c14 -67 14 -108 0 -108 -10 0 -14 14 -14 55 0 33 -4 55 -11 55 -7 0
-10 -20 -7 -55 1 -30 0 -55 -4 -55 -3 0 -8 29 -10 65 -3 62 -2 65 19 65 15 0
24 -7 27 -22z m247 -18 c13 -7 19 -21 19 -43 0 -18 5 -38 12 -45 9 -9 9 -12 0
-12 -7 0 -20 9 -29 20 -20 23 -45 27 -37 5 4 -8 2 -15 -4 -15 -9 0 -22 46 -22
81 0 21 29 25 61 9z m107 -42 c19 -19 14 -28 -15 -27 -24 0 -25 2 -9 8 15 6
16 10 7 15 -7 5 -18 3 -23 -2 -16 -16 10 -44 33 -37 11 4 19 2 19 -4 0 -14
-35 -14 -61 -1 -19 10 -26 40 -12 53 11 11 48 8 61 -5z m-728 -50 c0 -29 18
-249 40 -488 22 -239 54 -581 70 -760 16 -179 50 -543 75 -810 25 -267 68
-755 95 -1085 57 -686 109 -1227 119 -1237 10 -11 2255 152 2916 212 261 23
777 63 1105 85 349 23 1031 75 1059 81 23 5 23 7 16 76 -3 39 -13 108 -21 152
-23 131 -71 516 -109 886 -59 566 -136 1266 -200 1810 -20 167 -35 313 -33
325 5 34 177 -1452 243 -2105 44 -436 66 -612 116 -944 16 -110 26 -202 22
-206 -11 -10 -443 -46 -963 -80 -385 -25 -1040 -75 -1250 -95 -225 -21 -717
-60 -1260 -100 -1742 -128 -1645 -122 -1654 -107 -12 20 -60 521 -111 1148
-19 242 -53 636 -75 875 -22 239 -47 508 -55 599 -9 91 -24 257 -35 370 -10
113 -28 311 -40 440 -11 129 -27 305 -35 390 -8 85 -21 236 -30 335 -8 99 -17
204 -21 233 -3 34 -2 52 5 52 7 0 11 -22 11 -52z m810 43 c0 -5 -10 -7 -22 -5
l-23 5 23 -12 c24 -13 29 -34 10 -41 -24 -9 -38 4 -38 33 0 24 4 29 25 29 14
0 25 -4 25 -9z m50 -7 c0 -8 -4 -12 -10 -9 -5 3 -10 2 -10 -4 0 -5 5 -13 10
-16 13 -8 13 -25 0 -25 -6 0 -16 12 -22 26 -10 21 -9 27 3 35 21 13 29 11 29
-7z m86 -8 c3 -8 4 -25 2 -38 l-5 -23 -11 25 c-9 22 -11 23 -13 5 -1 -14 -4
-11 -9 10 l-8 30 -1 -27 c-1 -37 -18 -36 -23 2 -4 28 -3 30 29 30 20 0 36 -6
39 -14z m40 -26 c-1 -39 -12 -39 -18 0 -3 19 0 30 7 30 7 0 12 -13 11 -30z
m72 8 c2 -13 -3 -18 -20 -19 -17 -1 -18 -3 -5 -6 20 -5 23 -23 4 -23 -20 0
-37 22 -37 48 0 20 4 23 27 20 17 -2 29 -10 31 -20z m4762 -1 c0 -2 -16 -19
-37 -38 -36 -34 -36 -24 1 18 17 20 36 30 36 20z m265 -86 c7 -23 -9 -67 -27
-74 -33 -11 -75 43 -61 79 14 37 75 34 88 -5z m-7120 -66 c6 -2 -25 -4 -67 -4
-43 -1 -78 3 -78 8 0 8 120 5 145 -4z m-98 -28 c4 -8 17 -19 28 -25 19 -11 18
-11 -6 -12 -25 0 -27 -4 -34 -55 -3 -30 -11 -58 -17 -61 -6 -4 -8 4 -4 22 3
16 7 55 8 87 2 56 10 69 25 44z m1303 -17 c-12 -8 -13 -12 -2 -19 11 -7 11 -9
-2 -14 -11 -4 -16 -1 -16 12 0 20 8 31 24 31 6 0 4 -5 -4 -10z m123 -40 c3
-11 1 -20 -4 -20 -5 0 -9 9 -9 20 0 11 2 20 4 20 2 0 6 -9 9 -20z m-93 0 c0
-5 -5 -10 -11 -10 -5 0 -7 5 -4 10 3 6 8 10 11 10 2 0 4 -4 4 -10z m44 -19
c-7 -8 -35 9 -29 19 4 6 11 5 20 -3 7 -6 11 -14 9 -16z m23 7 c-3 -8 -6 -5 -6
6 -1 11 2 17 5 13 3 -3 4 -12 1 -19z m140 16 c-3 -3 -12 -4 -19 -1 -8 3 -5 6
6 6 11 1 17 -2 13 -5z m-2 -24 c3 -5 -7 -7 -22 -5 -16 2 -39 4 -53 5 -21 1
-22 2 -6 9 22 8 74 2 81 -9z m76 0 c10 0 19 5 19 10 0 6 9 10 20 10 11 0 20
-6 20 -14 0 -9 -15 -14 -50 -15 -42 0 -48 2 -43 16 4 11 8 13 11 5 2 -7 12
-12 23 -12z m116 -2 c-3 -8 -6 -5 -6 6 -1 11 2 17 5 13 3 -3 4 -12 1 -19z
m5131 -35 c31 -27 36 -63 12 -100 -24 -39 -72 -46 -90 -14 -17 33 -12 89 10
111 25 25 42 25 68 3z m-3870 -85 c5 -24 6 -47 3 -53 -3 -5 -10 12 -16 39 -5
26 -13 45 -17 41 -3 -4 -2 -20 4 -36 6 -17 8 -32 5 -35 -3 -3 -10 11 -17 32
-10 30 -10 38 1 45 23 15 27 11 37 -33z m4201 -67 c-1 -48 2 -133 6 -189 6
-73 4 -102 -4 -102 -6 0 -11 6 -11 13 0 6 -5 90 -10 186 -5 96 -7 178 -4 183
14 23 23 -11 23 -91z m-4250 24 c0 -5 -4 -3 -9 5 -5 8 -9 22 -9 30 0 16 17
-16 18 -35z m-154 -116 c17 -156 75 -807 105 -1184 20 -254 45 -551 75 -885 8
-91 24 -250 35 -355 11 -104 38 -365 60 -580 22 -214 41 -400 43 -412 3 -13 1
-23 -3 -23 -4 0 -10 33 -14 73 -12 125 -76 735 -90 866 -30 265 -63 629 -141
1591 -43 525 -78 910 -91 1010 -4 25 -4 42 0 39 3 -3 12 -66 21 -140z m276
121 c9 13 10 13 6 0 -6 -22 -37 -25 -37 -3 0 15 2 16 10 3 9 -13 11 -13 21 0z
m262 3 c3 7 6 4 6 -7 1 -13 -4 -16 -15 -12 -9 4 -22 2 -29 -4 -11 -9 -12 -7
-8 9 4 16 9 19 23 11 13 -7 20 -6 23 3z m-124 -19 c6 4 11 2 11 -4 0 -17 -33
-8 -37 10 -4 12 -3 13 5 1 5 -7 15 -10 21 -7z m-1542 -30 c-3 -3 -12 -4 -19
-1 -8 3 -5 6 6 6 11 1 17 -2 13 -5z m393 -14 c0 -5 -5 -10 -11 -10 -5 0 -7 5
-4 10 3 6 8 10 11 10 2 0 4 -4 4 -10z m17 -12 c-3 -8 -6 -5 -6 6 -1 11 2 17 5
13 3 -3 4 -12 1 -19z m83 0 c0 -4 -11 -7 -24 -6 -14 1 -23 6 -20 9 6 10 44 7
44 -3z m85 -17 c-6 -5 -25 10 -25 20 0 5 6 4 14 -3 8 -7 12 -15 11 -17z m80 9
c3 -5 1 -10 -4 -10 -6 0 -11 5 -11 10 0 6 2 10 4 10 3 0 8 -4 11 -10z m5513
-29 c3 -16 -1 -22 -10 -19 -7 3 -15 15 -16 27 -3 16 1 22 10 19 7 -3 15 -15
16 -27z m-1591 -3 c-3 -8 -6 -5 -6 6 -1 11 2 17 5 13 3 -3 4 -12 1 -19z m-947
-68 c0 -5 -4 -10 -10 -10 -5 0 -10 5 -10 10 0 6 5 10 10 10 6 0 10 -4 10 -10z
m957 -37 c-3 -10 -5 -2 -5 17 0 19 2 27 5 18 2 -10 2 -26 0 -35z m-822 15 c3
-3 -3 -8 -15 -11 -13 -3 -20 0 -20 8 0 13 23 15 35 3z m120 0 c3 -3 -1 -11
-10 -18 -11 -9 -15 -9 -15 -1 0 7 -4 9 -10 6 -11 -7 -14 8 -4 17 6 7 31 4 39
-4z m64 -15 c0 -13 -2 -14 -6 -4 -3 8 -8 9 -12 3 -4 -6 -11 -5 -19 4 -11 12
-9 14 13 14 17 0 25 -5 24 -17z m-4134 -3 c3 -5 1 -10 -4 -10 -6 0 -11 5 -11
10 0 6 2 10 4 10 3 0 8 -4 11 -10z m35 0 c0 -5 -2 -10 -4 -10 -3 0 -8 5 -11
10 -3 6 -1 10 4 10 6 0 11 -4 11 -10z m44 -1 c3 -3 -4 -5 -14 -6 -11 -1 -20 2
-20 7 0 8 25 8 34 -1z m353 -21 c-3 -8 -6 -5 -6 6 -1 11 2 17 5 13 3 -3 4 -12
1 -19z m4350 -60 c-3 -7 -5 -2 -5 12 0 14 2 19 5 13 2 -7 2 -19 0 -25z m-2787
-88 c0 -5 -5 -10 -11 -10 -5 0 -7 5 -4 10 3 6 8 10 11 10 2 0 4 -4 4 -10z
m-3263 -152 c-3 -8 -6 -5 -6 6 -1 11 2 17 5 13 3 -3 4 -12 1 -19z m6588 -18
c6 -10 -34 -30 -61 -30 -8 0 -14 9 -14 20 0 16 7 20 34 20 19 0 38 -5 41 -10z
m75 1 c0 -5 -9 -11 -20 -14 -22 -6 -28 8 -7 16 19 8 27 8 27 -2z m-6802 -42
c-10 -5 -42 -12 -70 -14 l-53 -4 54 10 c30 5 57 12 60 14 2 3 9 5 15 5 6 0 3
-5 -6 -11z m1357 -21 c5 -4 0 -6 -12 -6 -13 1 -19 7 -16 15 3 8 8 10 12 6 3
-4 10 -11 16 -15z m65 12 c0 -5 -8 -10 -17 -10 -15 0 -16 2 -3 10 19 12 20 12
20 0z m70 -8 c0 -4 -9 -8 -20 -8 -11 0 -20 4 -20 8 0 4 9 8 20 8 11 0 20 -4
20 -8z m105 -1 c2 -4 -19 -7 -46 -7 -27 0 -49 3 -49 8 0 9 89 8 95 -1z m45 5
c0 -3 -4 -8 -10 -11 -5 -3 -10 -1 -10 4 0 6 5 11 10 11 6 0 10 -2 10 -4z m30
-6 c0 -5 -5 -10 -11 -10 -5 0 -7 5 -4 10 3 6 8 10 11 10 2 0 4 -4 4 -10z m40
2 c0 -5 -7 -9 -15 -9 -8 0 -12 4 -9 9 3 4 9 8 15 8 5 0 9 -4 9 -8z m44 -3 c3
-3 -4 -5 -14 -6 -11 -1 -20 2 -20 7 0 8 25 8 34 -1z m66 -9 c0 -5 -2 -10 -4
-10 -3 0 -8 5 -11 10 -3 6 -1 10 4 10 6 0 11 -4 11 -10z m3510 6 c0 -2 -11 -6
-25 -8 -14 -3 -25 -1 -25 3 0 5 11 9 25 9 14 0 25 -2 25 -4z m-5183 -48 c-3
-7 -5 -2 -5 12 0 14 2 19 5 13 2 -7 2 -19 0 -25z m-54 15 c-13 -2 -35 -2 -50
0 -16 2 -5 4 22 4 28 0 40 -2 28 -4z m9217 -8 c13 -16 6 -35 -15 -35 -18 0
-28 17 -21 35 7 19 20 19 36 0z m-5936 -11 c3 -8 2 -12 -4 -9 -6 3 -10 10 -10
16 0 14 7 11 14 -7z m436 -2 c0 -4 -13 -7 -30 -7 -16 -1 -30 2 -30 6 0 3 14 6
30 7 17 0 30 -2 30 -6z m-2366 -37 c3 -8 1 -15 -4 -15 -6 0 -10 7 -10 15 0 8
2 15 4 15 2 0 6 -7 10 -15z m23 -7 c-3 -8 -6 -5 -6 6 -1 11 2 17 5 13 3 -3 4
-12 1 -19z m80 0 c-3 -8 -6 -5 -6 6 -1 11 2 17 5 13 3 -3 4 -12 1 -19z m-17 2
c0 -5 -12 -10 -27 -9 l-28 1 25 8 c14 4 26 8 28 9 1 1 2 -3 2 -9z m55 0 c-3
-5 -12 -10 -18 -10 -7 0 -6 4 3 10 19 12 23 12 15 0z m65 0 c0 8 3 11 6 7 3
-3 3 -10 0 -16 -8 -12 -36 -3 -36 11 0 6 6 5 15 -2 12 -10 15 -10 15 0z m70
-4 c0 -3 -4 -8 -10 -11 -5 -3 -10 -1 -10 4 0 6 5 11 10 11 6 0 10 -2 10 -4z
m35 -6 c-3 -5 -12 -10 -18 -10 -7 0 -6 4 3 10 19 12 23 12 15 0z m70 0 c3 -5
1 -10 -4 -10 -6 0 -11 5 -11 10 0 6 2 10 4 10 3 0 8 -4 11 -10z m102 -12 c-3
-8 -6 -5 -6 6 -1 11 2 17 5 13 3 -3 4 -12 1 -19z m83 9 c0 -7 -9 -13 -20 -13
-25 0 -26 13 -2 19 9 3 18 5 20 6 1 0 2 -5 2 -12z m30 -7 c0 -5 -2 -10 -4 -10
-3 0 -8 5 -11 10 -3 6 -1 10 4 10 6 0 11 -4 11 -10z m44 2 c2 -4 -4 -8 -15 -8
-10 0 -19 4 -19 8 0 4 6 8 14 8 8 0 17 -4 20 -8z m304 -6 c-7 -8 -15 -12 -17
-11 -5 6 10 25 20 25 5 0 4 -6 -3 -14z m-84 -5 c3 -4 -4 -7 -14 -6 -27 2 -33
10 -10 12 11 1 22 -2 24 -6z m3206 -23 c0 -5 -18 -8 -40 -8 -22 0 -40 3 -40 8
0 4 18 7 40 7 22 0 40 -3 40 -7z m140 0 c0 -5 -20 -8 -45 -8 -25 0 -45 5 -45
10 0 6 20 9 45 8 25 -2 45 -6 45 -10z m44 -10 c-3 -4 -11 -5 -19 -1 -21 7 -19
12 4 10 11 0 18 -5 15 -9z m66 2 c0 -5 -9 -9 -20 -7 -31 5 -36 17 -7 17 15 0
27 -4 27 -10z m85 0 c-3 -5 -22 -10 -41 -10 -19 0 -34 5 -34 10 0 6 18 10 41
10 24 0 38 -4 34 -10z m-4295 -34 c0 -2 -7 -7 -16 -10 -8 -3 -12 -2 -9 4 6 10
25 14 25 6z m5423 -148 c6 -8 7 -23 4 -32 -9 -23 -44 -20 -58 6 -10 18 -8 24
7 35 21 15 34 13 47 -9z m-3345 -73 c-14 -31 -23 -25 -14 10 4 14 11 23 16 20
6 -3 5 -16 -2 -30z m-531 -12 c-3 -10 -5 -4 -5 12 0 17 2 24 5 18 2 -7 2 -21
0 -30z m46 19 c4 8 6 7 6 -4 1 -21 21 -25 21 -5 0 9 12 14 30 15 22 0 30 -4
30 -16 0 -11 -3 -13 -8 -6 -10 15 -40 13 -46 -3 -11 -27 -67 -1 -66 30 0 7 7
4 14 -6 11 -14 15 -15 19 -5z m104 -14 c-3 -7 -5 -2 -5 12 0 14 2 19 5 13 2
-7 2 -19 0 -25z m90 0 c-3 -7 -5 -2 -5 12 0 14 2 19 5 13 2 -7 2 -19 0 -25z
m360 10 c-3 -8 -6 -5 -6 6 -1 11 2 17 5 13 3 -3 4 -12 1 -19z m20 -15 c-3 -10
-5 -4 -5 12 0 17 2 24 5 18 2 -7 2 -21 0 -30z m50 6 c1 -19 1 -20 -4 -4 -3 11
-10 24 -17 28 -7 6 -6 7 4 4 8 -2 16 -14 17 -28z m30 -6 c-3 -10 -5 -4 -5 12
0 17 2 24 5 18 2 -7 2 -21 0 -30z m-521 7 c0 -11 -4 -20 -8 -20 -4 0 -8 9 -8
20 0 11 4 20 8 20 4 0 8 -9 8 -20z m41 -12 c-3 -7 -5 -2 -5 12 0 14 2 19 5 13
2 -7 2 -19 0 -25z m46 15 c-5 -12 -3 -14 8 -8 11 6 12 5 2 -5 -7 -8 -16 -11
-19 -7 -7 6 2 37 10 37 3 0 2 -7 -1 -17z m65 -3 c12 -13 13 -13 8 3 -3 9 -1
17 4 17 13 0 13 -27 0 -35 -6 -4 -17 -2 -24 5 -11 8 -15 8 -18 -2 -3 -7 -7 -2
-10 10 -5 17 -2 22 10 20 10 -2 23 -10 30 -18z m39 -12 c-3 -7 -5 -2 -5 12 0
14 2 19 5 13 2 -7 2 -19 0 -25z m52 10 c0 -16 -2 -18 -6 -8 -3 8 -11 18 -17
22 -7 5 -4 8 7 8 11 0 17 -7 16 -22z m58 15 c-4 -3 1 -12 11 -19 9 -7 12 -14
6 -14 -6 0 -19 9 -29 20 -17 19 -17 20 0 20 10 0 15 -3 12 -7z m170 -25 c-3
-8 -6 -5 -6 6 -1 11 2 17 5 13 3 -3 4 -12 1 -19z m120 0 c-3 -8 -6 -5 -6 6 -1
11 2 17 5 13 3 -3 4 -12 1 -19z m-367 8 c0 -3 -4 -8 -10 -11 -5 -3 -10 -1 -10
4 0 6 5 11 10 11 6 0 10 -2 10 -4z m5760 -30 c0 -3 -4 -8 -10 -11 -5 -3 -10
-1 -10 4 0 6 5 11 10 11 6 0 10 -2 10 -4z m-7870 -107 c0 -11 -8 -16 -23 -15
-22 1 -23 3 -14 33 9 29 11 31 23 15 7 -9 14 -24 14 -33z m94 -8 c1 -16 -2
-27 -6 -24 -5 2 -8 18 -8 35 0 39 13 29 14 -11z m49 -22 c-14 -14 -37 7 -28
27 7 17 9 16 15 -6 8 -25 8 -25 10 5 2 26 3 27 7 6 3 -13 1 -27 -4 -32z m-106
34 c-9 -2 -14 -9 -11 -15 4 -7 2 -8 -4 -4 -20 12 -13 26 11 25 17 -1 18 -2 4
-6z m173 -33 c0 -13 -1 -13 -10 0 -5 8 -10 22 -10 30 0 13 1 13 10 0 5 -8 10
-22 10 -30z m59 11 c0 -10 -2 -11 -6 -3 -2 6 -16 12 -29 12 -14 0 -23 4 -20 9
9 15 56 0 55 -18z m54 22 c3 6 6 3 6 -9 1 -26 -22 -27 -38 -2 -11 17 -10 18 8
9 14 -8 21 -8 24 2z m57 -20 c0 -11 -3 -14 -8 -7 -4 6 -14 14 -22 17 -10 4 -8
6 8 6 15 1 22 -5 22 -16z m-190 -13 c0 -5 -7 -10 -15 -10 -8 0 -15 5 -15 10 0
6 7 10 15 10 8 0 15 -4 15 -10z m170 0 c0 -5 -2 -10 -4 -10 -3 0 -8 5 -11 10
-3 6 -1 10 4 10 6 0 11 -4 11 -10z m1477 -27 c-3 -10 -5 -4 -5 12 0 17 2 24 5
18 2 -7 2 -21 0 -30z m-210 -5 c-3 -8 -6 -5 -6 6 -1 11 2 17 5 13 3 -3 4 -12
1 -19z m181 -3 c-3 -3 -9 2 -12 12 -6 14 -5 15 5 6 7 -7 10 -15 7 -18z m3650
-3 c3 -17 -2 -25 -18 -29 -19 -5 -21 -11 -16 -44 3 -21 2 -40 -3 -44 -18 -10
-23 15 -16 81 7 59 9 65 29 62 13 -2 22 -12 24 -26z m-5459 -64 c1 6 8 12 16
12 26 0 16 -25 -10 -26 -20 -2 -25 3 -24 20 0 20 1 20 9 1 5 -11 9 -14 9 -7z
m438 -10 c-3 -7 -5 -2 -5 12 0 14 2 19 5 13 2 -7 2 -19 0 -25z m47 16 c3 -8 2
-12 -4 -9 -6 3 -10 10 -10 16 0 14 7 11 14 -7z m-397 -16 c-3 -8 -6 -5 -6 6
-1 11 2 17 5 13 3 -3 4 -12 1 -19z m5526 -20 c3 -24 12 -154 18 -290 l13 -248
62 0 c56 0 63 2 80 28 22 31 22 74 5 351 -6 96 -9 176 -7 178 7 7 25 -160 31
-282 6 -127 12 -165 25 -165 5 0 35 30 67 67 119 138 204 202 101 76 -35 -43
-82 -103 -105 -133 -90 -122 -132 -151 -231 -159 -7 -1 -10 -5 -7 -11 4 -7 -2
-7 -19 0 -14 5 -66 10 -116 11 -64 1 -90 5 -90 14 0 8 26 14 81 18 45 3 84 9
88 14 7 8 2 151 -14 443 -5 85 -4 130 3 130 5 0 12 -19 15 -42z m-2139 16 c3
-8 2 -12 -4 -9 -6 3 -10 10 -10 16 0 14 7 11 14 -7z m2721 -24 c0 -25 -5 -36
-18 -38 -24 -5 -47 16 -47 43 0 29 9 37 40 33 21 -3 25 -8 25 -38z m-4515 14
c0 -2 -9 -4 -21 -4 -11 0 -18 4 -14 10 5 8 35 3 35 -6z m50 5 c0 -4 -9 -7 -19
-6 -11 0 -18 4 -16 7 6 9 35 8 35 -1z m40 -5 c0 -2 -7 -4 -15 -4 -8 0 -15 4
-15 10 0 5 7 7 15 4 8 -4 15 -8 15 -10z m1815 -2 c-3 -3 -11 0 -18 7 -9 10 -8
11 6 5 10 -3 15 -9 12 -12z m2372 -42 c4 -23 -13 -44 -31 -37 -9 4 -16 18 -16
32 0 22 4 26 22 23 13 -2 24 -10 25 -18z m1943 0 c20 -38 -8 -78 -45 -64 -21
8 -30 51 -15 69 18 21 47 19 60 -5z m-4757 -14 c4 -9 -3 -13 -21 -13 -24 0
-25 0 -7 13 10 8 20 14 21 14 1 0 4 -6 7 -14z m-349 -5 c3 -4 -4 -7 -14 -6
-27 2 -33 10 -10 12 11 1 22 -2 24 -6z m196 -1 c0 -5 -5 -10 -11 -10 -5 0 -7
5 -4 10 3 6 8 10 11 10 2 0 4 -4 4 -10z m70 0 c0 -5 -4 -10 -10 -10 -5 0 -10
5 -10 10 0 6 5 10 10 10 6 0 10 -4 10 -10z m25 0 c3 -5 1 -10 -4 -10 -6 0 -11
5 -11 10 0 6 2 10 4 10 3 0 8 -4 11 -10z m269 2 c3 -5 -1 -9 -9 -9 -8 0 -15 4
-15 9 0 4 4 8 9 8 6 0 12 -4 15 -8z m236 4 c0 -11 -19 -15 -25 -6 -3 5 1 10 9
10 9 0 16 -2 16 -4z m30 -6 c0 -5 -2 -10 -4 -10 -3 0 -8 5 -11 10 -3 6 -1 10
4 10 6 0 11 -4 11 -10z m30 0 c0 -5 -2 -10 -4 -10 -3 0 -8 5 -11 10 -3 6 -1
10 4 10 6 0 11 -4 11 -10z m-1983 -20 c4 -12 3 -13 -5 -1 -5 7 -15 10 -21 7
-6 -4 -11 -2 -11 4 0 17 33 8 37 -10z m27 5 c-4 -8 -8 -15 -10 -15 -2 0 -4 7
-4 15 0 8 4 15 10 15 5 0 7 -7 4 -15z m63 -7 c-3 -8 -6 -5 -6 6 -1 11 2 17 5
13 3 -3 4 -12 1 -19z m69 4 c1 -7 0 -8 -3 -2 -2 5 -9 10 -14 10 -6 0 -7 -6 -3
-12 6 -10 4 -10 -8 0 -13 10 -17 10 -21 0 -4 -9 -6 -7 -6 4 -1 12 6 16 26 15
14 -1 28 -8 29 -15z m44 3 c0 -8 -8 -15 -17 -14 -11 0 -13 3 -5 6 6 2 10 9 6
14 -3 5 0 9 5 9 6 0 11 -7 11 -15z m-1795 -14 c3 -5 1 -12 -5 -16 -5 -3 -10 1
-10 9 0 18 6 21 15 7z m-59 -38 c-11 -11 -19 6 -11 24 8 17 8 17 12 0 3 -10 2
-21 -1 -24z m29 27 c3 -5 1 -10 -4 -10 -6 0 -11 5 -11 10 0 6 2 10 4 10 3 0 8
-4 11 -10z m739 2 c3 -5 -1 -9 -9 -9 -8 0 -12 4 -9 9 3 4 7 8 9 8 2 0 6 -4 9
-8z m1251 -70 c4 -12 3 -13 -10 -2 -12 10 -15 10 -15 -1 0 -12 -2 -12 -9 -1
-4 8 -11 13 -15 12 -4 -1 -12 0 -19 3 -6 2 5 4 25 4 24 0 39 -6 43 -15z m127
11 c-6 -2 -9 -10 -6 -15 4 -7 2 -8 -4 -4 -18 11 -14 26 6 25 10 0 12 -3 4 -6z
m-417 -13 c3 -5 -1 -10 -10 -10 -9 0 -13 5 -10 10 3 6 8 10 10 10 2 0 7 -4 10
-10z m-825 -25 c7 -8 9 -15 6 -15 -4 0 -14 7 -22 15 -9 8 -11 15 -6 15 5 0 15
-7 22 -15z m88 -6 c-7 -5 -22 -8 -33 -8 -17 1 -17 2 -2 6 9 2 17 8 17 13 0 5
7 7 16 3 13 -5 13 -7 2 -14z m-960 -6 c-2 -9 -7 -18 -13 -20 -15 -4 -41 15
-32 24 5 4 12 1 17 -7 8 -13 10 -12 10 3 0 9 5 17 11 17 6 0 9 -8 7 -17z m595
3 c6 -15 -17 -16 -30 -1 -4 4 -2 5 5 1 6 -4 12 -2 12 3 0 15 7 14 13 -3z m131
5 c-8 -8 -43 -8 -38 0 2 4 13 7 24 6 10 -1 17 -3 14 -6z m-704 -203 c0 -9 4
-8 10 2 8 13 10 12 10 -2 0 -22 -26 -24 -34 -3 -3 8 -1 15 4 15 6 0 10 -6 10
-12z m85 -17 c-6 -5 -25 10 -25 20 0 5 6 4 14 -3 8 -7 12 -15 11 -17z m55 14
c0 -8 -5 -15 -11 -15 -5 0 -7 5 -4 10 3 6 1 10 -4 10 -6 0 -11 -5 -11 -12 0
-6 -3 -9 -6 -5 -9 9 5 27 22 27 8 0 14 -7 14 -15z m17 -7 c-3 -8 -6 -5 -6 6
-1 11 2 17 5 13 3 -3 4 -12 1 -19z m43 7 c0 -6 -7 -12 -15 -12 -8 0 -15 6 -15
12 0 6 7 12 15 12 8 0 15 -6 15 -12z m59 -3 c0 -10 -3 -12 -6 -4 -2 6 -9 12
-14 12 -6 0 -7 -4 -4 -10 3 -6 -1 -7 -9 -4 -24 9 -19 19 9 22 18 1 25 -3 24
-16z m68 -4 c-3 -8 -6 -5 -6 6 -1 11 2 17 5 13 3 -3 4 -12 1 -19z m49 10 c5
-7 3 -8 -6 -3 -7 4 -16 2 -21 -6 -7 -11 -9 -10 -9 4 0 19 25 23 36 5z m74 8
c0 -3 -4 -8 -10 -11 -5 -3 -10 -1 -10 4 0 6 5 11 10 11 6 0 10 -2 10 -4z m70
-2 c0 -2 -10 -8 -21 -15 -15 -8 -19 -8 -15 0 4 6 3 11 -3 11 -5 0 -12 -6 -14
-12 -3 -8 -6 -7 -6 4 -1 12 7 16 29 16 17 -1 30 -2 30 -4z m100 -3 c0 -4 -16
-8 -35 -8 -19 0 -35 3 -35 7 0 4 16 7 35 8 19 1 35 -2 35 -7z m199 5 c-11 -10
-98 -15 -104 -6 -4 6 15 10 51 10 32 0 55 -2 53 -4z m108 -2 c-3 -3 -12 -4
-19 -1 -8 3 -5 6 6 6 11 1 17 -2 13 -5z m-877 -14 c0 -5 -2 -10 -4 -10 -3 0
-8 5 -11 10 -3 6 -1 10 4 10 6 0 11 -4 11 -10z m1606 -82 c19 -23 19 -23 -1
-7 -11 9 -27 19 -35 22 -13 5 -13 6 1 6 9 1 24 -9 35 -21z m-1369 -30 c-3 -8
-6 -5 -6 6 -1 11 2 17 5 13 3 -3 4 -12 1 -19z m74 13 c7 11 9 10 9 -4 0 -20
-22 -19 -26 1 -2 9 -1 9 3 1 4 -8 8 -7 14 2z m59 -14 c0 -7 -4 -6 -10 3 -6 10
-10 11 -10 3 0 -7 -5 -13 -11 -13 -8 0 -8 5 1 15 13 16 30 11 30 -8z m17 1
c-3 -8 -6 -5 -6 6 -1 11 2 17 5 13 3 -3 4 -12 1 -19z m33 12 c-12 -8 -12 -10
-1 -10 8 0 12 -3 8 -6 -9 -9 -28 6 -22 17 4 5 12 9 18 9 7 0 6 -4 -3 -10z m27
-12 c-3 -8 -6 -5 -6 6 -1 11 2 17 5 13 3 -3 4 -12 1 -19z m26 7 c-3 -9 -8 -14
-10 -11 -3 3 -2 9 2 15 9 16 15 13 8 -4z m37 6 c0 -5 -7 -12 -16 -15 -14 -5
-15 -4 -4 9 14 17 20 19 20 6z m17 -13 c-3 -8 -6 -5 -6 6 -1 11 2 17 5 13 3
-3 4 -12 1 -19z m53 11 c0 -13 -28 -18 -33 -6 -3 7 3 13 14 13 11 0 19 -3 19
-7z m44 3 c2 -4 -5 -9 -17 -9 -17 -2 -19 0 -7 7 18 12 18 12 24 2z m211 -1
c-10 -9 -44 -11 -49 -3 -3 5 8 8 24 8 17 0 27 -2 25 -5z m85 3 c0 -8 -19 -13
-24 -6 -3 5 1 9 9 9 8 0 15 -2 15 -3z m-995 -14 c3 -5 1 -10 -4 -10 -6 0 -11
5 -11 10 0 6 2 10 4 10 3 0 8 -4 11 -10z m35 -4 c0 6 7 11 15 11 8 0 15 -4 15
-9 0 -4 -7 -8 -15 -8 -8 0 -18 0 -22 -1 -4 0 -9 5 -11 13 -2 9 0 8 7 -2 6 -8
11 -10 11 -4z m55 4 c3 -5 1 -10 -4 -10 -6 0 -11 5 -11 10 0 6 2 10 4 10 3 0
8 -4 11 -10z m95 6 c0 -3 -4 -8 -10 -11 -5 -3 -10 -1 -10 4 0 6 5 11 10 11 6
0 10 -2 10 -4z m1378 -66 c0 -9 -3 -7 -8 5 -5 11 -8 29 -8 40 0 16 2 15 8 -5
4 -14 8 -32 8 -40z m100 18 c2 -22 -1 -38 -7 -38 -6 0 -11 -6 -11 -14 0 -7 -7
-19 -15 -26 -11 -9 -19 -9 -36 4 -17 12 -23 27 -25 66 l-3 51 47 -3 c46 -3 47
-3 50 -40z m39 10 c-3 -7 -5 -2 -5 12 0 14 2 19 5 13 2 -7 2 -19 0 -25z m4243
17 c18 -22 3 -57 -23 -53 -25 3 -34 32 -17 53 16 19 24 19 40 0z m220 0 c15
-18 5 -64 -15 -72 -21 -8 -65 24 -65 47 0 35 57 53 80 25z m-4643 -17 c-3 -8
-6 -5 -6 6 -1 11 2 17 5 13 3 -3 4 -12 1 -19z m22 -63 c0 -5 -4 -3 -9 5 -5 8
-9 22 -9 30 0 16 17 -16 18 -35z m4136 14 c11 -17 2 -18 -25 -4 -24 14 -24 14
-3 15 12 0 25 -5 28 -11z m-3842 -12 c3 -8 1 -20 -4 -28 -6 -10 -9 -7 -9 14 0
29 5 35 13 14z m474 -9 c-3 -8 -6 -5 -6 6 -1 11 2 17 5 13 3 -3 4 -12 1 -19z
m-450 -20 c-3 -7 -5 -2 -5 12 0 14 2 19 5 13 2 -7 2 -19 0 -25z m92 10 c0 -20
-1 -21 -8 -5 -8 22 -21 24 -32 5 -7 -10 -9 -10 -9 0 0 18 -18 15 -23 -5 -4
-14 -5 -12 -6 5 -1 19 4 22 39 22 35 0 40 -3 39 -22z m81 13 c0 -5 -5 -13 -12
-17 -7 -4 -8 -3 -4 4 5 8 -1 12 -15 12 -19 0 -20 -2 -8 -17 12 -16 12 -17 -2
-6 -9 7 -19 10 -22 6 -4 -3 -7 0 -7 8 0 10 12 16 35 17 19 2 35 -2 35 -7z m16
-17 c-4 -9 -9 -15 -11 -12 -3 3 -3 13 1 22 4 9 9 15 11 12 3 -3 3 -13 -1 -22z
m21 4 c-3 -8 -6 -5 -6 6 -1 11 2 17 5 13 3 -3 4 -12 1 -19z m20 0 c-3 -8 -6
-5 -6 6 -1 11 2 17 5 13 3 -3 4 -12 1 -19z m33 7 c0 -8 -4 -15 -8 -15 -5 0 -9
7 -9 15 0 8 4 15 9 15 4 0 8 -7 8 -15z m17 -7 c-3 -8 -6 -5 -6 6 -1 11 2 17 5
13 3 -3 4 -12 1 -19z m-452 -28 c-3 -5 -12 -10 -18 -10 -7 0 -6 4 3 10 19 12
23 12 15 0z m4055 0 c0 -5 -2 -10 -4 -10 -3 0 -8 5 -11 10 -3 6 -1 10 4 10 6
0 11 -4 11 -10z m-4557 -35 c-3 -9 -8 -14 -10 -11 -3 3 -2 9 2 15 9 16 15 13
8 -4z m1537 11 c0 -2 -7 -7 -16 -10 -8 -3 -12 -2 -9 4 6 10 25 14 25 6z
m-1963 -28 c-3 -8 -6 -5 -6 6 -1 11 2 17 5 13 3 -3 4 -12 1 -19z m80 7 c0 -8
-4 -12 -9 -9 -5 3 -6 10 -3 15 9 13 12 11 12 -6z m-490 -17 c-3 -8 -6 -5 -6 6
-1 11 2 17 5 13 3 -3 4 -12 1 -19z m313 10 c0 -5 -4 -6 -10 -3 -5 3 -10 2 -10
-4 0 -6 -11 -6 -29 -1 -16 4 -32 6 -35 2 -3 -3 -6 -1 -6 5 0 5 20 10 45 10 25
1 45 -3 45 -9z m44 4 c3 -5 -1 -9 -9 -9 -8 0 -15 4 -15 9 0 4 4 8 9 8 6 0 12
-4 15 -8z m91 -10 c-3 -3 -11 0 -18 7 -9 10 -8 11 6 5 10 -3 15 -9 12 -12z
m-717 3 c-9 -9 -68 -15 -68 -7 0 5 17 9 37 10 21 2 35 0 31 -3z m85 -2 c-7 -2
-19 -2 -25 0 -7 3 -2 5 12 5 14 0 19 -2 13 -5z m167 -5 c0 -8 -66 -5 -74 3 -3
3 13 5 34 5 22 0 40 -3 40 -8z m65 2 c3 -6 -1 -7 -9 -4 -18 7 -21 14 -7 14 6
0 13 -4 16 -10z m88 3 c3 -5 -6 -9 -20 -10 -19 -1 -22 1 -12 8 17 11 26 11 32
2z m1364 -15 c-3 -8 -6 -5 -6 6 -1 11 2 17 5 13 3 -3 4 -12 1 -19z m203 7 c0
-2 -9 -3 -19 -2 -11 0 -18 5 -15 9 4 6 34 0 34 -7z m25 5 c3 -5 1 -10 -4 -10
-6 0 -11 5 -11 10 0 6 2 10 4 10 3 0 8 -4 11 -10z m-1305 -75 c0 -9 -9 -15
-25 -15 -14 0 -25 5 -25 11 0 6 7 9 15 6 8 -4 17 -2 20 3 9 14 15 12 15 -5z
m57 -7 c-3 -8 -6 -5 -6 6 -1 11 2 17 5 13 3 -3 4 -12 1 -19z m-559 -13 c-3 -3
-9 2 -12 12 -6 14 -5 15 5 6 7 -7 10 -15 7 -18z m102 15 c22 6 28 5 24 -5 -7
-17 -57 -14 -60 3 -1 7 0 8 2 3 3 -5 17 -6 34 -1z m50 -5 c0 -8 -4 -15 -10
-15 -5 0 -7 7 -4 15 4 8 8 15 10 15 2 0 4 -7 4 -15z m87 1 c-4 8 8 11 38 11
35 0 45 -4 45 -16 0 -9 -3 -12 -8 -6 -7 11 -22 11 -86 -1 -36 -6 -38 -6 -25 8
11 12 17 13 28 4 10 -7 13 -7 8 0z m133 4 c0 -5 -4 -10 -10 -10 -5 0 -10 5
-10 10 0 6 5 10 10 10 6 0 10 -4 10 -10z m70 2 c0 -4 -9 -8 -20 -9 -11 -1 -20
2 -20 5 0 4 9 8 20 9 11 1 20 -2 20 -5z m90 -2 c0 -5 -2 -10 -4 -10 -3 0 -8 5
-11 10 -3 6 -1 10 4 10 6 0 11 -4 11 -10z m-693 -22 c-3 -8 -6 -5 -6 6 -1 11
2 17 5 13 3 -3 4 -12 1 -19z m213 14 c0 -4 -9 -8 -20 -9 -11 -1 -20 2 -20 5 0
4 9 8 20 9 11 1 20 -2 20 -5z m-295 -12 c3 -5 1 -10 -4 -10 -6 0 -11 5 -11 10
0 6 2 10 4 10 3 0 8 -4 11 -10z m55 4 c0 -8 -19 -13 -24 -6 -3 5 1 9 9 9 8 0
15 -2 15 -3z m120 -88 c0 -3 -4 -8 -10 -11 -5 -3 -10 -1 -10 4 0 6 5 11 10 11
6 0 10 -2 10 -4z m3550 -26 c0 -11 -7 -20 -15 -20 -8 0 -15 5 -15 10 0 6 -5
10 -11 10 -5 0 -7 -5 -3 -12 4 -7 3 -8 -4 -4 -7 4 -12 11 -12 17 0 14 38 11
43 -3 3 -8 6 -6 6 5 1 24 11 22 11 -3z m27 -1 c2 -16 -1 -19 -9 -11 -5 5 -7
15 -4 21 10 15 12 14 13 -10z m40 -1 c-3 -8 -6 -5 -6 6 -1 11 2 17 5 13 3 -3
4 -12 1 -19z m27 7 c-4 -8 -8 -15 -10 -15 -2 0 -4 7 -4 15 0 8 4 15 10 15 5 0
7 -7 4 -15z m26 0 c0 -8 -4 -15 -10 -15 -5 0 -7 7 -4 15 4 8 8 15 10 15 2 0 4
-7 4 -15z m17 -7 c-3 -8 -6 -5 -6 6 -1 11 2 17 5 13 3 -3 4 -12 1 -19z m43 5
c0 -10 -4 -14 -8 -8 -4 6 -11 13 -16 18 -5 4 -2 7 7 7 10 0 17 -8 17 -17z
m1540 7 c0 -5 -4 -10 -9 -10 -6 0 -13 5 -16 10 -3 6 1 10 9 10 9 0 16 -4 16
-10z m-3690 -79 c-1 -20 -7 -49 -14 -66 -12 -28 -13 -25 -8 38 4 56 2 71 -14
90 -17 19 -16 19 9 -2 20 -18 27 -33 27 -60z m1629 66 c8 -10 7 -14 -2 -14 -8
0 -14 6 -14 14 0 7 1 13 2 13 2 0 8 -6 14 -13z m92 4 c7 11 9 10 9 -3 0 -11
-8 -18 -20 -18 -14 0 -18 5 -13 17 5 12 8 13 11 4 4 -11 6 -11 13 0z m33 -6
c-4 -8 -8 -15 -10 -15 -2 0 -4 7 -4 15 0 8 4 15 10 15 5 0 7 -7 4 -15z m41 5
c-3 -5 1 -10 10 -10 9 0 13 5 10 10 -3 6 -1 10 5 10 21 0 4 -25 -18 -28 -15
-2 -22 2 -22 12 0 9 5 16 11 16 5 0 7 -4 4 -10z m72 -12 c-3 -8 -6 -5 -6 6 -1
11 2 17 5 13 3 -3 4 -12 1 -19z m33 7 c0 -8 -4 -15 -8 -15 -5 0 -9 7 -9 15 0
8 4 15 9 15 4 0 8 -7 8 -15z m-2069 -57 c-2 -45 -6 -57 -12 -43 -11 29 -11 63
1 86 6 10 12 19 13 19 1 0 0 -28 -2 -62z m1539 52 c0 -5 -5 -10 -11 -10 -5 0
-7 5 -4 10 3 6 8 10 11 10 2 0 4 -4 4 -10z m17 -12 c-3 -8 -6 -5 -6 6 -1 11 2
17 5 13 3 -3 4 -12 1 -19z m69 15 c-10 -11 -36 -12 -36 -2 0 5 10 9 22 9 12 0
18 -3 14 -7z m74 -9 c7 -7 1 -9 -20 -6 -16 2 -30 8 -30 11 0 11 39 6 50 -5z
m-240 -3 c0 -6 -4 -13 -10 -16 -5 -3 -10 1 -10 9 0 9 5 16 10 16 6 0 10 -4 10
-9z m-223 -23 c-3 -8 -6 -5 -6 6 -1 11 2 17 5 13 3 -3 4 -12 1 -19z m140 16
c-3 -3 -12 -4 -19 -1 -8 3 -5 6 6 6 11 1 17 -2 13 -5z m-380 -29 c0 -8 -4 -12
-9 -9 -4 3 -8 9 -8 15 0 5 4 9 8 9 5 0 9 -7 9 -15z m20 -7 c-3 -8 -6 -5 -6 6
-1 11 2 17 5 13 3 -3 4 -12 1 -19z m-937 -13 c0 -16 5 -22 17 -21 12 0 19 -7
21 -22 3 -22 1 -23 -50 -20 -46 3 -53 6 -52 23 3 48 11 60 44 62 15 1 20 -4
20 -22z m429 13 c-3 -29 2 -40 16 -34 8 3 15 1 15 -4 0 -6 -9 -10 -20 -10 -23
0 -35 22 -26 45 7 18 18 20 15 3z m278 -20 c-3 -7 -5 -2 -5 12 0 14 2 19 5 13
2 -7 2 -19 0 -25z m30 10 c-3 -8 -6 -5 -6 6 -1 11 2 17 5 13 3 -3 4 -12 1 -19z
m40 0 c-3 -8 -6 -5 -6 6 -1 11 2 17 5 13 3 -3 4 -12 1 -19z m20 0 c-3 -8 -6
-5 -6 6 -1 11 2 17 5 13 3 -3 4 -12 1 -19z m53 12 c0 -5 -2 -10 -4 -10 -3 0
-8 5 -11 10 -3 6 -1 10 4 10 6 0 11 -4 11 -10z m-629 -36 c-9 -28 -9 -29 -10
-3 -1 14 2 29 6 32 11 12 13 2 4 -29z m39 26 c0 -5 -4 -10 -10 -10 -5 0 -10 5
-10 10 0 6 5 10 10 10 6 0 10 -4 10 -10z m45 0 c-4 -6 -11 -8 -16 -5 -5 4 -9
1 -9 -6 0 -7 -3 -10 -6 -6 -9 9 5 27 22 27 8 0 12 -5 9 -10z m45 0 c0 -5 -4
-10 -10 -10 -5 0 -10 5 -10 10 0 6 5 10 10 10 6 0 10 -4 10 -10z m47 -10 c2
-25 -12 -34 -34 -20 -15 9 -15 10 5 4 21 -5 23 -3 17 15 -3 12 -3 21 2 21 5 0
9 -9 10 -20z m139 8 c4 -7 3 -8 -4 -4 -7 4 -12 3 -12 -3 0 -5 6 -12 13 -15 6
-2 1 -3 -12 -2 -14 2 -27 9 -29 17 -3 11 -1 11 7 -1 9 -13 11 -13 11 3 0 19
15 23 26 5z m34 -18 c5 0 7 7 4 15 -4 8 -1 15 5 15 6 0 11 -9 11 -20 0 -13 -7
-20 -20 -20 -14 0 -20 6 -19 23 1 16 2 18 6 5 2 -10 8 -18 13 -18z m59 8 c0
-16 -2 -18 -6 -8 -3 8 -11 18 -17 22 -7 5 -4 8 7 8 11 0 17 -7 16 -22z m58 0
c-3 -8 -6 -5 -6 6 -1 11 2 17 5 13 3 -3 4 -12 1 -19z m1463 12 c0 -5 -2 -10
-4 -10 -3 0 -8 5 -11 10 -3 6 -1 10 4 10 6 0 11 -4 11 -10z m-1950 -31 c0 -17
-4 -28 -10 -24 -11 7 -9 55 2 55 4 0 8 -14 8 -31z m277 9 c-3 -8 -6 -5 -6 6
-1 11 2 17 5 13 3 -3 4 -12 1 -19z m-138 -17 c0 -11 -2 -12 -6 -3 -4 9 -9 10
-18 2 -9 -8 -14 -7 -18 2 -3 8 5 14 19 14 16 1 24 -3 23 -15z m6140 2 c40 -32
54 -150 23 -181 -16 -16 -42 -20 -168 -26 -82 -3 -243 -11 -359 -16 -115 -5
-347 -14 -515 -20 -1213 -40 -1495 -50 -1572 -55 -77 -5 -87 -4 -92 12 -11 35
-27 203 -21 213 4 6 64 10 153 10 155 0 605 14 957 30 116 6 433 15 705 20
272 6 563 14 645 19 83 4 166 9 186 10 22 0 46 -6 58 -16z m-5769 -37 c0 -3
-4 -8 -10 -11 -5 -3 -10 -1 -10 4 0 6 5 11 10 11 6 0 10 -2 10 -4z m35 -6 c3
-6 -1 -7 -9 -4 -18 7 -21 14 -7 14 6 0 13 -4 16 -10z m-188 -22 c-3 -8 -6 -5
-6 6 -1 11 2 17 5 13 3 -3 4 -12 1 -19z m33 12 c0 -5 -4 -10 -10 -10 -5 0 -10
5 -10 10 0 6 5 10 10 10 6 0 10 -4 10 -10z m54 -2 c-3 -4 -9 -8 -15 -8 -5 0
-9 4 -9 8 0 5 7 9 15 9 8 0 12 -4 9 -9z m-2215 -111 l-1 -32 -9 33 c-5 17 -14
32 -19 32 -6 0 -10 5 -10 10 0 7 6 7 20 0 14 -7 20 -20 19 -43z m48 -19 c-3
-7 -5 -2 -5 12 0 14 2 19 5 13 2 -7 2 -19 0 -25z m43 25 c0 -5 -5 -15 -10 -23
-8 -12 -10 -11 -10 8 0 12 5 22 10 22 6 0 10 -3 10 -7z m90 -10 c0 -8 5 -11
10 -8 6 4 7 11 4 17 -4 7 -2 8 4 4 25 -15 0 -33 -49 -35 -37 0 -49 3 -49 14 0
17 16 20 25 5 3 -5 11 -10 17 -10 7 0 7 4 0 13 -8 9 -4 12 14 13 15 1 24 -4
24 -13z m74 1 c23 -23 19 -30 -4 -9 -16 14 -19 15 -15 4 4 -10 0 -16 -10 -16
-17 0 -17 0 -9 21 8 20 18 20 38 0z m41 -13 c-6 -5 -25 10 -25 20 0 5 6 4 14
-3 8 -7 12 -15 11 -17z m3465 -105 c0 -2 -7 -7 -16 -10 -8 -3 -12 -2 -9 4 6
10 25 14 25 6z m-3171 -79 c0 -9 -2 -9 -6 1 -2 6 -9 10 -14 6 -5 -3 -9 1 -9 8
-1 8 -6 6 -15 -6 -8 -11 -15 -15 -15 -10 0 6 5 15 12 22 13 13 48 -2 47 -21z
m-249 2 c0 -11 -4 -18 -10 -14 -5 3 -7 12 -3 20 7 21 13 19 13 -6z m23 1 c3
-11 1 -18 -4 -14 -5 3 -9 12 -9 20 0 20 7 17 13 -6z m134 5 c0 -8 -2 -15 -4
-15 -3 0 -11 7 -19 15 -14 13 -13 15 4 15 10 0 19 -7 19 -15z m20 -7 c-3 -8
-6 -5 -6 6 -1 11 2 17 5 13 3 -3 4 -12 1 -19z m140 0 c-3 -8 -6 -5 -6 6 -1 11
2 17 5 13 3 -3 4 -12 1 -19z m-632 2 c-4 -6 -11 -8 -16 -5 -5 4 -9 -1 -9 -10
0 -9 -5 -13 -10 -10 -6 4 -8 11 -5 16 4 5 1 9 -5 9 -7 0 -9 -8 -5 -19 3 -11 1
-22 -5 -26 -6 -4 -10 6 -10 24 0 29 3 31 36 31 21 0 33 -4 29 -10z m95 -1 c0
8 3 12 6 8 3 -3 1 -14 -5 -24 -8 -14 -10 -14 -11 -3 0 13 -1 13 -10 0 -11 -17
-13 -9 -4 15 5 13 8 14 15 3 7 -11 9 -10 9 1z m50 -9 c0 -11 -2 -20 -4 -20 -2
0 -6 9 -9 20 -3 11 -1 20 4 20 5 0 9 -9 9 -20z m35 10 c3 -6 -1 -7 -9 -4 -18
7 -21 14 -7 14 6 0 13 -4 16 -10z m189 -6 c3 -8 2 -12 -4 -9 -6 3 -10 10 -10
16 0 14 7 11 14 -7z m1356 -68 l-5 -51 -3 43 c-3 37 -8 46 -38 64 -45 27 -43
30 9 11 l42 -15 -5 -52z m-1493 52 c-3 -8 -6 -5 -6 6 -1 11 2 17 5 13 3 -3 4
-12 1 -19z m177 10 c-3 -4 -9 -8 -15 -8 -5 0 -9 4 -9 8 0 5 7 9 15 9 8 0 12
-4 9 -9z m2094 -1 c8 -10 6 -13 -11 -14 -12 0 -16 1 -8 4 11 5 11 7 0 14 -8 5
-9 9 -3 9 6 0 16 -6 22 -13z m-2378 -7 c0 -5 -5 -10 -11 -10 -5 0 -7 5 -4 10
3 6 8 10 11 10 2 0 4 -4 4 -10z m2169 -8 c0 -11 -2 -12 -6 -4 -2 6 -9 10 -13
7 -5 -3 -11 -2 -14 3 -2 4 4 9 15 9 12 1 19 -4 18 -15z m-252 -24 c-3 -7 -5
-2 -5 12 0 14 2 19 5 13 2 -7 2 -19 0 -25z m20 10 c-3 -8 -6 -5 -6 6 -1 11 2
17 5 13 3 -3 4 -12 1 -19z m53 13 c0 -5 -9 -7 -20 -4 -11 3 -20 7 -20 9 0 2 9
4 20 4 11 0 20 -4 20 -9z m17 -23 c-3 -7 -5 -2 -5 12 0 14 2 19 5 13 2 -7 2
-19 0 -25z m-553 -138 c8 -13 7 -13 -7 0 -10 9 -16 35 -18 70 -3 89 3 101 10
20 4 -41 11 -82 15 -90z m244 135 c-3 -3 -9 2 -12 12 -6 14 -5 15 5 6 7 -7 10
-15 7 -18z m62 15 c0 -5 -7 -7 -15 -4 -8 4 -15 8 -15 10 0 2 7 4 15 4 8 0 15
-4 15 -10z m17 -12 c-3 -8 -6 -5 -6 6 -1 11 2 17 5 13 3 -3 4 -12 1 -19z m97
10 c-2 -4 -14 -5 -26 -3 -32 7 -32 13 1 11 16 0 27 -4 25 -8z m-379 -19 c-4
-5 5 -9 19 -9 19 0 27 -7 32 -24 8 -34 -12 -66 -40 -66 -22 0 -24 5 -28 53 -5
56 -2 71 13 61 5 -3 7 -10 4 -15z m-1218 -51 c-3 -8 -6 -5 -6 6 -1 11 2 17 5
13 3 -3 4 -12 1 -19z m-247 2 c0 -5 -5 -10 -11 -10 -5 0 -7 5 -4 10 3 6 8 10
11 10 2 0 4 -4 4 -10z m17 -12 c-3 -8 -6 -5 -6 6 -1 11 2 17 5 13 3 -3 4 -12
1 -19z m43 18 c0 -2 -7 -6 -15 -10 -8 -3 -15 -1 -15 4 0 6 7 10 15 10 8 0 15
-2 15 -4z m-206 -15 c3 -3 -6 -8 -20 -9 -13 -1 -24 2 -24 6 0 10 38 13 44 3z
m36 -1 c0 -5 -2 -10 -4 -10 -3 0 -8 5 -11 10 -3 6 -1 10 4 10 6 0 11 -4 11
-10z m3285 -19 c-3 -6 -11 -11 -16 -11 -5 0 -4 6 3 14 14 16 24 13 13 -3z
m-1174 -82 c-5 -13 -10 -19 -10 -12 -1 15 10 45 15 40 3 -2 0 -15 -5 -28z m51
10 c-5 -11 -11 -20 -15 -20 -4 1 -11 1 -17 1 -15 0 0 28 18 33 10 3 18 5 19 6
1 0 -1 -8 -5 -20z m-342 -4 c8 0 18 5 22 10 4 6 8 -3 8 -19 0 -28 -1 -29 -14
-10 -12 15 -17 17 -27 7 -10 -11 -10 -13 0 -13 7 0 9 -4 6 -10 -13 -20 -25 -9
-25 23 0 17 4 28 8 22 4 -5 14 -10 22 -10z m60 5 c0 -5 -2 -10 -4 -10 -3 0 -8
5 -11 10 -3 6 -1 10 4 10 6 0 11 -4 11 -10z m36 -15 c2 -28 -13 -34 -23 -9 -3
9 0 20 8 25 8 5 14 9 14 9 0 0 1 -11 1 -25z m103 3 c-1 -17 -2 -19 -6 -5 -2 9
-9 17 -15 17 -5 0 -8 -7 -4 -15 3 -8 1 -15 -4 -15 -11 0 -13 23 -3 33 14 15
33 6 32 -15z m51 2 c7 -14 7 -20 0 -20 -5 0 -11 8 -11 18 -1 16 -2 16 -6 0 -6
-24 -23 -23 -23 2 0 11 7 20 15 20 8 0 19 -9 25 -20z m-107 1 c4 10 6 9 6 -3
1 -9 -3 -19 -7 -22 -13 -8 -35 11 -27 24 6 10 9 10 15 0 6 -9 9 -9 13 1z
m-1673 -76 c0 -2 -9 -3 -19 -2 -11 0 -18 5 -15 9 4 6 34 0 34 -7z m-140 -5 c0
-5 -5 -10 -11 -10 -5 0 -7 5 -4 10 3 6 8 10 11 10 2 0 4 -4 4 -10z m1660 -10
c0 -5 -2 -10 -4 -10 -3 0 -8 5 -11 10 -3 6 -1 10 4 10 6 0 11 -4 11 -10z m67
-12 c-3 -8 -6 -5 -6 6 -1 11 2 17 5 13 3 -3 4 -12 1 -19z m277 14 c3 -5 -1 -9
-9 -9 -8 0 -12 4 -9 9 3 4 7 8 9 8 2 0 6 -4 9 -8z m-2107 -8 c-3 -3 -12 -4
-19 -1 -8 3 -5 6 6 6 11 1 17 -2 13 -5z m3583 -139 c8 5 11 4 7 -2 -4 -6 -18
-10 -31 -10 -19 0 -22 2 -13 12 8 8 14 9 18 3 4 -6 12 -7 19 -3z m-190 -10 c0
-8 -4 -15 -10 -15 -5 0 -7 7 -4 15 4 8 8 15 10 15 2 0 4 -7 4 -15z m40 5 c0
-5 -8 -10 -17 -10 -15 0 -16 2 -3 10 19 12 20 12 20 0z m46 -17 c-4 -4 -12 -1
-19 7 -9 10 -9 11 1 6 7 -4 12 -2 13 6 0 11 2 11 6 0 3 -7 2 -16 -1 -19z
m-2862 1 c3 -8 2 -12 -4 -9 -6 3 -10 10 -10 16 0 14 7 11 14 -7z m82 -2 c1 -7
0 -8 -3 -2 -2 5 -9 8 -14 4 -5 -3 -9 0 -9 6 0 15 23 7 26 -8z m2557 3 c-3 -9
-8 -14 -10 -11 -3 3 -2 9 2 15 9 16 15 13 8 -4z m102 5 c3 -5 1 -10 -4 -10 -6
0 -11 5 -11 10 0 6 2 10 4 10 3 0 8 -4 11 -10z m-2847 -26 c2 -1 -9 -1 -23 -1
-25 0 -31 7 -18 20 3 4 13 1 22 -5 9 -7 17 -13 19 -14z m76 18 c3 -5 -1 -9 -9
-9 -8 0 -15 4 -15 9 0 4 4 8 9 8 6 0 12 -4 15 -8z m2573 -7 c0 -8 -4 -12 -9
-9 -5 3 -6 10 -3 15 9 13 12 11 12 -6z m-2834 -10 c-3 -9 -8 -14 -10 -11 -3 3
-2 9 2 15 9 16 15 13 8 -4z m82 5 c3 -6 -1 -7 -9 -4 -18 7 -21 14 -7 14 6 0
13 -4 16 -10z m-205 -4 c0 -2 -7 -6 -15 -10 -8 -3 -15 -1 -15 4 0 6 7 10 15
10 8 0 15 -2 15 -4z m2522 -10 c7 4 8 2 4 -4 -11 -18 -26 -14 -25 6 0 10 3 12
6 4 2 -6 10 -9 15 -6z m62 2 c-2 -3 2 -8 8 -11 7 -3 3 -4 -9 -4 -13 1 -23 6
-23 12 0 5 -5 3 -10 -5 -8 -13 -10 -13 -10 1 0 12 8 16 24 15 13 0 22 -4 20
-8z m81 -6 c-3 -3 -11 0 -18 7 -9 10 -8 11 6 5 10 -3 15 -9 12 -12z m-1250 -5
c18 -14 18 -37 0 -79 -10 -26 13 -23 44 5 l26 22 -20 -23 c-21 -25 -76 -52
-106 -52 -25 0 -25 31 0 50 23 16 18 30 -9 30 -16 0 -30 18 -30 40 0 20 70 25
95 7z m995 -3 c0 -10 -6 -14 -15 -10 -8 3 -15 1 -15 -5 0 -16 -43 -6 -47 11
-4 13 -3 13 6 0 10 -13 11 -13 11 0 0 12 2 12 9 1 6 -9 11 -10 15 -2 4 6 12 9
17 6 5 -4 9 -1 9 4 0 6 2 11 5 11 3 0 5 -7 5 -16z m24 1 c3 -8 1 -15 -4 -15
-6 0 -10 7 -10 15 0 8 2 15 4 15 2 0 6 -7 10 -15z m53 -7 c-3 -8 -6 -5 -6 6
-1 11 2 17 5 13 3 -3 4 -12 1 -19z m-370 -25 c-3 -10 -5 -4 -5 12 0 17 2 24 5
18 2 -7 2 -21 0 -30z m73 17 c0 -11 -4 -20 -9 -20 -5 0 -7 9 -4 20 3 11 7 20
9 20 2 0 4 -9 4 -20z m73 3 c-3 -7 -9 -13 -14 -13 -5 0 -9 6 -9 13 0 8 6 14
14 14 8 0 12 -6 9 -14z m54 -5 c-3 -8 -6 -5 -6 6 -1 11 2 17 5 13 3 -3 4 -12
1 -19z m-180 -10 c-3 -8 -6 -5 -6 6 -1 11 2 17 5 13 3 -3 4 -12 1 -19z m70 0
c-3 -8 -6 -5 -6 6 -1 11 2 17 5 13 3 -3 4 -12 1 -19z m-304 -8 c-3 -12 -8 -19
-11 -16 -5 6 5 36 12 36 2 0 2 -9 -1 -20z m45 3 c-6 -7 -12 -13 -13 -13 -2 0
-5 6 -8 13 -3 7 3 13 14 13 13 0 15 -3 7 -13z m209 -5 c-3 -8 -6 -5 -6 6 -1
11 2 17 5 13 3 -3 4 -12 1 -19z m-870 -10 c-3 -8 -6 -5 -6 6 -1 11 2 17 5 13
3 -3 4 -12 1 -19z m447 0 c-6 -20 -5 -21 10 -9 9 7 16 9 16 3 0 -13 -28 -23
-35 -12 -3 4 -2 15 1 24 9 24 16 19 8 -6z m73 0 c-3 -8 -6 -5 -6 6 -1 11 2 17
5 13 3 -3 4 -12 1 -19z m50 7 c0 -8 -4 -12 -9 -9 -5 3 -6 10 -3 15 9 13 12 11
12 -6z m140 -7 c-3 -8 -6 -5 -6 6 -1 11 2 17 5 13 3 -3 4 -12 1 -19z m-417 -3
c1 15 3 16 7 5 3 -8 11 -19 17 -23 7 -6 6 -7 -4 -4 -8 2 -24 0 -34 -6 -16 -8
-18 -6 -13 8 4 9 7 22 8 28 0 7 4 3 9 -8 l9 -20 1 20z m57 -17 c-3 -7 -5 -2
-5 12 0 14 2 19 5 13 2 -7 2 -19 0 -25z m20 0 c-3 -7 -5 -2 -5 12 0 14 2 19 5
13 2 -7 2 -19 0 -25z m-1367 3 c0 -6 -4 -12 -8 -15 -5 -3 -9 1 -9 9 0 8 4 15
9 15 4 0 8 -4 8 -9z m2150 -1 c0 -5 -4 -10 -10 -10 -5 0 -10 5 -10 10 0 6 5
10 10 10 6 0 10 -4 10 -10z m37 4 c-3 -3 -12 -4 -19 -1 -8 3 -5 6 6 6 11 1 17
-2 13 -5z m-2330 -26 c-3 -8 -6 -5 -6 6 -1 11 2 17 5 13 3 -3 4 -12 1 -19z
m73 12 c0 -5 -2 -10 -4 -10 -3 0 -8 5 -11 10 -3 6 -1 10 4 10 6 0 11 -4 11
-10z m1095 -68 c-6 -6 -25 45 -24 66 0 9 7 -1 15 -22 8 -22 12 -41 9 -44z
m2242 56 c-3 -8 -6 -5 -6 6 -1 11 2 17 5 13 3 -3 4 -12 1 -19z m-3497 2 c0 -5
-8 -10 -17 -10 -15 0 -16 2 -3 10 19 12 20 12 20 0z m25 0 c3 -5 1 -10 -4 -10
-6 0 -11 5 -11 10 0 6 2 10 4 10 3 0 8 -4 11 -10z m30 0 c3 -5 1 -10 -4 -10
-6 0 -11 5 -11 10 0 6 2 10 4 10 3 0 8 -4 11 -10z m3225 -10 c0 -5 -7 -7 -15
-4 -8 4 -15 8 -15 10 0 2 7 4 15 4 8 0 15 -4 15 -10z m-1635 -30 c-3 -5 -12
-10 -18 -10 -7 0 -6 4 3 10 19 12 23 12 15 0z m55 0 c0 -5 -4 -10 -10 -10 -5
0 -10 5 -10 10 0 6 5 10 10 10 6 0 10 -4 10 -10z m35 0 c-3 -5 -10 -10 -16
-10 -5 0 -9 5 -9 10 0 6 7 10 16 10 8 0 12 -4 9 -10z m-430 -30 c-27 -12 -35
-12 -35 0 0 6 12 10 28 9 24 0 25 -1 7 -9z m-1544 -63 c-10 -9 -11 -8 -5 6 3
10 9 15 12 12 3 -3 0 -11 -7 -18z m5274 -676 c-3 -5 5 -12 17 -14 13 -2 -4 -4
-37 -4 -33 0 -45 2 -27 4 18 2 30 9 27 14 -4 5 1 9 10 9 9 0 14 -4 10 -9z
m-185 -21 c0 -5 -8 -10 -17 -10 -15 0 -16 2 -3 10 19 12 20 12 20 0z m-494
-107 c-7 -7 -26 7 -26 19 0 6 6 6 15 -2 9 -7 13 -15 11 -17z m681 11 c-3 -3
-12 -4 -19 -1 -8 3 -5 6 6 6 11 1 17 -2 13 -5z m-992 -24 c-3 -5 -10 -10 -16
-10 -5 0 -9 5 -9 10 0 6 7 10 16 10 8 0 12 -4 9 -10z m-1270 -130 c7 -12 -2
-12 -30 0 -19 8 -19 9 2 9 12 1 25 -3 28 -9z m-340 -40 c3 -6 -1 -7 -9 -4 -18
7 -21 14 -7 14 6 0 13 -4 16 -10z m2015 -6 c0 -2 -7 -4 -15 -4 -8 0 -15 4 -15
10 0 5 7 7 15 4 8 -4 15 -8 15 -10z m1190 -1 c-14 -3 -28 -10 -31 -15 -4 -6
-12 -7 -18 -4 -20 13 -1 26 37 25 28 -1 31 -3 12 -6z m-2253 -9 c-3 -3 -12 -4
-19 -1 -8 3 -5 6 6 6 11 1 17 -2 13 -5z m2683 -8 c0 -3 -4 -8 -10 -11 -5 -3
-10 -1 -10 4 0 6 5 11 10 11 6 0 10 -2 10 -4z m-1917 -13 c-7 -2 -19 -2 -25 0
-7 3 -2 5 12 5 14 0 19 -2 13 -5z m-1636 -9 c-3 -3 -12 -4 -19 -1 -8 3 -5 6 6
6 11 1 17 -2 13 -5z m2250 0 c-3 -3 -12 -4 -19 -1 -8 3 -5 6 6 6 11 1 17 -2
13 -5z m-3272 -33 c17 -10 15 -11 -15 -5 -19 3 -38 9 -42 13 -13 12 36 5 57
-8z m386 2 c13 -16 12 -17 -3 -4 -17 13 -22 21 -14 21 2 0 10 -8 17 -17z
m1792 -10 c-7 -2 -19 -2 -25 0 -7 3 -2 5 12 5 14 0 19 -2 13 -5z m120 0 c-13
-2 -33 -2 -45 0 -13 2 -3 4 22 4 25 0 35 -2 23 -4z m700 0 c-7 -2 -21 -2 -30
0 -10 3 -4 5 12 5 17 0 24 -2 18 -5z m-1673 -23 c8 -5 11 -10 5 -10 -5 0 -17
5 -25 10 -8 5 -10 10 -5 10 6 0 17 -5 25 -10z m587 4 c-3 -3 -12 -4 -19 -1 -8
3 -5 6 6 6 11 1 17 -2 13 -5z m-1674 -11 c-7 -2 -19 -2 -25 0 -7 3 -2 5 12 5
14 0 19 -2 13 -5z m4102 -3 c3 -5 2 -10 -4 -10 -5 0 -13 5 -16 10 -3 6 -2 10
4 10 5 0 13 -4 16 -10z m-4585 -20 c13 -8 13 -10 -2 -10 -9 0 -20 5 -23 10 -8
13 5 13 25 0z m2707 4 c-3 -3 -12 -4 -19 -1 -8 3 -5 6 6 6 11 1 17 -2 13 -5z
m263 -4 c0 -5 -2 -10 -4 -10 -3 0 -8 5 -11 10 -3 6 -1 10 4 10 6 0 11 -4 11
-10z m-1995 -20 c3 -5 2 -10 -4 -10 -5 0 -13 5 -16 10 -3 6 -2 10 4 10 5 0 13
-4 16 -10z m882 -6 c-3 -3 -12 -4 -19 -1 -8 3 -5 6 6 6 11 1 17 -2 13 -5z
m2250 0 c-3 -3 -12 -4 -19 -1 -8 3 -5 6 6 6 11 1 17 -2 13 -5z m-2207 -8 c0
-3 -4 -8 -10 -11 -5 -3 -10 -1 -10 4 0 6 5 11 10 11 6 0 10 -2 10 -4z m2263
-3 c-7 -2 -21 -2 -30 0 -10 3 -4 5 12 5 17 0 24 -2 18 -5z m-2888 -13 c-3 -5
-10 -10 -16 -10 -5 0 -9 5 -9 10 0 6 7 10 16 10 8 0 12 -4 9 -10z m-988 -16
c-3 -3 -12 -4 -19 -1 -8 3 -5 6 6 6 11 1 17 -2 13 -5z m-670 -10 c-3 -3 -12
-4 -19 -1 -8 3 -5 6 6 6 11 1 17 -2 13 -5z m63 -4 c0 -5 -4 -10 -10 -10 -5 0
-10 5 -10 10 0 6 5 10 10 10 6 0 10 -4 10 -10z m3560 0 c0 -5 -2 -10 -4 -10
-3 0 -8 5 -11 10 -3 6 -1 10 4 10 6 0 11 -4 11 -10z m-737 -7 c-7 -2 -21 -2
-30 0 -10 3 -4 5 12 5 17 0 24 -2 18 -5z m-2506 -9 c-3 -3 -12 -4 -19 -1 -8 3
-5 6 6 6 11 1 17 -2 13 -5z m958 -24 c-3 -5 -12 -7 -20 -3 -21 7 -19 13 6 13
11 0 18 -4 14 -10z m1320 -10 c3 -6 -1 -7 -9 -4 -18 7 -21 14 -7 14 6 0 13 -4
16 -10z m-1000 -10 c3 -5 -1 -10 -10 -10 -9 0 -13 5 -10 10 3 6 8 10 10 10 2
0 7 -4 10 -10z m-48 -26 c-3 -3 -12 -4 -19 -1 -8 3 -5 6 6 6 11 1 17 -2 13 -5z
m2453 -10 c0 -11 -6 -14 -22 -9 -39 12 -44 25 -10 25 22 0 32 -5 32 -16z
m-2010 -10 c0 -2 -7 -4 -15 -4 -8 0 -15 4 -15 10 0 5 7 7 15 4 8 -4 15 -8 15
-10z m653 9 c-7 -2 -19 -2 -25 0 -7 3 -2 5 12 5 14 0 19 -2 13 -5z m-2275 -20
c-10 -2 -26 -2 -35 0 -10 3 -2 5 17 5 19 0 27 -2 18 -5z m345 0 c-7 -2 -19 -2
-25 0 -7 3 -2 5 12 5 14 0 19 -2 13 -5z m632 -3 c3 -5 -1 -10 -9 -10 -9 0 -16
5 -16 10 0 6 4 10 9 10 6 0 13 -4 16 -10z m-309 -9 c-3 -5 -15 -7 -26 -4 -28
7 -25 13 6 13 14 0 23 -4 20 -9z m544 -1 c0 -5 -2 -10 -4 -10 -3 0 -8 5 -11
10 -3 6 -1 10 4 10 6 0 11 -4 11 -10z m-675 -20 c3 -5 1 -10 -4 -10 -6 0 -11
5 -11 10 0 6 2 10 4 10 3 0 8 -4 11 -10z m-272 -7 c-7 -2 -21 -2 -30 0 -10 3
-4 5 12 5 17 0 24 -2 18 -5z m557 -3 c0 -5 -4 -10 -10 -10 -5 0 -10 5 -10 10
0 6 5 10 10 10 6 0 10 -4 10 -10z m-910 -10 c0 -13 -11 -13 -30 0 -12 8 -11
10 8 10 12 0 22 -4 22 -10z m1350 1 c0 -5 -9 -7 -20 -4 -11 3 -20 7 -20 9 0 2
9 4 20 4 11 0 20 -4 20 -9z m-1300 -17 c0 -2 -9 -4 -20 -4 -11 0 -20 4 -20 9
0 5 9 7 20 4 11 -3 20 -7 20 -9z m1141 -11 c44 -14 77 -28 75 -30 -4 -4 -166
47 -166 53 0 7 12 4 91 -23z m1306 -19 c-3 -3 -12 -4 -19 -1 -8 3 -5 6 6 6 11
1 17 -2 13 -5z m-1810 -10 c-3 -3 -12 -4 -19 -1 -8 3 -5 6 6 6 11 1 17 -2 13
-5z m1726 -1 c-7 -2 -21 -2 -30 0 -10 3 -4 5 12 5 17 0 24 -2 18 -5z m-2025
-48 c-1 -2 -16 -1 -31 2 -20 4 -25 8 -16 14 12 7 56 -8 47 -16z m77 -15 c3 -5
-1 -10 -9 -10 -8 0 -18 5 -21 10 -3 6 1 10 9 10 8 0 18 -4 21 -10z m5 -36 c0
-2 -9 -4 -21 -4 -11 0 -18 4 -14 10 5 8 35 3 35 -6z m-335 -25 c-4 -5 -13 -9
-21 -9 -8 0 -12 5 -9 10 3 6 1 10 -5 10 -6 0 -8 5 -5 10 4 7 13 7 26 0 11 -6
17 -15 14 -21z m-345 -89 c13 -9 13 -10 0 -10 -8 0 -22 5 -30 10 -13 9 -13 10
0 10 8 0 22 -5 30 -10z m3790 -230 c0 -5 -10 -10 -22 -9 -22 0 -22 1 -3 9 11
5 21 9 23 9 1 1 2 -3 2 -9z"/>
<path d="M1530 9846 c-6 -8 -10 -25 -8 -38 3 -20 9 -23 43 -23 33 0 41 4 43
22 2 13 -5 27 -20 37 -28 20 -42 20 -58 2z"/>
<path d="M8219 7843 c17 -3 20 -7 11 -13 -8 -5 -2 -10 20 -15 19 -4 36 -3 43
4 8 8 6 11 -6 11 -9 0 -17 5 -17 10 0 6 -17 9 -37 9 -27 -1 -31 -3 -14 -6z"/>
<path d="M8352 7452 c-9 -7 -10 -15 -3 -35 7 -17 7 -36 1 -52 -5 -13 -7 -46
-4 -72 4 -26 7 -73 8 -103 1 -37 9 -67 25 -92 13 -21 24 -38 26 -38 15 0 35
15 35 26 0 8 -6 11 -15 8 -12 -5 -14 5 -10 62 2 37 8 70 12 73 4 3 8 11 8 16
1 6 7 30 14 54 12 43 24 45 34 6 3 -11 5 1 6 26 1 40 -2 48 -21 53 -18 5 -20
8 -9 15 8 5 9 11 3 15 -6 3 -8 15 -5 26 5 18 0 20 -43 20 -27 0 -55 -4 -62 -8z"/>
<path d="M8120 7436 c0 -7 9 -25 20 -39 11 -14 20 -38 20 -54 0 -16 9 -54 20
-86 11 -31 20 -66 20 -77 0 -17 13 -54 25 -68 7 -8 34 12 28 21 -9 15 -10 186
0 190 4 1 2 17 -5 35 -9 24 -10 39 -1 62 l11 30 -69 0 c-52 0 -69 -3 -69 -14z"/>
<path d="M8471 7131 c-7 -5 -12 -14 -10 -20 3 -6 9 -7 18 -2 7 5 12 14 10 20
-3 6 -9 7 -18 2z"/>
<path d="M8205 6970 c3 -5 1 -10 -4 -10 -6 0 -11 -7 -11 -15 0 -9 6 -12 15 -9
8 4 15 2 15 -4 0 -5 6 -12 14 -15 9 -4 13 4 14 25 0 22 -3 28 -14 24 -8 -3
-14 -1 -14 4 0 6 -5 10 -11 10 -5 0 -7 -4 -4 -10z"/>
<path d="M8336 6851 c-20 -8 -32 -41 -15 -41 6 0 8 -4 5 -9 -3 -5 1 -14 9 -21
11 -9 14 -23 9 -44 -4 -23 0 -39 14 -56 l20 -25 7 57 c4 32 4 69 1 84 -4 14
-3 23 2 20 5 -3 8 5 7 17 -2 24 -26 31 -59 18z"/>
<path d="M8410 6835 c0 -8 2 -15 4 -15 2 0 6 7 10 15 3 8 1 15 -4 15 -6 0 -10
-7 -10 -15z"/>
<path d="M8155 6771 c-7 -12 122 -190 138 -192 7 -1 15 -1 20 0 4 0 7 -3 7 -9
0 -6 7 -10 15 -10 15 0 13 14 -7 57 -6 12 -8 38 -5 57 6 41 -9 58 -68 79 -65
23 -93 28 -100 18z"/>
<path d="M8077 6653 c-6 -46 20 -238 37 -273 6 -14 21 -26 32 -28 16 -2 23 5
33 38 6 22 9 44 6 49 -3 5 0 22 7 38 6 15 10 35 9 43 -4 19 -83 141 -103 158
-14 11 -16 8 -21 -25z"/>
<path d="M8596 6524 c-18 -26 -18 -27 2 -68 11 -22 23 -57 26 -77 4 -21 13
-42 21 -49 8 -7 15 -10 15 -8 0 3 -7 49 -15 104 -8 54 -15 105 -15 112 0 19
-13 14 -34 -14z"/>
<path d="M8170 6321 c-8 -6 -17 -8 -21 -5 -4 2 -10 0 -14 -6 -4 -6 6 -10 24
-10 21 0 31 5 31 15 0 17 0 18 -20 6z"/>
<path d="M1400 7875 c0 -8 5 -15 10 -15 6 0 10 7 10 15 0 8 -4 15 -10 15 -5 0
-10 -7 -10 -15z"/>
<path d="M1802 7874 c1 -9 9 -19 16 -22 9 -3 13 2 10 14 -1 9 -9 19 -16 22 -9
3 -13 -2 -10 -14z"/>
<path d="M1988 7803 c7 -3 16 -2 19 1 4 3 -2 6 -13 5 -11 0 -14 -3 -6 -6z"/>
<path d="M1510 6220 c0 -5 5 -10 11 -10 5 0 7 5 4 10 -3 6 -8 10 -11 10 -2 0
-4 -4 -4 -10z"/>
<path d="M1140 9077 c-43 -46 -28 -52 143 -63 l107 -6 0 31 c0 40 -16 46 -138
54 -85 5 -94 4 -112 -16z"/>
<path d="M405 6347 c-46 -64 -183 -225 -255 -299 -54 -55 -73 -68 -108 -74
l-42 -7 0 -88 0 -88 63 -4 62 -3 -62 -2 -63 -2 0 -55 0 -55 43 0 c23 0 49 -5
57 -11 11 -8 -1 -9 -43 -5 l-58 6 2 -100 2 -101 37 36 37 36 119 -4 119 -3
-117 -2 -117 -2 -40 -42 c-62 -66 -57 -77 41 -81 l83 -3 -82 -2 c-81 -2 -83
-3 -83 -27 l0 -25 173 0 c180 1 223 6 303 40 37 16 45 23 34 30 -10 7 -11 10
-2 10 6 0 12 9 12 19 0 11 -6 22 -12 24 -10 4 -10 6 0 6 7 1 12 14 12 31 l0
30 -87 2 -88 2 83 3 83 4 -5 75 c-8 102 -17 154 -26 154 -5 0 -6 17 -3 38 4
31 -32 546 -40 574 -1 4 -15 -12 -32 -35z m-17 -574 c-26 -2 -71 -2 -100 0
-29 2 -8 3 47 3 55 0 79 -1 53 -3z m-95 -54 c16 0 18 -2 7 -7 -8 -4 -15 -13
-16 -19 -1 -7 -2 -22 -2 -33 -2 -17 -7 -19 -29 -14 -36 9 -55 24 -49 40 3 7 0
15 -7 18 -7 2 -2 5 10 5 12 1 25 6 28 12 4 6 14 8 22 5 8 -3 24 -6 36 -7z
m-83 -139 c-14 -4 -52 -8 -85 -7 l-60 0 60 7 c33 4 71 7 85 7 l25 1 -25 -8z
m107 4 c-3 -3 -12 -4 -19 -1 -8 3 -5 6 6 6 11 1 17 -2 13 -5z"/>
<path d="M445 5356 c-50 -20 -87 -24 -225 -30 -91 -3 -177 -6 -192 -6 -24 0
-28 -4 -28 -30 l0 -30 130 0 c89 0 130 4 130 11 0 8 4 8 13 1 7 -6 62 -13 123
-15 83 -2 63 -4 -86 -7 -107 -2 -219 -4 -249 -5 -58 0 -70 -10 -51 -44 10 -20
20 -21 170 -21 l160 0 0 32 c0 36 6 35 12 -2 4 -34 19 -38 117 -39 l83 -1 -7
91 c-10 135 -5 131 -100 95z"/>
<path d="M0 5126 l0 -39 38 7 c20 3 146 6 280 6 l242 0 0 30 0 29 -280 3 -280
3 0 -39z"/>
<path d="M178 5083 l-178 -3 0 -80 0 -80 93 0 c52 0 181 3 288 7 l195 6 -4 36
c-1 20 -5 55 -8 79 l-5 42 -102 -2 c-56 -1 -182 -4 -279 -5z"/>
<path d="M220 4650 c-63 -4 -139 -8 -167 -9 l-53 -1 0 -162 0 -163 26 75 c31
88 39 100 63 93 17 -4 17 -8 -7 -63 -14 -32 -29 -57 -33 -55 -17 11 -48 -133
-48 -220 l0 -90 27 60 c15 33 40 81 55 105 16 25 52 86 81 135 29 50 60 90 67
90 8 0 27 20 43 44 30 48 37 46 50 -14 6 -29 5 -31 -38 -43 -40 -10 -49 -18
-71 -63 -15 -28 -53 -92 -86 -143 -32 -51 -59 -102 -60 -112 -1 -14 -3 -13 -8
6 -6 22 -9 20 -31 -30 -21 -47 -25 -73 -28 -182 -4 -147 -17 -135 117 -117 45
6 84 9 87 6 3 -3 -42 -11 -100 -17 l-106 -13 0 -688 0 -689 113 0 c61 0 139 5
172 10 33 6 166 15 295 20 129 6 276 15 325 20 50 5 131 10 182 10 86 0 101
-3 279 -65 103 -35 183 -60 178 -55 -9 9 -58 35 -267 145 -71 37 -127 69 -125
71 5 4 89 -27 135 -51 18 -9 37 -14 42 -11 5 3 33 -10 62 -29 30 -19 57 -35
61 -35 11 0 20 43 16 71 -3 26 -68 68 -111 71 -14 1 -25 7 -24 12 2 10 -25 25
-112 65 -49 22 -67 23 -26 1 27 -14 34 -54 12 -63 -24 -9 -47 19 -47 56 0 35
-3 38 -70 72 -51 26 -68 31 -63 19 4 -12 2 -15 -8 -12 -9 3 -18 -8 -26 -35
-11 -38 -10 -40 19 -66 17 -14 54 -41 82 -58 36 -23 45 -33 31 -33 -11 -1 -49
-4 -85 -7 -36 -3 -96 0 -135 6 -38 6 -163 18 -278 26 -114 8 -226 18 -249 21
-28 5 -39 4 -34 -4 8 -13 -25 -25 -47 -16 -9 3 -20 22 -23 42 -8 40 12 351 26
417 4 22 15 72 24 110 8 39 19 138 25 220 5 83 12 161 15 175 7 27 13 97 20
248 4 72 2 92 -9 92 -7 0 -15 -6 -18 -14 -3 -8 -29 -19 -57 -25 -74 -16 -95
-12 -30 5 98 26 90 36 -42 52 -62 8 -68 7 -74 -10 -3 -11 -8 -17 -10 -15 -3 3
2 21 10 40 16 40 9 40 136 10 87 -20 364 -23 383 -4 8 8 2 94 -21 314 -18 166
-35 337 -39 380 l-6 77 -136 -2 c-75 -1 -188 -5 -251 -8z m133 -230 c-10 -11
-19 -20 -21 -20 -1 0 2 9 8 20 6 11 15 20 20 20 6 0 2 -9 -7 -20z m-18 -930
c-3 -5 -12 -10 -18 -10 -7 0 -6 4 3 10 19 12 23 12 15 0z"/>
<path d="M10232 4505 c0 -16 2 -22 5 -12 2 9 2 23 0 30 -3 6 -5 -1 -5 -18z"/>
<path d="M691 4000 c0 -30 4 -62 9 -70 12 -19 12 14 1 80 l-8 45 -2 -55z"/>
<path d="M9300 3586 c-158 -21 -374 -69 -384 -85 -2 -3 42 -7 98 -8 166 -3
336 -54 496 -148 41 -24 138 -91 215 -149 222 -167 303 -207 450 -222 l65 -7
0 179 -1 179 -102 65 c-278 175 -534 235 -837 196z"/>
<path d="M8823 3404 c-52 -19 -132 -88 -148 -129 -13 -31 -10 -81 6 -91 5 -3
9 -14 9 -24 0 -10 6 -22 12 -27 7 -4 101 -13 208 -19 257 -17 703 -91 854
-144 33 -11 60 -19 62 -17 4 3 -222 170 -325 240 -100 68 -272 154 -386 193
-99 34 -228 42 -292 18z"/>
<path d="M7991 3011 c-9 -6 -4 -10 16 -14 34 -6 41 -2 16 11 -11 6 -25 7 -32
3z"/>
<path d="M4598 2983 c7 -3 16 -2 19 1 4 3 -2 6 -13 5 -11 0 -14 -3 -6 -6z"/>
<path d="M8088 2973 c7 -3 16 -2 19 1 4 3 -2 6 -13 5 -11 0 -14 -3 -6 -6z"/>
<path d="M10169 2951 c11 -7 11 -9 0 -14 -8 -3 0 -3 16 -2 17 2 36 4 43 4 6 1
12 6 12 11 0 6 -19 10 -42 10 -28 0 -38 -3 -29 -9z"/>
<path d="M8208 2933 c7 -3 16 -2 19 1 4 3 -2 6 -13 5 -11 0 -14 -3 -6 -6z"/>
<path d="M9955 2909 c42 -15 95 -23 173 -26 109 -5 112 -5 112 16 0 20 -4 21
-147 21 -82 0 -159 2 -173 5 -14 3 2 -5 35 -16z"/>
<path d="M3808 2913 c7 -3 16 -2 19 1 4 3 -2 6 -13 5 -11 0 -14 -3 -6 -6z"/>
<path d="M8495 2860 c3 -5 11 -10 16 -10 6 0 7 5 4 10 -3 6 -11 10 -16 10 -6
0 -7 -4 -4 -10z"/>
<path d="M9140 2835 c-14 -8 -21 -14 -17 -15 4 0 -4 -17 -18 -37 -14 -21 -25
-43 -25 -49 0 -6 -10 -24 -21 -39 -18 -22 -20 -29 -8 -36 8 -5 9 -9 3 -9 -15
0 -25 -62 -28 -163 -1 -61 2 -81 14 -87 12 -7 10 -10 -10 -10 -23 -1 -23 -2
-5 -10 15 -6 16 -9 4 -9 -9 -1 -16 -8 -16 -16 0 -21 53 -19 258 10 522 73 619
86 777 105 95 11 177 20 183 20 5 0 9 24 9 54 l0 53 -62 17 c-149 39 -325 78
-351 78 -40 -1 -68 -12 -61 -24 5 -8 1 -9 -10 -5 -10 4 -25 -1 -38 -13 -20
-19 -51 -31 -111 -44 -15 -4 -26 -10 -23 -15 3 -4 -16 -3 -42 3 -46 10 -102
55 -102 82 0 17 -83 100 -107 108 -12 4 -24 13 -27 21 -3 8 -15 15 -26 15 -11
0 -20 4 -20 9 0 6 -9 8 -20 6 -11 -2 -22 0 -25 6 -9 13 -46 10 -75 -6z"/>
<path d="M2803 2813 c9 -2 25 -2 35 0 9 3 1 5 -18 5 -19 0 -27 -2 -17 -5z"/>
<path d="M2708 2803 c12 -2 30 -2 40 0 9 3 -1 5 -23 4 -22 0 -30 -2 -17 -4z"/>
<path d="M1526 2438 c10 -65 48 -82 57 -25 5 35 -5 51 -41 62 -22 6 -22 5 -16
-37z"/>
<path d="M1612 2383 c3 -20 142 -98 158 -88 25 15 6 38 -52 65 -93 42 -111 46
-106 23z"/>
<path d="M1190 2094 c-8 -1 -91 -13 -185 -25 -93 -12 -174 -26 -179 -30 -4 -4
-18 -76 -31 -161 -13 -84 -31 -195 -41 -247 l-17 -94 24 -18 c38 -27 58 -47
168 -166 57 -62 110 -113 117 -113 14 0 21 20 59 165 59 221 165 603 179 644
9 24 16 45 16 47 0 5 -88 3 -110 -2z"/>
<path d="M602 2015 c-63 -7 -115 -15 -117 -17 -2 -2 -21 -125 -52 -340 -3 -21
-9 -38 -14 -38 -4 0 -7 -11 -6 -24 1 -14 -2 -25 -8 -26 -18 -2 -21 44 -9 145
7 55 15 142 19 193 l8 92 -29 0 c-16 0 -108 -11 -204 -25 -96 -14 -178 -25
-182 -25 -5 0 -8 -283 -8 -630 0 -346 1 -630 3 -630 13 0 410 92 430 99 25 10
45 49 67 131 6 25 22 68 35 95 13 28 30 77 38 110 42 165 65 233 85 257 21 25
62 186 72 281 5 51 17 148 25 217 8 69 15 131 15 138 0 14 -17 14 -168 -3z"/>
<path d="M1730 1919 c0 -9 524 -530 718 -714 71 -68 94 -107 75 -126 -18 -18
-252 -71 -818 -184 -93 -19 -224 -46 -290 -60 -66 -14 -241 -50 -390 -80 -148
-31 -319 -67 -380 -80 -60 -13 -230 -47 -377 -76 l-268 -53 0 -168 0 -168 22
5 c13 3 131 27 263 55 132 28 299 64 370 80 196 44 373 83 660 145 413 89 505
109 945 200 489 102 655 140 730 166 30 11 98 29 150 40 121 25 157 37 164 54
9 25 -90 98 -164 120 -47 14 -60 34 -60 92 0 92 -23 108 -535 365 -137 70
-296 151 -353 181 -118 63 -367 183 -424 203 -23 8 -38 9 -38 3z"/>
<path d="M9975 1589 c-137 -27 -385 -74 -550 -104 -317 -59 -739 -139 -815
-155 -25 -5 -292 -57 -595 -115 -542 -104 -1372 -270 -2125 -424 -566 -116
-691 -143 -1055 -221 -181 -39 -424 -91 -540 -116 -115 -25 -383 -83 -595
-130 -477 -106 -848 -188 -1135 -249 -121 -26 -245 -53 -275 -60 -45 -10 669
-13 3948 -14 l4002 -1 0 820 c0 451 -3 820 -7 819 -5 0 -120 -23 -258 -50z
m-3901 -1317 c7 -4 -98 -40 -123 -42 -3 0 8 14 24 30 24 26 34 30 60 24 16 -3
34 -9 39 -12z m213 -18 c-3 -3 -12 -4 -19 -1 -8 3 -5 6 6 6 11 1 17 -2 13 -5z
m57 -13 c3 -4 -6 -6 -19 -3 -14 2 -25 6 -25 8 0 8 39 4 44 -5z"/>
<path d="M1743 1403 c-27 -5 -30 -18 -7 -27 25 -10 94 5 94 20 0 14 -37 17
-87 7z"/>
</g>
</svg>
