<?xml version="1.0" encoding="UTF-8" standalone="no"?>
<svg
   xmlns:dc="http://purl.org/dc/elements/1.1/"
   xmlns:cc="http://creativecommons.org/ns#"
   xmlns:rdf="http://www.w3.org/1999/02/22-rdf-syntax-ns#"
   xmlns:svg="http://www.w3.org/2000/svg"
   xmlns="http://www.w3.org/2000/svg"
   viewBox="0 0 793.27997 1122.5601"
   height="1122.5601"
   width="793.27997"
   xml:space="preserve"
   id="svg2"
   version="1.1"><metadata
     id="metadata8"><rdf:RDF><cc:Work
         rdf:about=""><dc:format>image/svg+xml</dc:format><dc:type
           rdf:resource="http://purl.org/dc/dcmitype/StillImage" /></cc:Work></rdf:RDF></metadata><defs
     id="defs6"><clipPath
       id="clipPath18"
       clipPathUnits="userSpaceOnUse"><path
         style="clip-rule:evenodd"
         id="path16"
         d="M 0,0 H 2479.9316 V 3508.0078 H 0 Z" /></clipPath><clipPath
       id="clipPath226"
       clipPathUnits="userSpaceOnUse"><path
         id="path224"
         d="M 0,0 H 2479.9316 V 3508.0078 H 0 Z" /></clipPath><clipPath
       id="clipPath232"
       clipPathUnits="userSpaceOnUse"><path
         style="clip-rule:evenodd"
         id="path230"
         d="M 2479.9316,0 H 0 V 3508.0078 H 2479.9316 Z M 487.98434,1773.75 h -12.53121 v 6.5 h 12.53121 z" /></clipPath><clipPath
       id="clipPath238"
       clipPathUnits="userSpaceOnUse"><path
         style="clip-rule:evenodd"
         id="path236"
         d="M 2479.9316,0 H 0 V 3508.0078 H 2479.9316 Z M 512.08594,1773.75 h -12.53125 v 6.5 h 12.53125 z" /></clipPath><clipPath
       id="clipPath250"
       clipPathUnits="userSpaceOnUse"><path
         style="clip-rule:evenodd"
         id="path248"
         d="M 0,0 H 2479.9316 V 3508.0078 H 0 Z" /></clipPath></defs><g
     transform="matrix(0.31999998,0,0,0.31999998,0,5.4730666e-5)"
     id="g10"><g
       id="g12"><g
         clip-path="url(#clipPath18)"
         id="g14"><g
           transform="scale(2.5)"
           id="g20"><path
             id="path22"
             style="fill:#ffffff;fill-opacity:1;fill-rule:nonzero;stroke:none"
             d="M 0,0 H 992 V 1403 H 0 Z" /><path
             id="path24"
             style="fill:#ffffff;fill-opacity:1;fill-rule:nonzero;stroke:none"
             d="M 24,1342 V 60 c -2e-6,-0.787933 0.07685,-1.568298 0.230574,-2.341091 0.153717,-0.772793 0.38134,-1.523163 0.682869,-2.251118 0.301527,-0.727955 0.671167,-1.419498 1.108919,-2.074638 0.43775,-0.65514 0.935201,-1.261288 1.492355,-1.81844 0.557152,-0.557155 1.163296,-1.054607 1.818434,-1.492355 0.655142,-0.437752 1.346689,-0.807392 2.074644,-1.108917 0.727955,-0.301525 1.478325,-0.529148 2.251118,-0.682865 C 34.431705,48.076859 35.212067,48 36,48 h 920 c 0.7879,0 1.56824,0.07686 2.341,0.230576 0.77283,0.153717 1.5232,0.38134 2.25116,0.682865 0.72791,0.301525 1.41944,0.671165 2.07459,1.108917 0.65515,0.437748 1.26129,0.9352 1.81848,1.492355 0.55713,0.557152 1.05456,1.1633 1.49225,1.81844 0.4378,0.65514 0.80743,1.346683 1.10895,2.074638 0.30157,0.727955 0.52917,1.478325 0.68292,2.251118 C 967.9231,58.431702 968,59.212067 968,60 v 1282 c 0,0.7878 -0.0769,1.5681 -0.23065,2.3409 -0.15375,0.7729 -0.38135,1.5232 -0.68286,2.2511 -0.30152,0.728 -0.67121,1.4196 -1.10901,2.0748 -0.43769,0.6551 -0.93512,1.2612 -1.49225,1.8184 -0.55719,0.557 -1.16333,1.0545 -1.81848,1.4922 -0.65515,0.4379 -1.34668,0.8075 -2.07459,1.109 -0.72796,0.3015 -1.47833,0.5292 -2.25116,0.6829 -0.77276,0.1537 -1.5531,0.2306 -2.341,0.2307 H 36 c -0.787933,-10e-5 -1.568295,-0.077 -2.341087,-0.2307 -0.772793,-0.1537 -1.523163,-0.3814 -2.25112,-0.6829 -0.727953,-0.3015 -1.4195,-0.6711 -2.07464,-1.109 -0.655138,-0.4377 -1.261284,-0.9352 -1.818436,-1.4922 -0.557154,-0.5572 -1.054605,-1.1633 -1.492355,-1.8183 -0.437752,-0.6553 -0.807392,-1.3469 -1.108919,-2.0749 -0.301529,-0.7279 -0.529152,-1.4782 -0.682869,-2.2511 C 24.076855,1343.5681 23.999998,1342.7878 24,1342 Z" /><path
             id="path26"
             style="fill:#27272a;fill-opacity:1;fill-rule:nonzero;stroke:none"
             d="m 56,188 h 880 v 1 H 56 Z" /><path
             id="path28"
             style="fill:#27272a;fill-opacity:1;fill-rule:nonzero;stroke:none"
             d="m 56,345 h 880 v 1 H 56 Z" /><path
             id="path30"
             style="fill:#27272a;fill-opacity:1;fill-rule:nonzero;stroke:none"
             d="m 56,574 h 880 v 1 H 56 Z" /><path
             id="path32"
             style="fill:#27272a;fill-opacity:1;fill-rule:nonzero;stroke:none"
             d="m 56,911 h 880 v 1 H 56 Z" /><path
             id="path34"
             style="fill:#27272a;fill-opacity:1;fill-rule:nonzero;stroke:none"
             d="m 56,1048 h 880 v 1 H 56 Z" /><path
             id="path36"
             style="fill:#27272a;fill-opacity:1;fill-rule:nonzero;stroke:none"
             d="m 56,1157 h 880 v 1 H 56 Z" /><text
             id="text40"
             style="font-variant:normal;font-weight:bold;font-size:30px;font-family:SegoeUI;-inkscape-font-specification:SegoeUI-Bold;writing-mode:lr-tb;fill:#000000;fill-opacity:1;fill-rule:nonzero;stroke:none"
             transform="translate(393.71875,110)"><tspan
               id="tspan38"
               y="0"
               x="0 21.09375 48.574219 57.099609 68.657227 84.887695 98.085938 116.14746 124.42383 141.24023 149.76562 167.91504 186.48926">Amitesh Singh</tspan></text>
<text
             id="text44"
             style="font-variant:normal;font-weight:normal;font-size:20px;font-family:SegoeUI;-inkscape-font-specification:SegoeUI;writing-mode:lr-tb;fill:#4b5563;fill-opacity:1;fill-rule:nonzero;stroke:none"
             transform="translate(406.9375,146)"><tspan
               id="tspan42"
               y="0"
               x="0 9.765625 21.083984 25.927734 30.771484 36.25 46.230469 53.007812 63.183594 72.421875 82.363281 87.841797 101.86523 112.32422 121.9043 132.36328 137.20703 148.92578 160.68359 171.14258">Full Stack Developer</tspan></text>
<text
             id="text48"
             style="font-variant:normal;font-weight:normal;font-size:14px;font-family:SegoeUI;-inkscape-font-specification:SegoeUI;writing-mode:lr-tb;fill:#374151;fill-opacity:1;fill-rule:nonzero;stroke:none"
             transform="translate(295.34375,175)"><tspan
               id="tspan46"
               y="0"
               x="0 7.1230469 19.181641 22.572266 27.316406 34.637695 40.578125 48.500977 54.441406 57.832031 65.754883 73.999023 81.921875 89.46875 97.015625 104.5625 117.93359 126.17773 138.23633 145.35938 148.75 152.14062 155.17578 161.64258 169.8457">amiteshsingh252@gmail.com</tspan></text>
<text
             id="text52"
             style="font-variant:normal;font-weight:normal;font-size:14px;font-family:SegoeUI;-inkscape-font-specification:SegoeUI;writing-mode:lr-tb;fill:#374151;fill-opacity:1;fill-rule:nonzero;stroke:none"
             transform="translate(493.25,175)"><tspan
               id="tspan50"
               y="0"
               x="0 7.546875 15.09375 22.640625 30.1875 37.734375 45.28125 52.828125 60.375 67.921875">1111111111</tspan></text>
<text
             id="text56"
             style="font-variant:normal;font-weight:normal;font-size:14px;font-family:SegoeUI;-inkscape-font-specification:SegoeUI;writing-mode:lr-tb;fill:#2563eb;fill-opacity:1;fill-rule:nonzero;stroke:none"
             transform="translate(584.71875,175)"><tspan
               id="tspan54"
               y="0"
               x="0 6.5898438 9.9804688 17.90332 24.862305 32.183594 40.427734 44.15332">LinkedIn</tspan></text>
<text
             id="text60"
             style="font-variant:normal;font-weight:normal;font-size:14px;font-family:SegoeUI;-inkscape-font-specification:SegoeUI;writing-mode:lr-tb;fill:#2563eb;fill-opacity:1;fill-rule:nonzero;stroke:none"
             transform="translate(652.79688,175)"><tspan
               id="tspan58"
               y="0"
               x="0 9.6044922 12.995117 17.739258 27.678711 35.601562">GitHub</tspan></text>
<text
             id="text64"
             style="font-variant:normal;font-weight:600;font-size:20px;font-family:SegoeUI;-inkscape-font-specification:SegoeUI-Semibold;writing-mode:lr-tb;fill:#000000;fill-opacity:1;fill-rule:nonzero;stroke:none"
             transform="translate(56,235)"><tspan
               id="tspan62"
               y="0"
               x="0 10.888672 21.386719 26.611328 31.835938 37.060547">Skills</tspan></text>
<path
             id="path66"
             style="fill:#000000;fill-opacity:1;fill-rule:nonzero;stroke:none"
             d="m 64,262 c -4e-6,0.3978 -0.07613,0.78049 -0.228367,1.14801 -0.152244,0.36752 -0.369015,0.69196 -0.650314,0.9733 -0.281307,0.28128 -0.605732,0.49804 -0.973274,0.6503 C 61.780502,264.92386 61.39782,264.99997 61,265 c -0.397827,-3e-5 -0.780514,-0.0761 -1.148056,-0.22839 -0.367542,-0.15226 -0.691967,-0.36902 -0.97327,-0.6503 -0.281308,-0.28134 -0.498082,-0.60578 -0.650322,-0.9733 C 58.076111,262.78049 57.999996,262.3978 58,262 c -4e-6,-0.39786 0.07611,-0.78055 0.228352,-1.14807 0.15224,-0.36755 0.369014,-0.69199 0.650322,-0.97327 0.281303,-0.28131 0.605724,-0.49808 0.973266,-0.65033 C 60.219486,259.07611 60.602173,259 61,259 c 0.39782,0 0.780502,0.0761 1.148045,0.22833 0.367542,0.15225 0.691967,0.36902 0.973274,0.65033 0.281299,0.28128 0.49807,0.60572 0.650314,0.97327 C 63.923874,261.21945 63.999996,261.60214 64,262 Z" /><text
             id="text70"
             style="font-variant:normal;font-weight:600;font-size:16px;font-family:SegoeUI;-inkscape-font-specification:SegoeUI-Semibold;writing-mode:lr-tb;fill:#000000;fill-opacity:1;fill-rule:nonzero;stroke:none"
             transform="translate(76,267)"><tspan
               id="tspan68"
               y="0"
               x="0 8.0390625 13.820312 23.375 32.710938 38.398438 46.898438 56.234375 65.875 70.273438 78.984375 87.382812 91.5625 95.742188 99.921875">Frontend Skills</tspan></text>
<text
             id="text74"
             style="font-variant:normal;font-weight:normal;font-size:14px;font-family:SegoeUI;-inkscape-font-specification:SegoeUI;writing-mode:lr-tb;fill:#000000;fill-opacity:1;fill-rule:nonzero;stroke:none"
             transform="translate(353.84375,266)"><tspan
               id="tspan72"
               y="0"
               x="0 9.9394531 17.274414 29.845703">HTML</tspan></text>
<text
             id="text78"
             style="font-variant:normal;font-weight:normal;font-size:14px;font-family:SegoeUI;-inkscape-font-specification:SegoeUI;writing-mode:lr-tb;fill:#000000;fill-opacity:1;fill-rule:nonzero;stroke:none"
             transform="translate(390.28125,266)"><tspan
               id="tspan76"
               y="0"
               x="0">,</tspan></text>
<text
             id="text82"
             style="font-variant:normal;font-weight:normal;font-size:14px;font-family:SegoeUI;-inkscape-font-specification:SegoeUI;writing-mode:lr-tb;fill:#000000;fill-opacity:1;fill-rule:nonzero;stroke:none"
             transform="translate(401.32813,266)"><tspan
               id="tspan80"
               y="0"
               x="0 8.6679688 16.105469">CSS</tspan></text>
<text
             id="text86"
             style="font-variant:normal;font-weight:normal;font-size:14px;font-family:SegoeUI;-inkscape-font-specification:SegoeUI;writing-mode:lr-tb;fill:#000000;fill-opacity:1;fill-rule:nonzero;stroke:none"
             transform="translate(424.875,266)"><tspan
               id="tspan84"
               y="0"
               x="0">,</tspan></text>
<text
             id="text90"
             style="font-variant:normal;font-weight:normal;font-size:14px;font-family:SegoeUI;-inkscape-font-specification:SegoeUI;writing-mode:lr-tb;fill:#000000;fill-opacity:1;fill-rule:nonzero;stroke:none"
             transform="translate(435.92188,266)"><tspan
               id="tspan88"
               y="0"
               x="0 4.9970703 12.120117 18.826172 25.949219 33.386719 39.853516 44.720703 48.111328 56.341797">JavaScript</tspan></text>
<text
             id="text94"
             style="font-variant:normal;font-weight:normal;font-size:14px;font-family:SegoeUI;-inkscape-font-specification:SegoeUI;writing-mode:lr-tb;fill:#000000;fill-opacity:1;fill-rule:nonzero;stroke:none"
             transform="translate(497.01563,266)"><tspan
               id="tspan92"
               y="0"
               x="0">,</tspan></text>
<text
             id="text98"
             style="font-variant:normal;font-weight:normal;font-size:14px;font-family:SegoeUI;-inkscape-font-specification:SegoeUI;writing-mode:lr-tb;fill:#000000;fill-opacity:1;fill-rule:nonzero;stroke:none"
             transform="translate(508.0625,266)"><tspan
               id="tspan96"
               y="0"
               x="0 6.5625 13.336914 21.567383 28.888672 36.326172 42.792969 47.660156 51.050781 59.28125">TypeScript</tspan></text>
<text
             id="text102"
             style="font-variant:normal;font-weight:normal;font-size:14px;font-family:SegoeUI;-inkscape-font-specification:SegoeUI;writing-mode:lr-tb;fill:#000000;fill-opacity:1;fill-rule:nonzero;stroke:none"
             transform="translate(572.09375,266)"><tspan
               id="tspan100"
               y="0"
               x="0">,</tspan></text>
<text
             id="text106"
             style="font-variant:normal;font-weight:normal;font-size:14px;font-family:SegoeUI;-inkscape-font-specification:SegoeUI;writing-mode:lr-tb;fill:#000000;fill-opacity:1;fill-rule:nonzero;stroke:none"
             transform="translate(583.14063,266)"><tspan
               id="tspan104"
               y="0"
               x="0 7.9638672 15.285156 22.408203 28.875 33.619141 36.654297 40.044922">React.js</tspan></text>
<text
             id="text110"
             style="font-variant:normal;font-weight:normal;font-size:14px;font-family:SegoeUI;-inkscape-font-specification:SegoeUI;writing-mode:lr-tb;fill:#000000;fill-opacity:1;fill-rule:nonzero;stroke:none"
             transform="translate(629.14063,266)"><tspan
               id="tspan108"
               y="0"
               x="0">,</tspan></text>
<text
             id="text114"
             style="font-variant:normal;font-weight:normal;font-size:14px;font-family:SegoeUI;-inkscape-font-specification:SegoeUI;writing-mode:lr-tb;fill:#000000;fill-opacity:1;fill-rule:nonzero;stroke:none"
             transform="translate(640.1875,266)"><tspan
               id="tspan112"
               y="0"
               x="0 10.472656 17.793945 24.219727 28.963867 31.999023 35.389648">Next.js</tspan></text>
<path
             id="path116"
             style="fill:#000000;fill-opacity:1;fill-rule:nonzero;stroke:none"
             d="m 64,286 c -4e-6,0.3978 -0.07613,0.78049 -0.228367,1.14801 -0.152244,0.36755 -0.369015,0.69199 -0.650314,0.9733 -0.281307,0.28128 -0.605732,0.49804 -0.973274,0.6503 C 61.780502,288.92386 61.39782,288.99997 61,289 c -0.397827,-3e-5 -0.780514,-0.0761 -1.148056,-0.22839 -0.367542,-0.15226 -0.691967,-0.36902 -0.97327,-0.6503 -0.281308,-0.28131 -0.498082,-0.60575 -0.650322,-0.9733 C 58.076111,286.78049 57.999996,286.3978 58,286 c -4e-6,-0.39786 0.07611,-0.78055 0.228352,-1.1481 0.15224,-0.36752 0.369014,-0.69196 0.650322,-0.97324 0.281303,-0.28134 0.605724,-0.49811 0.973266,-0.65033 C 60.219486,283.07611 60.602173,283 61,283 c 0.39782,0 0.780502,0.0761 1.148045,0.22833 0.367542,0.15222 0.691967,0.36899 0.973274,0.65033 0.281299,0.28128 0.49807,0.60572 0.650314,0.97324 C 63.923874,285.21945 63.999996,285.60214 64,286 Z" /><text
             id="text120"
             style="font-variant:normal;font-weight:600;font-size:16px;font-family:SegoeUI;-inkscape-font-specification:SegoeUI-Semibold;writing-mode:lr-tb;fill:#000000;fill-opacity:1;fill-rule:nonzero;stroke:none"
             transform="translate(76,291)"><tspan
               id="tspan118"
               y="0"
               x="0 9.6640625 18.015625 25.539062 33.65625 42.15625 51.492188 61.132812 65.53125 74.242188 82.640625 86.820312 91 95.179688">Backend Skills</tspan></text>
<text
             id="text124"
             style="font-variant:normal;font-weight:normal;font-size:14px;font-family:SegoeUI;-inkscape-font-specification:SegoeUI;writing-mode:lr-tb;fill:#000000;fill-opacity:1;fill-rule:nonzero;stroke:none"
             transform="translate(353.84375,290)"><tspan
               id="tspan122"
               y="0"
               x="0 10.472656 18.675781 26.919922 34.241211 37.276367 40.666992">Node.js</tspan></text>
<text
             id="text128"
             style="font-variant:normal;font-weight:normal;font-size:14px;font-family:SegoeUI;-inkscape-font-specification:SegoeUI;writing-mode:lr-tb;fill:#000000;fill-opacity:1;fill-rule:nonzero;stroke:none"
             transform="translate(400.45313,290)"><tspan
               id="tspan126"
               y="0"
               x="0">,</tspan></text>
<text
             id="text132"
             style="font-variant:normal;font-weight:normal;font-size:14px;font-family:SegoeUI;-inkscape-font-specification:SegoeUI;writing-mode:lr-tb;fill:#000000;fill-opacity:1;fill-rule:nonzero;stroke:none"
             transform="translate(411.5,290)"><tspan
               id="tspan130"
               y="0"
               x="0 7.0820312 13.507812 21.738281 26.605469 33.926758 39.867188 45.807617 48.842773 52.233398">Express.js</tspan></text>
<text
             id="text136"
             style="font-variant:normal;font-weight:normal;font-size:14px;font-family:SegoeUI;-inkscape-font-specification:SegoeUI;writing-mode:lr-tb;fill:#000000;fill-opacity:1;fill-rule:nonzero;stroke:none"
             transform="translate(469.6875,290)"><tspan
               id="tspan134"
               y="0"
               x="0">,</tspan></text>
<text
             id="text140"
             style="font-variant:normal;font-weight:normal;font-size:14px;font-family:SegoeUI;-inkscape-font-specification:SegoeUI;writing-mode:lr-tb;fill:#000000;fill-opacity:1;fill-rule:nonzero;stroke:none"
             transform="translate(480.73438,290)"><tspan
               id="tspan138"
               y="0"
               x="0 12.530273 19.851562 28.082031 35.519531 43.722656 50.189453 57.148438 64.469727 69.213867">WebSockets</tspan></text>
<path
             id="path142"
             style="fill:#000000;fill-opacity:1;fill-rule:nonzero;stroke:none"
             d="m 64,310 c -4e-6,0.3978 -0.07613,0.78046 -0.228367,1.14801 -0.152244,0.36752 -0.369015,0.69196 -0.650314,0.97327 -0.281307,0.28128 -0.605732,0.49807 -0.973274,0.65033 C 61.780502,312.92386 61.39782,313 61,313 c -0.397827,0 -0.780514,-0.0761 -1.148056,-0.22839 -0.367542,-0.15226 -0.691967,-0.36905 -0.97327,-0.65033 -0.281308,-0.28131 -0.498082,-0.60575 -0.650322,-0.97327 C 58.076111,310.78046 57.999996,310.3978 58,310 c -4e-6,-0.39783 0.07611,-0.78052 0.228352,-1.14807 0.15224,-0.36752 0.369014,-0.69196 0.650322,-0.97327 0.281303,-0.28134 0.605724,-0.49811 0.973266,-0.65036 C 60.219486,307.07611 60.602173,307 61,307 c 0.39782,0 0.780502,0.0761 1.148045,0.2283 0.367542,0.15225 0.691967,0.36902 0.973274,0.65036 0.281299,0.28131 0.49807,0.60575 0.650314,0.97327 C 63.923874,309.21948 63.999996,309.60217 64,310 Z" /><text
             id="text146"
             style="font-variant:normal;font-weight:600;font-size:16px;font-family:SegoeUI;-inkscape-font-specification:SegoeUI-Semibold;writing-mode:lr-tb;fill:#000000;fill-opacity:1;fill-rule:nonzero;stroke:none"
             transform="translate(76,315)"><tspan
               id="tspan144"
               y="0"
               x="0 11.476562 19.828125 25.609375 33.960938 43.414062 51.765625 58.664062">Database</tspan></text>
<text
             id="text150"
             style="font-variant:normal;font-weight:normal;font-size:14px;font-family:SegoeUI;-inkscape-font-specification:SegoeUI;writing-mode:lr-tb;fill:#000000;fill-opacity:1;fill-rule:nonzero;stroke:none"
             transform="translate(353.84375,314)"><tspan
               id="tspan148"
               y="0"
               x="0 12.571289 20.774414 28.697266 36.941406 45.144531 54.960938">MongoDB</tspan></text>
<text
             id="text154"
             style="font-variant:normal;font-weight:normal;font-size:14px;font-family:SegoeUI;-inkscape-font-specification:SegoeUI;writing-mode:lr-tb;fill:#000000;fill-opacity:1;fill-rule:nonzero;stroke:none"
             transform="translate(416.84375,314)"><tspan
               id="tspan152"
               y="0"
               x="0">,</tspan></text>
<text
             id="text158"
             style="font-variant:normal;font-weight:normal;font-size:14px;font-family:SegoeUI;-inkscape-font-specification:SegoeUI;writing-mode:lr-tb;fill:#000000;fill-opacity:1;fill-rule:nonzero;stroke:none"
             transform="translate(427.89063,314)"><tspan
               id="tspan156"
               y="0"
               x="0 7.3212891 15.524414 21.464844 26.208984 34.453125 39.320312 46.641602 54.079102 64.633789">PostgreSQL</tspan></text>
<text
             id="text162"
             style="font-variant:normal;font-weight:normal;font-size:14px;font-family:SegoeUI;-inkscape-font-specification:SegoeUI;writing-mode:lr-tb;fill:#000000;fill-opacity:1;fill-rule:nonzero;stroke:none"
             transform="translate(499.125,314)"><tspan
               id="tspan160"
               y="0"
               x="0">,</tspan></text>
<text
             id="text166"
             style="font-variant:normal;font-weight:normal;font-size:14px;font-family:SegoeUI;-inkscape-font-specification:SegoeUI;writing-mode:lr-tb;fill:#000000;fill-opacity:1;fill-rule:nonzero;stroke:none"
             transform="translate(510.17188,314)"><tspan
               id="tspan164"
               y="0"
               x="0 7.9638672 15.285156 23.529297 26.919922">Redis</tspan></text>
<text
             id="text170"
             style="font-variant:normal;font-weight:600;font-size:20px;font-family:SegoeUI;-inkscape-font-specification:SegoeUI-Semibold;writing-mode:lr-tb;fill:#000000;fill-opacity:1;fill-rule:nonzero;stroke:none"
             transform="translate(56,392)"><tspan
               id="tspan168"
               y="0"
               x="0 10.351562 20.371094 32.421875 43.046875 50.449219 55.673828 66.298828 77.96875 87.373047">Experience</tspan></text>
<text
             id="text174"
             style="font-variant:normal;font-weight:600;font-size:16px;font-family:SegoeUI;-inkscape-font-specification:SegoeUI-Semibold;writing-mode:lr-tb;fill:#111827;fill-opacity:1;fill-rule:nonzero;stroke:none"
             transform="translate(56,432)"><tspan
               id="tspan172"
               y="0"
               x="0 9.6640625 18.015625 25.539062 33.65625 42.15625 51.492188 61.132812 65.53125 77.007812 85.507812 93.5 102 106.17969 115.73438 125.375 133.875">Backend Developer</tspan></text>
<text
             id="text178"
             style="font-variant:normal;font-weight:normal;font-size:16px;font-family:SegoeUI;-inkscape-font-specification:SegoeUI;writing-mode:lr-tb;fill:#4b5563;fill-opacity:1;fill-rule:nonzero;stroke:none"
             transform="translate(56,456)"><tspan
               id="tspan176"
               y="0"
               x="0 14.367188 22.507812 29.898438 35.460938 44.835938 51.234375 60.804688 64.679688 74.101562 82.46875">Macro-Rides</tspan></text>
<text
             id="text182"
             style="font-variant:normal;font-weight:normal;font-size:14px;font-family:SegoeUI;-inkscape-font-specification:SegoeUI;writing-mode:lr-tb;fill:#4b5563;fill-opacity:1;fill-rule:nonzero;stroke:none"
             transform="translate(870.01563,429)"><tspan
               id="tspan180"
               y="0"
               x="0 7.546875 15.09375 22.640625 30.1875 35.786133 43.333008 50.879883 58.426758">2024-2025</tspan></text>
<path
             id="path184"
             style="fill:#374151;fill-opacity:1;fill-rule:nonzero;stroke:none"
             d="m 62,483 c -4e-6,0.3978 -0.07613,0.78049 -0.228367,1.14804 -0.152241,0.36752 -0.369015,0.69193 -0.650314,0.97327 -0.281307,0.28128 -0.605736,0.49804 -0.973278,0.65027 C 59.780499,485.92383 59.39782,485.99997 59,486 c -0.397831,-3e-5 -0.780514,-0.0761 -1.148056,-0.22836 -0.367542,-0.15226 -0.691967,-0.36905 -0.97327,-0.65033 -0.281308,-0.28134 -0.498082,-0.60575 -0.650319,-0.97327 C 56.076115,483.78049 55.999996,483.3978 56,483 c -4e-6,-0.39786 0.07612,-0.78055 0.228355,-1.1481 0.152237,-0.36756 0.369011,-0.69196 0.650319,-0.97324 0.281303,-0.28134 0.605728,-0.49811 0.97327,-0.65036 C 58.219486,480.07611 58.602169,480 59,480 c 0.39782,0 0.780499,0.0761 1.148041,0.2283 0.367542,0.15225 0.691971,0.36902 0.973278,0.65036 0.281299,0.28128 0.49807,0.60568 0.65031,0.97324 C 61.923874,482.21945 61.999996,482.60214 62,483 Z" /><text
             id="text188"
             style="font-variant:normal;font-weight:normal;font-size:16px;font-family:SegoeUI;-inkscape-font-specification:SegoeUI;writing-mode:lr-tb;fill:#374151;fill-opacity:1;fill-rule:nonzero;stroke:none"
             transform="translate(79,488)"><tspan
               id="tspan186"
               y="0"
               x="0 11.21875 19.585938 27.25 35.617188 39.492188 48.867188 58.273438 66.640625 76.0625 80.445312 88.585938 97.640625 107.0625 111.44531 125.22656 133.36719 137.24219 146.29688 151.71875 159.85938 163.73438 172.78906 181.15625 190.57812 194.96094 204.36719 212.50781 219.89844 227.85156 236.21875 245.27344 254.69531 259.07812 265.86719 273.60938 280.39844 285.82031 294.1875 307.96875 314.75781">Developed and maintained backend systems.</tspan></text>
<path
             id="path190"
             style="fill:#374151;fill-opacity:1;fill-rule:nonzero;stroke:none"
             d="m 62,511 c -4e-6,0.3978 -0.07613,0.78046 -0.228367,1.14801 -0.152241,0.36749 -0.369015,0.69196 -0.650314,0.97327 -0.281307,0.28131 -0.605736,0.49804 -0.973278,0.65027 C 59.780499,513.92383 59.39782,513.99994 59,514 c -0.397831,-6e-5 -0.780514,-0.0762 -1.148056,-0.22845 -0.367542,-0.15223 -0.691967,-0.36896 -0.97327,-0.65027 -0.281308,-0.28131 -0.498082,-0.60578 -0.650319,-0.97327 C 56.076115,511.78046 55.999996,511.3978 56,511 c -4e-6,-0.39786 0.07612,-0.78058 0.228355,-1.14813 0.152237,-0.36753 0.369011,-0.69196 0.650319,-0.97324 0.281303,-0.28131 0.605728,-0.49808 0.97327,-0.65033 C 58.219486,508.07611 58.602169,508 59,508 c 0.39782,0 0.780499,0.0761 1.148041,0.2283 0.367542,0.15225 0.691971,0.36902 0.973278,0.65033 0.281299,0.28128 0.49807,0.60571 0.65031,0.97324 C 61.923874,510.21942 61.999996,510.60214 62,511 Z" /><text
             id="text194"
             style="font-variant:normal;font-weight:normal;font-size:16px;font-family:SegoeUI;-inkscape-font-specification:SegoeUI;writing-mode:lr-tb;fill:#374151;fill-opacity:1;fill-rule:nonzero;stroke:none"
             transform="translate(79,516)"><tspan
               id="tspan192"
               y="0"
               x="0 8.09375 17.148438 23.9375 32.992188 38.554688 46.921875 56.34375 60.726562 66.148438 75.203125 83.570312 87.953125 95.34375 100.90625 109.27344 117.41406 122.83594 126.71094 136.08594 145.14062 149.52344 158.89844 163.90625 168.28906 176.42969 180.8125 187.60156 193.02344 198.58594 207.96094 217.01562 226.4375 230.82031 238.96094 248.01562 257.4375 261.82031 267.38281 275.75 279.625 283.5 291.64062 301.04688 304.92188 313.28906 317.67188 327.07812 335.21875 342.60938 350.5625 358.92969 367.98438 377.40625 381.78906 385.66406 394.71875 399.72656 405.28906 413.42969 420.21875 425.64062 431.20312 440.25781 447.64844 453.07031 462.125 467.6875 476.05469">Ensured the creation of a strong and reliable backend infrastructure.</tspan></text>
<path
             id="path196"
             style="fill:#374151;fill-opacity:1;fill-rule:nonzero;stroke:none"
             d="m 62,539 c -4e-6,0.39777 -0.07613,0.7804 -0.228367,1.14795 -0.152241,0.36755 -0.369015,0.69202 -0.650314,0.97333 -0.281307,0.28131 -0.605736,0.49804 -0.973278,0.65033 C 59.780499,541.92383 59.39782,541.99994 59,542 c -0.397831,-6e-5 -0.780514,-0.0762 -1.148056,-0.22839 -0.367542,-0.15229 -0.691967,-0.36902 -0.97327,-0.65033 -0.281308,-0.28131 -0.498082,-0.60578 -0.650319,-0.97333 C 56.076115,539.7804 55.999996,539.39777 56,539 c -4e-6,-0.39789 0.07612,-0.78058 0.228355,-1.14813 0.152237,-0.36749 0.369011,-0.6919 0.650319,-0.97321 0.281303,-0.28131 0.605728,-0.49811 0.97327,-0.65033 C 58.219486,536.07611 58.602169,536 59,536 c 0.39782,0 0.780499,0.0761 1.148041,0.22833 0.367542,0.15222 0.691971,0.36902 0.973278,0.65033 0.281299,0.28131 0.49807,0.60572 0.65031,0.97321 C 61.923874,538.21942 61.999996,538.60211 62,539 Z" /><text
             id="text200"
             style="font-variant:normal;font-weight:normal;font-size:16px;font-family:SegoeUI;-inkscape-font-specification:SegoeUI;writing-mode:lr-tb;fill:#374151;fill-opacity:1;fill-rule:nonzero;stroke:none"
             transform="translate(79,544)"><tspan
               id="tspan198"
               y="0"
               x="0 14.367188 22.507812 31.5625 39.703125 49.125 57.492188 66.914062 71.296875 80.71875 89.085938 98.492188 102.36719 111.74219 119.48438 133.26562 141.63281 150.6875 156.10938 160.49219 169.89844 175.46094 184.83594 192.22656 200.59375 207.38281 214.17188 222.53906 229.32812 233.71094 238.71875 248.09375 253.65625 258.03906 267.44531 275.58594 282.97656 290.92969 299.29688 308.35156 317.77344 322.15625 329.54688 338.92188 352.70312 362.10938 371.48438 380.53906 388.90625 397.96094 403.38281 410.17188">Managed deployment processes for backend components.</tspan></text>
<text
             id="text204"
             style="font-variant:normal;font-weight:600;font-size:20px;font-family:SegoeUI;-inkscape-font-specification:SegoeUI-Semibold;writing-mode:lr-tb;fill:#000000;fill-opacity:1;fill-rule:nonzero;stroke:none"
             transform="translate(56,621)"><tspan
               id="tspan202"
               y="0"
               x="0 11.689453 18.916016 30.859375 36.083984 46.708984 56.113281 63.339844">Projects</tspan></text>
<path
             id="path206"
             style="fill:#000000;fill-opacity:1;fill-rule:nonzero;stroke:none"
             d="m 62,648 c -4e-6,0.39777 -0.07613,0.78046 -0.228367,1.14795 -0.152241,0.36755 -0.369015,0.69202 -0.650314,0.97333 -0.281307,0.28131 -0.605736,0.49804 -0.973278,0.65033 C 59.780499,650.92383 59.39782,650.99994 59,651 c -0.397831,-6e-5 -0.780514,-0.0762 -1.148056,-0.22839 -0.367542,-0.15229 -0.691967,-0.36902 -0.97327,-0.65033 -0.281308,-0.28131 -0.498082,-0.60578 -0.650319,-0.97333 C 56.076115,648.78046 55.999996,648.39777 56,648 c -4e-6,-0.39789 0.07612,-0.78058 0.228355,-1.14813 0.152237,-0.36756 0.369011,-0.69196 0.650319,-0.97321 0.281303,-0.28131 0.605728,-0.49811 0.97327,-0.65033 C 58.219486,645.07611 58.602169,645 59,645 c 0.39782,0 0.780499,0.0761 1.148041,0.22833 0.367542,0.15222 0.691971,0.36902 0.973278,0.65033 0.281299,0.28125 0.49807,0.60565 0.65031,0.97321 C 61.923874,647.21942 61.999996,647.60211 62,648 Z" /><text
             id="text210"
             style="font-variant:normal;font-weight:600;font-size:16px;font-family:SegoeUI;-inkscape-font-specification:SegoeUI-Semibold;writing-mode:lr-tb;fill:#111827;fill-opacity:1;fill-rule:nonzero;stroke:none"
             transform="translate(71,653)"><tspan
               id="tspan208"
               y="0"
               x="0 9.9375 19.25 27.601562 32.570312 39 49.742188 59.382812">Chat-App</tspan></text>
<text
             id="text214"
             style="font-variant:normal;font-weight:normal;font-size:16px;font-family:SegoeUI;-inkscape-font-specification:SegoeUI;writing-mode:lr-tb;fill:#374151;fill-opacity:1;fill-rule:nonzero;stroke:none"
             transform="translate(56,685)"><tspan
               id="tspan212"
               y="0"
               x="0 10.320312 14.703125 20.265625 28.632812 36.773438 40.648438 47.046875 52.46875 56.34375 70.125 78.492188 82.875 90.265625 99.320312 107.46094 112.88281 117.26562 125.40625 134.8125 144.21875 148.09375 151.96875 159.35938 167.5 172.92188 176.79688 186.17188 195.22656 199.60938 207.97656 217.03125 225.17188 234.57812 238.45312 242.32812 251.38281 260.80469 265.1875 274.24219 281.03125 289.39844 294.96094 301.75 306.13281 311.55469 320.92969 325.3125 332.70312 342.07812 351.13281 360.1875 368.55469 375.94531 381.36719 384.83594 389.21875 396.60938 405.66406 413.80469 419.22656 422.69531 427.07812 432.08594 441.46094 447.02344 460.80469 465.1875 470.19531 475.75781 479.63281 488 497.05469 506.47656 513.26562 522.32031 526.19531 535.60156 542.39062 545.85938 550.24219 558.38281 567.4375 576.85938 581.24219 588.63281 594.19531 602.5625 610.70312 616.125 624.49219 628.875 638.29688 643.85938 653.23438 662.28906 671.69531 678.48438">A real-time chat application enabling users to connect, chat, form friendships, and create groups.</tspan></text>
<text
             id="text218"
             style="font-variant:normal;font-weight:600;font-size:16px;font-family:SegoeUI;-inkscape-font-specification:SegoeUI-Semibold;writing-mode:lr-tb;fill:#111827;fill-opacity:1;fill-rule:nonzero;stroke:none"
             transform="translate(56,709)"><tspan
               id="tspan216"
               y="0"
               x="0 7.8203125 12 19.992188 28.492188 32.890625 44.367188 52.867188 67.039062 76.59375 80.453125">Live Demo: </tspan></text>
</g></g></g><g
       id="g220"><g
         clip-path="url(#clipPath226)"
         id="g222"><g
           clip-path="url(#clipPath232)"
           id="g228"><g
             clip-path="url(#clipPath238)"
             id="g234"><g
               transform="scale(2.5)"
               id="g240"><path
                 id="path242"
                 style="fill:#111827;fill-opacity:1;fill-rule:nonzero;stroke:none"
                 d="m 140.85937,710 h 69.03125 v 1 h -69.03125 z" /></g></g></g></g></g><g
       id="g244"><g
         clip-path="url(#clipPath250)"
         id="g246"><g
           transform="scale(2.5)"
           id="g252"><text
             id="text256"
             style="font-variant:normal;font-weight:600;font-size:16px;font-family:SegoeUI;-inkscape-font-specification:SegoeUI-Semibold;writing-mode:lr-tb;fill:#111827;fill-opacity:1;fill-rule:nonzero;stroke:none"
             transform="translate(140.85937,709)"><tspan
               id="tspan254"
               y="0"
               x="0 9.9375 19.25 27.601562 32.570312 39 49.742188 59.382812">Chat-App</tspan></text>
<path
             id="path258"
             style="fill:none;stroke:#27272a;stroke-width:1;stroke-linecap:butt;stroke-linejoin:miter;stroke-miterlimit:10;stroke-dasharray:none;stroke-opacity:1"
             d="m 56.5,735 v -2 c 0,-0.62378 0.06084,-1.24158 0.182537,-1.85345 0.121693,-0.61182 0.301895,-1.20588 0.540604,-1.78217 0.238712,-0.57629 0.531341,-1.12378 0.877895,-1.6424 0.346554,-0.51861 0.740372,-0.99841 1.18145,-1.43951 0.441078,-0.4411 0.920944,-0.8349 1.439594,-1.18146 0.518654,-0.34655 1.066128,-0.63922 1.642426,-0.87793 0.576298,-0.2387 1.170341,-0.41888 1.782131,-0.54058 C 64.75843,723.56085 65.376213,723.5 66,723.5 h 39 c 0.62377,0 1.24155,0.0608 1.85334,0.1825 0.61179,0.1217 1.20583,0.30188 1.78213,0.54058 0.57629,0.23871 1.12377,0.53138 1.64242,0.87793 0.51866,0.34656 0.99852,0.74036 1.43961,1.18146 0.44108,0.4411 0.83488,0.9209 1.18143,1.43951 0.34656,0.51868 0.63919,1.06617 0.8779,1.64246 0.23872,0.57629 0.41892,1.17035 0.54062,1.78211 0.12169,0.61187 0.18254,1.22967 0.18255,1.85345 v 2 c -1e-5,0.62372 -0.0609,1.24152 -0.18256,1.85327 -0.12169,0.61176 -0.30189,1.20581 -0.54061,1.78211 -0.23871,0.57623 -0.53134,1.12371 -0.8779,1.64239 -0.34655,0.51862 -0.74035,0.99854 -1.18143,1.43964 -0.44109,0.44104 -0.92095,0.83484 -1.43961,1.18145 -0.51865,0.3465 -1.06613,0.63916 -1.64242,0.87787 -0.57629,0.23871 -1.17034,0.41889 -1.78213,0.54065 -0.61179,0.12171 -1.22957,0.18256 -1.85334,0.18262 H 66 c -0.623787,-6e-5 -1.24157,-0.0609 -1.853363,-0.18256 -0.61179,-0.12176 -1.205833,-0.302 -1.782131,-0.54071 -0.576298,-0.23871 -1.123772,-0.53137 -1.642426,-0.87799 -0.51865,-0.34649 -0.998516,-0.74029 -1.439594,-1.18133 -0.441078,-0.4411 -0.834896,-0.92102 -1.18145,-1.43964 -0.346554,-0.51868 -0.639183,-1.06616 -0.877895,-1.64239 -0.238709,-0.5763 -0.418911,-1.17035 -0.540604,-1.78211 C 56.560844,736.24152 56.5,735.62372 56.5,735 Z" /><text
             id="text262"
             style="font-variant:normal;font-weight:600;font-size:12px;font-family:SegoeUI;-inkscape-font-specification:SegoeUI-Semibold;writing-mode:lr-tb;fill:#4b5563;fill-opacity:1;fill-rule:nonzero;stroke:none"
             transform="translate(67,739)"><tspan
               id="tspan260"
               y="0"
               x="0 9.2050781 15.580078 21.591797 25.927734 28.822266 31.957031">Next.js</tspan></text>
<path
             id="path264"
             style="fill:none;stroke:#27272a;stroke-width:1;stroke-linecap:butt;stroke-linejoin:miter;stroke-miterlimit:10;stroke-dasharray:none;stroke-opacity:1"
             d="m 123.5,735 v -2 c 0,-0.62378 0.0608,-1.24158 0.18254,-1.85345 0.12168,-0.61182 0.30187,-1.20588 0.54059,-1.78217 0.2387,-0.57629 0.53133,-1.12378 0.87789,-1.6424 0.34655,-0.51861 0.74037,-0.99841 1.18146,-1.43951 0.44107,-0.4411 0.92093,-0.8349 1.43958,-1.18146 0.51866,-0.34655 1.06613,-0.63922 1.64243,-0.87793 0.57631,-0.2387 1.17035,-0.41888 1.78213,-0.54058 C 131.75842,723.56085 132.3762,723.5 133,723.5 h 39 c 0.62378,0 1.24156,0.0608 1.85335,0.1825 0.6118,0.1217 1.20584,0.30188 1.78212,0.54058 0.57629,0.23871 1.12378,0.53138 1.64244,0.87793 0.51864,0.34656 0.9985,0.74036 1.43959,1.18146 0.44108,0.4411 0.8349,0.9209 1.18144,1.43951 0.34654,0.51868 0.63918,1.06617 0.87788,1.64246 0.23871,0.57629 0.41892,1.17035 0.54062,1.78211 0.12169,0.61187 0.18254,1.22967 0.18256,1.85345 v 2 c -2e-5,0.62372 -0.0609,1.24152 -0.18256,1.85327 -0.12168,0.61176 -0.30189,1.20581 -0.54058,1.78211 -0.23873,0.57623 -0.53138,1.12371 -0.87792,1.64239 -0.34654,0.51862 -0.74036,0.99854 -1.18144,1.43964 -0.44109,0.44104 -0.92095,0.83484 -1.43959,1.18145 -0.51866,0.3465 -1.06615,0.63916 -1.64244,0.87787 -0.57628,0.23871 -1.17032,0.41889 -1.78212,0.54065 -0.61179,0.12171 -1.22957,0.18256 -1.85335,0.18262 h -39 c -0.6238,-6e-5 -1.24158,-0.0609 -1.85338,-0.18256 -0.61178,-0.12176 -1.20582,-0.302 -1.78213,-0.54071 -0.5763,-0.23871 -1.12377,-0.53137 -1.64243,-0.87799 -0.51865,-0.34649 -0.99851,-0.74029 -1.43958,-1.18133 -0.44109,-0.4411 -0.8349,-0.92102 -1.18145,-1.43964 -0.34657,-0.51868 -0.6392,-1.06616 -0.8779,-1.64239 -0.23872,-0.5763 -0.41892,-1.17035 -0.5406,-1.78211 C 123.56084,736.24152 123.5,735.62372 123.5,735 Z" /><text
             id="text268"
             style="font-variant:normal;font-weight:600;font-size:12px;font-family:SegoeUI;-inkscape-font-specification:SegoeUI-Semibold;writing-mode:lr-tb;fill:#4b5563;fill-opacity:1;fill-rule:nonzero;stroke:none"
             transform="translate(134.14062,739)"><tspan
               id="tspan266"
               y="0"
               x="0 7.0136719 11.455078 14.589844 19.763672 30.392578">Prisma</tspan></text>
<path
             id="path270"
             style="fill:none;stroke:#27272a;stroke-width:1;stroke-linecap:butt;stroke-linejoin:miter;stroke-miterlimit:10;stroke-dasharray:none;stroke-opacity:1"
             d="m 190.5,735 v -2 c 0,-0.62378 0.0608,-1.24158 0.18254,-1.85345 0.12169,-0.61182 0.30188,-1.20588 0.54059,-1.78217 0.23872,-0.57629 0.53136,-1.12378 0.8779,-1.6424 0.34656,-0.51861 0.74037,-0.99841 1.18146,-1.43951 0.44107,-0.4411 0.92092,-0.8349 1.43959,-1.18146 0.51866,-0.34655 1.06613,-0.63922 1.64242,-0.87793 0.57631,-0.2387 1.17035,-0.41888 1.78214,-0.54058 0.6118,-0.12165 1.22958,-0.1825 1.85336,-0.1825 h 64 c 0.62375,0 1.24155,0.0608 1.85333,0.1825 0.61179,0.1217 1.20584,0.30188 1.78214,0.54058 0.57629,0.23871 1.12378,0.53138 1.64242,0.87793 0.51865,0.34656 0.99854,0.74036 1.43961,1.18146 0.44107,0.4411 0.8349,0.9209 1.18143,1.43951 0.34655,0.51868 0.63919,1.06617 0.87789,1.64246 0.23874,0.57629 0.41895,1.17035 0.54062,1.78211 0.12168,0.61187 0.18253,1.22967 0.18256,1.85345 v 2 c -3e-5,0.62372 -0.0609,1.24152 -0.18256,1.85327 -0.12167,0.61176 -0.30188,1.20581 -0.54062,1.78211 -0.2387,0.57623 -0.53134,1.12371 -0.87789,1.64239 -0.34653,0.51862 -0.74036,0.99854 -1.18143,1.43964 -0.44107,0.44104 -0.92096,0.83484 -1.43961,1.18145 -0.51864,0.3465 -1.06613,0.63916 -1.64242,0.87787 -0.5763,0.23871 -1.17035,0.41889 -1.78214,0.54065 -0.61178,0.12171 -1.22958,0.18256 -1.85333,0.18262 h -64 c -0.62378,-6e-5 -1.24156,-0.0609 -1.85336,-0.18256 -0.61179,-0.12176 -1.20583,-0.302 -1.78214,-0.54071 -0.57629,-0.23871 -1.12376,-0.53137 -1.64242,-0.87799 -0.51867,-0.34649 -0.99852,-0.74029 -1.43959,-1.18133 -0.44109,-0.4411 -0.8349,-0.92102 -1.18145,-1.43964 -0.34655,-0.51868 -0.63919,-1.06616 -0.87791,-1.64239 -0.23871,-0.5763 -0.41892,-1.17035 -0.5406,-1.78211 C 190.56084,736.24152 190.5,735.62372 190.5,735 Z" /><text
             id="text274"
             style="font-variant:normal;font-weight:600;font-size:12px;font-family:SegoeUI;-inkscape-font-specification:SegoeUI-Semibold;writing-mode:lr-tb;fill:#4b5563;fill-opacity:1;fill-rule:nonzero;stroke:none"
             transform="translate(200.79688,739)"><tspan
               id="tspan272"
               y="0"
               x="0 6.609375 13.775391 18.949219 23.214844 30.445312 34.78125 41.15625 47.689453 56.759766">PostgreSQL</tspan></text>
<path
             id="path276"
             style="fill:none;stroke:#27272a;stroke-width:1;stroke-linecap:butt;stroke-linejoin:miter;stroke-miterlimit:10;stroke-dasharray:none;stroke-opacity:1"
             d="m 282.5,735 v -2 c -3e-5,-0.62378 0.0608,-1.24158 0.1825,-1.85345 0.1217,-0.61182 0.30191,-1.20588 0.54061,-1.78217 0.23871,-0.57629 0.53135,-1.12378 0.8779,-1.6424 0.34656,-0.51861 0.74039,-0.99841 1.18146,-1.43951 0.44107,-0.4411 0.92093,-0.8349 1.43958,-1.18146 0.51864,-0.34655 1.06613,-0.63922 1.64242,-0.87793 0.5763,-0.2387 1.17035,-0.41888 1.78217,-0.54058 C 290.75842,723.56085 291.37622,723.5 292,723.5 h 55 c 0.62375,0 1.24155,0.0608 1.85333,0.1825 0.61179,0.1217 1.20584,0.30188 1.78214,0.54058 0.57629,0.23871 1.12378,0.53138 1.64242,0.87793 0.51865,0.34656 0.99854,0.74036 1.43961,1.18146 0.44107,0.4411 0.8349,0.9209 1.18146,1.43951 0.34655,0.51868 0.63919,1.06617 0.87786,1.64246 0.23871,0.57629 0.41892,1.17035 0.54059,1.78211 0.12171,0.61187 0.18256,1.22967 0.18259,1.85345 v 2 c -3e-5,0.62372 -0.0609,1.24152 -0.18259,1.85327 -0.12167,0.61176 -0.30188,1.20581 -0.54059,1.78211 -0.23867,0.57623 -0.53131,1.12371 -0.87786,1.64239 -0.34656,0.51862 -0.74039,0.99854 -1.18146,1.43964 -0.44107,0.44104 -0.92096,0.83484 -1.43961,1.18145 -0.51864,0.3465 -1.06613,0.63916 -1.64242,0.87787 -0.5763,0.23871 -1.17035,0.41889 -1.78214,0.54065 -0.61178,0.12171 -1.22958,0.18256 -1.85333,0.18262 h -55 c -0.62378,-6e-5 -1.24158,-0.0609 -1.85336,-0.18256 -0.61182,-0.12176 -1.20587,-0.302 -1.78217,-0.54071 -0.57629,-0.23871 -1.12378,-0.53137 -1.64242,-0.87799 -0.51865,-0.34649 -0.99851,-0.74029 -1.43958,-1.18133 -0.44107,-0.4411 -0.8349,-0.92102 -1.18146,-1.43964 -0.34655,-0.51868 -0.63919,-1.06616 -0.8779,-1.64239 -0.2387,-0.5763 -0.41891,-1.17035 -0.54061,-1.78211 C 282.56082,736.24152 282.49997,735.62372 282.5,735 Z" /><text
             id="text280"
             style="font-variant:normal;font-weight:600;font-size:12px;font-family:SegoeUI;-inkscape-font-specification:SegoeUI-Semibold;writing-mode:lr-tb;fill:#4b5563;fill-opacity:1;fill-rule:nonzero;stroke:none"
             transform="translate(293.42188,739)"><tspan
               id="tspan278"
               y="0"
               x="0 9.2050781 15.580078 21.591797 25.927734 33.984375 40.986328 45.322266">NextAuth</tspan></text>
<path
             id="path282"
             style="fill:none;stroke:#27272a;stroke-width:1;stroke-linecap:butt;stroke-linejoin:miter;stroke-miterlimit:10;stroke-dasharray:none;stroke-opacity:1"
             d="m 365.5,735 v -2 c -3e-5,-0.62378 0.0608,-1.24158 0.18253,-1.85345 0.12167,-0.61182 0.30185,-1.20588 0.54058,-1.78217 0.23871,-0.57629 0.53135,-1.12378 0.87787,-1.6424 0.34656,-0.51861 0.74039,-0.99841 1.18146,-1.43951 0.44107,-0.4411 0.92093,-0.8349 1.43958,-1.18146 0.51864,-0.34655 1.06613,-0.63922 1.64242,-0.87793 0.57633,-0.2387 1.17038,-0.41888 1.78217,-0.54058 C 373.75839,723.56085 374.37619,723.5 375,723.5 h 68 c 0.62375,0 1.24155,0.0608 1.85333,0.1825 0.61179,0.1217 1.20584,0.30188 1.78214,0.54058 0.57629,0.23871 1.12378,0.53138 1.64242,0.87793 0.51865,0.34656 0.99854,0.74036 1.43961,1.18146 0.44104,0.4411 0.83484,0.9209 1.18143,1.43951 0.34652,0.51868 0.63916,1.06617 0.87789,1.64246 0.23871,0.57629 0.41892,1.17035 0.54062,1.78211 0.12168,0.61187 0.18253,1.22967 0.18256,1.85345 v 2 c -3e-5,0.62372 -0.0609,1.24152 -0.18256,1.85327 -0.1217,0.61176 -0.30191,1.20581 -0.54062,1.78211 -0.23873,0.57623 -0.53137,1.12371 -0.87789,1.64239 -0.34659,0.51862 -0.74039,0.99854 -1.18143,1.43964 -0.44107,0.44104 -0.92096,0.83484 -1.43961,1.18145 -0.51864,0.3465 -1.06613,0.63916 -1.64242,0.87787 -0.5763,0.23871 -1.17035,0.41889 -1.78214,0.54065 -0.61178,0.12171 -1.22958,0.18256 -1.85333,0.18262 h -68 c -0.62381,-6e-5 -1.24158,-0.0609 -1.85336,-0.18256 -0.61182,-0.12176 -1.20587,-0.302 -1.78217,-0.54071 -0.57632,-0.23871 -1.12381,-0.53137 -1.64245,-0.87799 -0.51865,-0.34649 -0.99851,-0.74029 -1.43958,-1.18133 -0.44107,-0.4411 -0.8349,-0.92102 -1.18149,-1.43964 -0.34652,-0.51868 -0.63916,-1.06616 -0.87787,-1.64239 -0.2387,-0.5763 -0.41891,-1.17035 -0.54058,-1.78211 C 365.56082,736.24152 365.49997,735.62372 365.5,735 Z" /><text
             id="text286"
             style="font-variant:normal;font-weight:600;font-size:12px;font-family:SegoeUI;-inkscape-font-specification:SegoeUI-Semibold;writing-mode:lr-tb;fill:#4b5563;fill-opacity:1;fill-rule:nonzero;stroke:none"
             transform="translate(375.73438,739)"><tspan
               id="tspan284"
               y="0"
               x="0 11.285156 17.660156 24.890625 31.423828 38.589844 44.232422 50.320312 56.695312 61.03125">WebSockets</tspan></text>
<path
             id="path288"
             style="fill:none;stroke:#27272a;stroke-width:1;stroke-linecap:butt;stroke-linejoin:miter;stroke-miterlimit:10;stroke-dasharray:none;stroke-opacity:1"
             d="m 461.5,735 v -2 c -3e-5,-0.62378 0.0608,-1.24158 0.1825,-1.85345 0.12167,-0.61182 0.30188,-1.20588 0.54058,-1.78217 0.23871,-0.57629 0.53135,-1.12378 0.8779,-1.6424 0.34656,-0.51861 0.74039,-0.99841 1.18146,-1.43951 0.44107,-0.4411 0.92096,-0.8349 1.43961,-1.18146 0.51864,-0.34655 1.0661,-0.63922 1.64239,-0.87793 0.57633,-0.2387 1.17038,-0.41888 1.78217,-0.54058 C 469.75839,723.56085 470.37619,723.5 471,723.5 h 31 c 0.62375,0 1.24155,0.0608 1.85333,0.1825 0.61179,0.1217 1.20581,0.30188 1.78211,0.54058 0.57629,0.23871 1.12378,0.53138 1.64245,0.87793 0.51865,0.34656 0.99854,0.74036 1.43961,1.18146 0.44104,0.4411 0.83484,0.9209 1.1814,1.43951 0.34655,0.51868 0.63919,1.06617 0.87789,1.64246 0.23871,0.57629 0.41892,1.17035 0.54065,1.78211 0.12168,0.61187 0.18253,1.22967 0.18256,1.85345 v 2 c -3e-5,0.62372 -0.0609,1.24152 -0.18256,1.85327 -0.12173,0.61176 -0.30194,1.20581 -0.54065,1.78211 -0.2387,0.57623 -0.53134,1.12371 -0.87789,1.64239 -0.34656,0.51862 -0.74036,0.99854 -1.1814,1.43964 -0.44107,0.44104 -0.92096,0.83484 -1.43961,1.18145 -0.51867,0.3465 -1.06616,0.63916 -1.64245,0.87787 -0.5763,0.23871 -1.17032,0.41889 -1.78211,0.54065 -0.61178,0.12171 -1.22958,0.18256 -1.85333,0.18262 h -31 c -0.62381,-6e-5 -1.24161,-0.0609 -1.85339,-0.18256 -0.61179,-0.12176 -1.20584,-0.302 -1.78217,-0.54071 -0.57629,-0.23871 -1.12375,-0.53137 -1.64239,-0.87799 -0.51865,-0.34649 -0.99854,-0.74029 -1.43961,-1.18133 -0.44107,-0.4411 -0.8349,-0.92102 -1.18149,-1.43964 -0.34652,-0.51868 -0.63916,-1.06616 -0.87787,-1.64239 -0.2387,-0.5763 -0.41891,-1.17035 -0.54058,-1.78211 C 461.56079,736.24152 461.49997,735.62372 461.5,735 Z" /><text
             id="text292"
             style="font-variant:normal;font-weight:600;font-size:12px;font-family:SegoeUI;-inkscape-font-specification:SegoeUI-Semibold;writing-mode:lr-tb;fill:#4b5563;fill-opacity:1;fill-rule:nonzero;stroke:none"
             transform="translate(471.95313,739)"><tspan
               id="tspan290"
               y="0"
               x="0 7.1542969 13.529297 20.759766 23.894531">Redis</tspan></text>
<path
             id="path294"
             style="fill:#000000;fill-opacity:1;fill-rule:nonzero;stroke:none"
             d="m 62,766 c -4e-6,0.39777 -0.07613,0.78046 -0.228367,1.14801 -0.152241,0.36749 -0.369015,0.69196 -0.650314,0.97327 -0.281307,0.28125 -0.605736,0.49798 -0.973278,0.65027 C 59.780499,768.92383 59.39782,768.99994 59,769 c -0.397831,-6e-5 -0.780514,-0.0762 -1.148056,-0.22839 -0.367542,-0.15229 -0.691967,-0.36908 -0.97327,-0.65033 -0.281308,-0.28131 -0.498082,-0.60578 -0.650319,-0.97333 C 56.076115,766.78046 55.999996,766.39777 56,766 c -4e-6,-0.39789 0.07612,-0.78058 0.228355,-1.14813 0.152237,-0.36756 0.369011,-0.69196 0.650319,-0.97327 0.281303,-0.28131 0.605728,-0.49811 0.97327,-0.65033 C 58.219486,763.07611 58.602169,763 59,763 c 0.39782,0 0.780499,0.0761 1.148041,0.22833 0.367542,0.15216 0.691971,0.36896 0.973278,0.65027 0.281299,0.28131 0.49807,0.60571 0.65031,0.97321 C 61.923874,765.21942 61.999996,765.60211 62,766 Z" /><text
             id="text298"
             style="font-variant:normal;font-weight:600;font-size:16px;font-family:SegoeUI;-inkscape-font-specification:SegoeUI-Semibold;writing-mode:lr-tb;fill:#111827;fill-opacity:1;fill-rule:nonzero;stroke:none"
             transform="translate(71,771)"><tspan
               id="tspan296"
               y="0"
               x="0 10.742188 15.367188 21.796875 31.335938 39.835938 46.734375 56.070312 70.242188 78.742188 85.171875 94.835938 104.17188 108.35156 112.53125 122.17188 130.67188">AI-Resume-Builder</tspan></text>
<text
             id="text302"
             style="font-variant:normal;font-weight:normal;font-size:16px;font-family:SegoeUI;-inkscape-font-specification:SegoeUI;writing-mode:lr-tb;fill:#374151;fill-opacity:1;fill-rule:nonzero;stroke:none"
             transform="translate(56,803)"><tspan
               id="tspan300"
               y="0"
               x="0 10.320312 19.375 23.757812 34.078125 38.335938 44.734375 54.140625 63.515625 75.078125 83.445312 89.007812 97.375 106.79688 111.17969 116.74219 125.10938 131.89844 140.95312 154.73438 163.10156 167.48438 176.89062 185.94531 189.82031 193.69531 203.11719 211.48438 217.04688 221.42969 230.85156 239.21875 246.00781 249.88281 259.30469 268.35938 276.72656 286.14844 290.53125 295.95312 305.32812 309.71094 317.10156 322.66406 331.03125 339.17188 344.59375 352.96094 357.34375 366.51562 374.58594 383.08594 389.48438 394.49219 400.05469 403.92969 412.29688 421.35156 430.77344 434.64844 442.39062 446.77344 452.33594 460.70312 467.49219 476.54688 490.32812 498.69531 505.48438 508.95312 513.33594 520.125 524 537.78125 547.1875 551.0625 554.9375 559.94531 567.6875 571.5625 580.61719 590.03906 594.42188 599.84375 608.89844 617.26562 621.64844 627.21094 635.57812 642.36719 651.42188 665.20312 673.57031 677.95312 685.34375 690.90625 699.27344 707.41406 712.83594 716.71094 726.08594 735.14062 739.52344 748.92969 754.49219 763.86719 771.25781 779.625 786.41406 793.20312 797.58594 802.59375 811.96875 817.53125 821.91406 829.57812 837.71875 843.28125 847.15625 856.53125 865.58594">An AI-powered resume builder designed to create ATS-friendly resumes, simplifying the resume creation process for various</tspan></text>
<text
             id="text306"
             style="font-variant:normal;font-weight:normal;font-size:16px;font-family:SegoeUI;-inkscape-font-specification:SegoeUI;writing-mode:lr-tb;fill:#374151;fill-opacity:1;fill-rule:nonzero;stroke:none"
             transform="translate(56,827)"><tspan
               id="tspan304"
               y="0"
               x="0 3.875 13.25 22.65625 27.039062 32.601562 41.976562 45.851562 54.21875 61.007812 65.390625 74.796875 82.539062 86.921875 90.796875 99.164062 106.82812 115.19531 120.75781 128.89844 138.32031 142.19531 151.25 160.67188 165.05469 168.92969 178.30469 187.71094 192.09375 201.5 210.875 217.66406 223.08594 227.46875 233.03125 241.39844 246.40625 254.77344 260.33594 268.70312 277.75781 285.14844 293.51562 300.30469">job roles by leveraging job post references.</tspan></text>
<text
             id="text310"
             style="font-variant:normal;font-weight:600;font-size:16px;font-family:SegoeUI;-inkscape-font-specification:SegoeUI-Semibold;writing-mode:lr-tb;fill:#111827;fill-opacity:1;fill-rule:nonzero;stroke:none"
             transform="translate(56,851)"><tspan
               id="tspan308"
               y="0"
               x="0 7.8203125 12 19.992188 28.492188 32.890625 44.367188 52.867188 67.039062 76.59375 80.453125">Live Demo: </tspan></text>
<path
             id="path312"
             style="fill:#111827;fill-opacity:1;fill-rule:nonzero;stroke:none"
             d="m 140.85937,852 h 136.59375 v 1 H 140.85937 Z" /><text
             id="text316"
             style="font-variant:normal;font-weight:600;font-size:16px;font-family:SegoeUI;-inkscape-font-specification:SegoeUI-Semibold;writing-mode:lr-tb;fill:#111827;fill-opacity:1;fill-rule:nonzero;stroke:none"
             transform="translate(140.85937,851)"><tspan
               id="tspan314"
               y="0"
               x="0 10.742188 15.367188 21.796875 31.335938 39.835938 46.734375 56.070312 70.242188 78.742188 85.171875 94.835938 104.17188 108.35156 112.53125 122.17188 130.67188">AI-Resume-Builder</tspan></text>
<path
             id="path318"
             style="fill:none;stroke:#27272a;stroke-width:1;stroke-linecap:butt;stroke-linejoin:miter;stroke-miterlimit:10;stroke-dasharray:none;stroke-opacity:1"
             d="m 56.5,877 v -2 c 0,-0.62378 0.06084,-1.24158 0.182537,-1.85345 0.121693,-0.61182 0.301895,-1.20588 0.540604,-1.78217 0.238712,-0.57636 0.531341,-1.12378 0.877895,-1.6424 0.346554,-0.51861 0.740372,-0.99841 1.18145,-1.43951 0.441078,-0.4411 0.920944,-0.83496 1.439594,-1.18152 0.518654,-0.34649 1.066128,-0.63916 1.642426,-0.87787 0.576298,-0.2387 1.170341,-0.41888 1.782131,-0.54058 C 64.75843,865.56085 65.376213,865.5 66,865.5 h 39 c 0.62377,0 1.24155,0.0608 1.85334,0.1825 0.61179,0.1217 1.20583,0.30188 1.78213,0.54052 0.57629,0.23871 1.12377,0.53137 1.64242,0.87793 0.51866,0.34656 0.99852,0.74042 1.43961,1.18152 0.44108,0.4411 0.83488,0.9209 1.18143,1.43951 0.34656,0.51862 0.63919,1.06611 0.8779,1.64246 0.23872,0.57629 0.41892,1.17035 0.54062,1.78211 0.12169,0.61187 0.18254,1.22967 0.18255,1.85345 v 2 c -1e-5,0.62372 -0.0609,1.24146 -0.18256,1.85321 -0.12169,0.61188 -0.30189,1.20593 -0.54061,1.78217 -0.23871,0.57629 -0.53134,1.12371 -0.8779,1.64233 -0.34655,0.51874 -0.74035,0.9986 -1.18143,1.4397 -0.44109,0.44104 -0.92095,0.83484 -1.43961,1.18145 -0.51865,0.3465 -1.06613,0.63916 -1.64242,0.87787 -0.57629,0.23871 -1.17034,0.41895 -1.78213,0.54065 -0.61179,0.12171 -1.22957,0.18256 -1.85334,0.18262 H 66 c -0.623787,-6e-5 -1.24157,-0.0609 -1.853363,-0.18262 -0.61179,-0.1217 -1.205833,-0.30194 -1.782131,-0.54065 -0.576298,-0.23871 -1.123772,-0.53137 -1.642426,-0.87799 -0.51865,-0.34649 -0.998516,-0.74029 -1.439594,-1.18133 -0.441078,-0.4411 -0.834896,-0.92096 -1.18145,-1.4397 -0.346554,-0.51862 -0.639183,-1.06604 -0.877895,-1.64233 -0.238709,-0.57624 -0.418911,-1.17029 -0.540604,-1.78211 C 56.560844,878.24152 56.5,877.62372 56.5,877 Z" /><text
             id="text322"
             style="font-variant:normal;font-weight:600;font-size:12px;font-family:SegoeUI;-inkscape-font-specification:SegoeUI-Semibold;writing-mode:lr-tb;fill:#4b5563;fill-opacity:1;fill-rule:nonzero;stroke:none"
             transform="translate(67,881)"><tspan
               id="tspan320"
               y="0"
               x="0 9.2050781 15.580078 21.591797 25.927734 28.822266 31.957031">Next.js</tspan></text>
<path
             id="path324"
             style="fill:none;stroke:#27272a;stroke-width:1;stroke-linecap:butt;stroke-linejoin:miter;stroke-miterlimit:10;stroke-dasharray:none;stroke-opacity:1"
             d="m 123.5,877 v -2 c 0,-0.62378 0.0608,-1.24158 0.18254,-1.85345 0.12168,-0.61182 0.30187,-1.20588 0.54059,-1.78217 0.2387,-0.57636 0.53133,-1.12378 0.87789,-1.6424 0.34655,-0.51861 0.74037,-0.99841 1.18146,-1.43951 0.44107,-0.4411 0.92093,-0.83496 1.43958,-1.18152 0.51866,-0.34649 1.06613,-0.63916 1.64243,-0.87787 0.57631,-0.2387 1.17035,-0.41888 1.78213,-0.54058 C 131.75842,865.56085 132.3762,865.5 133,865.5 h 39 c 0.62378,0 1.24156,0.0608 1.85335,0.1825 0.6118,0.1217 1.20584,0.30188 1.78212,0.54052 0.57629,0.23871 1.12378,0.53137 1.64244,0.87793 0.51864,0.34656 0.9985,0.74042 1.43959,1.18152 0.44108,0.4411 0.8349,0.9209 1.18144,1.43951 0.34654,0.51862 0.63918,1.06611 0.87788,1.64246 0.23871,0.57629 0.41892,1.17035 0.54062,1.78211 0.12169,0.61187 0.18254,1.22967 0.18256,1.85345 v 2 c -2e-5,0.62372 -0.0609,1.24146 -0.18256,1.85321 -0.12168,0.61188 -0.30189,1.20593 -0.54058,1.78217 -0.23873,0.57629 -0.53138,1.12371 -0.87792,1.64233 -0.34654,0.51874 -0.74036,0.9986 -1.18144,1.4397 -0.44109,0.44104 -0.92095,0.83484 -1.43959,1.18145 -0.51866,0.3465 -1.06615,0.63916 -1.64244,0.87787 -0.57628,0.23871 -1.17032,0.41895 -1.78212,0.54065 -0.61179,0.12171 -1.22957,0.18256 -1.85335,0.18262 h -39 c -0.6238,-6e-5 -1.24158,-0.0609 -1.85338,-0.18262 -0.61178,-0.1217 -1.20582,-0.30194 -1.78213,-0.54065 -0.5763,-0.23871 -1.12377,-0.53137 -1.64243,-0.87799 -0.51865,-0.34649 -0.99851,-0.74029 -1.43958,-1.18133 -0.44109,-0.4411 -0.8349,-0.92096 -1.18145,-1.4397 -0.34657,-0.51862 -0.6392,-1.06604 -0.8779,-1.64233 -0.23872,-0.57624 -0.41892,-1.17029 -0.5406,-1.78211 C 123.56084,878.24152 123.5,877.62372 123.5,877 Z" /><text
             id="text328"
             style="font-variant:normal;font-weight:600;font-size:12px;font-family:SegoeUI;-inkscape-font-specification:SegoeUI-Semibold;writing-mode:lr-tb;fill:#4b5563;fill-opacity:1;fill-rule:nonzero;stroke:none"
             transform="translate(134.14062,881)"><tspan
               id="tspan326"
               y="0"
               x="0 7.0136719 11.455078 14.589844 19.763672 30.392578">Prisma</tspan></text>
<path
             id="path330"
             style="fill:none;stroke:#27272a;stroke-width:1;stroke-linecap:butt;stroke-linejoin:miter;stroke-miterlimit:10;stroke-dasharray:none;stroke-opacity:1"
             d="m 190.5,877 v -2 c 0,-0.62378 0.0608,-1.24158 0.18254,-1.85345 0.12169,-0.61182 0.30188,-1.20588 0.54059,-1.78217 0.23872,-0.57636 0.53136,-1.12378 0.8779,-1.6424 0.34656,-0.51861 0.74037,-0.99841 1.18146,-1.43951 0.44107,-0.4411 0.92092,-0.83496 1.43959,-1.18152 0.51866,-0.34649 1.06613,-0.63916 1.64242,-0.87787 0.57631,-0.2387 1.17035,-0.41888 1.78214,-0.54058 0.6118,-0.12165 1.22958,-0.1825 1.85336,-0.1825 h 64 c 0.62375,0 1.24155,0.0608 1.85333,0.1825 0.61179,0.1217 1.20584,0.30188 1.78214,0.54052 0.57629,0.23871 1.12378,0.53137 1.64242,0.87793 0.51865,0.34656 0.99854,0.74042 1.43961,1.18152 0.44107,0.4411 0.8349,0.9209 1.18143,1.43951 0.34655,0.51862 0.63919,1.06611 0.87789,1.64246 0.23874,0.57629 0.41895,1.17035 0.54062,1.78211 0.12168,0.61187 0.18253,1.22967 0.18256,1.85345 v 2 c -3e-5,0.62372 -0.0609,1.24146 -0.18256,1.85321 -0.12167,0.61188 -0.30188,1.20593 -0.54062,1.78217 -0.2387,0.57629 -0.53134,1.12371 -0.87789,1.64233 -0.34653,0.51874 -0.74036,0.9986 -1.18143,1.4397 -0.44107,0.44104 -0.92096,0.83484 -1.43961,1.18145 -0.51864,0.3465 -1.06613,0.63916 -1.64242,0.87787 -0.5763,0.23871 -1.17035,0.41895 -1.78214,0.54065 -0.61178,0.12171 -1.22958,0.18256 -1.85333,0.18262 h -64 c -0.62378,-6e-5 -1.24156,-0.0609 -1.85336,-0.18262 -0.61179,-0.1217 -1.20583,-0.30194 -1.78214,-0.54065 -0.57629,-0.23871 -1.12376,-0.53137 -1.64242,-0.87799 -0.51867,-0.34649 -0.99852,-0.74029 -1.43959,-1.18133 -0.44109,-0.4411 -0.8349,-0.92096 -1.18145,-1.4397 -0.34655,-0.51862 -0.63919,-1.06604 -0.87791,-1.64233 -0.23871,-0.57624 -0.41892,-1.17029 -0.5406,-1.78211 C 190.56084,878.24152 190.5,877.62372 190.5,877 Z" /><text
             id="text334"
             style="font-variant:normal;font-weight:600;font-size:12px;font-family:SegoeUI;-inkscape-font-specification:SegoeUI-Semibold;writing-mode:lr-tb;fill:#4b5563;fill-opacity:1;fill-rule:nonzero;stroke:none"
             transform="translate(200.79688,881)"><tspan
               id="tspan332"
               y="0"
               x="0 6.609375 13.775391 18.949219 23.214844 30.445312 34.78125 41.15625 47.689453 56.759766">PostgreSQL</tspan></text>
<path
             id="path336"
             style="fill:none;stroke:#27272a;stroke-width:1;stroke-linecap:butt;stroke-linejoin:miter;stroke-miterlimit:10;stroke-dasharray:none;stroke-opacity:1"
             d="m 282.5,877 v -2 c -3e-5,-0.62378 0.0608,-1.24158 0.1825,-1.85345 0.1217,-0.61182 0.30191,-1.20588 0.54061,-1.78217 0.23871,-0.57636 0.53135,-1.12378 0.8779,-1.6424 0.34656,-0.51861 0.74039,-0.99841 1.18146,-1.43951 0.44107,-0.4411 0.92093,-0.83496 1.43958,-1.18152 0.51864,-0.34649 1.06613,-0.63916 1.64242,-0.87787 0.5763,-0.2387 1.17035,-0.41888 1.78217,-0.54058 C 290.75842,865.56085 291.37622,865.5 292,865.5 h 55 c 0.62375,0 1.24155,0.0608 1.85333,0.1825 0.61179,0.1217 1.20584,0.30188 1.78214,0.54052 0.57629,0.23871 1.12378,0.53137 1.64242,0.87793 0.51865,0.34656 0.99854,0.74042 1.43961,1.18152 0.44107,0.4411 0.8349,0.9209 1.18146,1.43951 0.34655,0.51862 0.63919,1.06611 0.87786,1.64246 0.23871,0.57629 0.41892,1.17035 0.54059,1.78211 0.12171,0.61187 0.18256,1.22967 0.18259,1.85345 v 2 c -3e-5,0.62372 -0.0609,1.24146 -0.18259,1.85321 -0.12167,0.61188 -0.30188,1.20593 -0.54059,1.78217 -0.23867,0.57629 -0.53131,1.12371 -0.87786,1.64233 -0.34656,0.51874 -0.74039,0.9986 -1.18146,1.4397 -0.44107,0.44104 -0.92096,0.83484 -1.43961,1.18145 -0.51864,0.3465 -1.06613,0.63916 -1.64242,0.87787 -0.5763,0.23871 -1.17035,0.41895 -1.78214,0.54065 -0.61178,0.12171 -1.22958,0.18256 -1.85333,0.18262 h -55 c -0.62378,-6e-5 -1.24158,-0.0609 -1.85336,-0.18262 -0.61182,-0.1217 -1.20587,-0.30194 -1.78217,-0.54065 -0.57629,-0.23871 -1.12378,-0.53137 -1.64242,-0.87799 -0.51865,-0.34649 -0.99851,-0.74029 -1.43958,-1.18133 -0.44107,-0.4411 -0.8349,-0.92096 -1.18146,-1.4397 -0.34655,-0.51862 -0.63919,-1.06604 -0.8779,-1.64233 -0.2387,-0.57624 -0.41891,-1.17029 -0.54061,-1.78211 C 282.56082,878.24152 282.49997,877.62372 282.5,877 Z" /><text
             id="text340"
             style="font-variant:normal;font-weight:600;font-size:12px;font-family:SegoeUI;-inkscape-font-specification:SegoeUI-Semibold;writing-mode:lr-tb;fill:#4b5563;fill-opacity:1;fill-rule:nonzero;stroke:none"
             transform="translate(293.42188,881)"><tspan
               id="tspan338"
               y="0"
               x="0 9.2050781 15.580078 21.591797 25.927734 33.984375 40.986328 45.322266">NextAuth</tspan></text>
<path
             id="path342"
             style="fill:none;stroke:#27272a;stroke-width:1;stroke-linecap:butt;stroke-linejoin:miter;stroke-miterlimit:10;stroke-dasharray:none;stroke-opacity:1"
             d="m 365.5,877 v -2 c -3e-5,-0.62378 0.0608,-1.24158 0.18253,-1.85345 0.12167,-0.61182 0.30185,-1.20588 0.54058,-1.78217 0.23871,-0.57636 0.53135,-1.12378 0.87787,-1.6424 0.34656,-0.51861 0.74039,-0.99841 1.18146,-1.43951 0.44107,-0.4411 0.92093,-0.83496 1.43958,-1.18152 0.51864,-0.34649 1.06613,-0.63916 1.64242,-0.87787 0.57633,-0.2387 1.17038,-0.41888 1.78217,-0.54058 C 373.75839,865.56085 374.37619,865.5 375,865.5 h 62 c 0.62375,0 1.24155,0.0608 1.85333,0.1825 0.61179,0.1217 1.20581,0.30188 1.78214,0.54052 0.57626,0.23871 1.12375,0.53137 1.64239,0.87793 0.51865,0.34656 0.99854,0.74042 1.43961,1.18152 0.44104,0.4411 0.83484,0.9209 1.18139,1.43951 0.34656,0.51862 0.6392,1.06611 0.87793,1.64246 0.23871,0.57629 0.41892,1.17035 0.54065,1.78211 0.12171,0.61187 0.18256,1.22967 0.18256,1.85345 v 2 c 0,0.62372 -0.0609,1.24146 -0.18253,1.85321 -0.12173,0.61188 -0.30194,1.20593 -0.54065,1.78217 -0.23873,0.57629 -0.53137,1.12371 -0.87796,1.64233 -0.34655,0.51874 -0.74035,0.9986 -1.18139,1.4397 -0.44107,0.44104 -0.92096,0.83484 -1.43961,1.18145 -0.51864,0.3465 -1.06613,0.63916 -1.64242,0.87787 -0.5763,0.23871 -1.17035,0.41895 -1.78214,0.54065 -0.61178,0.12171 -1.22955,0.18256 -1.8533,0.18262 h -62 c -0.62381,-6e-5 -1.24158,-0.0609 -1.85336,-0.18262 -0.61182,-0.1217 -1.20587,-0.30194 -1.78217,-0.54065 -0.57632,-0.23871 -1.12381,-0.53137 -1.64245,-0.87799 -0.51865,-0.34649 -0.99851,-0.74029 -1.43958,-1.18133 -0.44107,-0.4411 -0.8349,-0.92096 -1.18149,-1.4397 -0.34652,-0.51862 -0.63916,-1.06604 -0.87787,-1.64233 -0.2387,-0.57624 -0.41891,-1.17029 -0.54058,-1.78211 C 365.56082,878.24152 365.49997,877.62372 365.5,877 Z" /><text
             id="text346"
             style="font-variant:normal;font-weight:600;font-size:12px;font-family:SegoeUI;-inkscape-font-specification:SegoeUI-Semibold;writing-mode:lr-tb;fill:#4b5563;fill-opacity:1;fill-rule:nonzero;stroke:none"
             transform="translate(375.73438,881)"><tspan
               id="tspan344"
               y="0"
               x="0 8.3671875 14.742188 25.371094 28.505859 35.507812 38.642578 41.941406 49.998047 57.011719">Gemini API</tspan></text>
<text
             id="text350"
             style="font-variant:normal;font-weight:600;font-size:20px;font-family:SegoeUI;-inkscape-font-specification:SegoeUI-Semibold;writing-mode:lr-tb;fill:#000000;fill-opacity:1;fill-rule:nonzero;stroke:none"
             transform="translate(56,958)"><tspan
               id="tspan348"
               y="0"
               x="0 13.427734 22.832031 34.472656 39.697266 50.322266 60.3125 70.9375 88.652344 99.277344 110.94727 118.17383">Achievements</tspan></text>
<path
             id="path352"
             style="fill:#374151;fill-opacity:1;fill-rule:nonzero;stroke:none"
             d="m 62,985 c -4e-6,0.39777 -0.07613,0.7804 -0.228367,1.14795 -0.152241,0.36749 -0.369015,0.69189 -0.650314,0.97327 -0.281307,0.28131 -0.605736,0.49804 -0.973278,0.65026 C 59.780499,987.92377 59.39782,987.99994 59,988 c -0.397831,-6e-5 -0.780514,-0.0762 -1.148056,-0.22852 -0.367542,-0.15222 -0.691967,-0.36895 -0.97327,-0.65026 -0.281308,-0.28138 -0.498082,-0.60578 -0.650319,-0.97327 C 56.076115,985.7804 55.999996,985.39777 56,985 c -4e-6,-0.39789 0.07612,-0.78058 0.228355,-1.14813 0.152237,-0.36756 0.369011,-0.69196 0.650319,-0.97321 0.281303,-0.28131 0.605728,-0.49811 0.97327,-0.65039 C 58.219486,982.07611 58.602169,982 59,982 c 0.39782,0 0.780499,0.0761 1.148041,0.22827 0.367542,0.15228 0.691971,0.36908 0.973278,0.65039 0.281299,0.28125 0.49807,0.60565 0.65031,0.97321 C 61.923874,984.21942 61.999996,984.60211 62,985 Z" /><text
             id="text356"
             style="font-variant:normal;font-weight:normal;font-size:16px;font-family:SegoeUI;-inkscape-font-specification:SegoeUI;writing-mode:lr-tb;fill:#374151;fill-opacity:1;fill-rule:nonzero;stroke:none"
             transform="translate(79,990)"><tspan
               id="tspan354"
               y="0"
               x="0 7.53125 15.898438 24.039062 29.601562 38.65625 42.53125 51.585938 61.007812 65.390625 73.53125 82.585938 92.007812 96.390625 105.79688 114.85156 118.72656 122.60156 132.02344 135.89844 144.95312 154.375 158.75781 162.63281 171.6875 176.07031 185.47656 194.53125 203.9375 207.8125 211.6875">Learning and building in public</tspan></text>
<path
             id="path358"
             style="fill:#374151;fill-opacity:1;fill-rule:nonzero;stroke:none"
             d="m 62,1013 c -4e-6,0.3978 -0.07613,0.7804 -0.228367,1.1479 -0.152241,0.3675 -0.369015,0.692 -0.650314,0.9733 -0.281307,0.2813 -0.605736,0.498 -0.973278,0.6503 -0.367542,0.1523 -0.750221,0.2284 -1.148041,0.2285 -0.397831,-10e-5 -0.780514,-0.076 -1.148056,-0.2285 -0.367542,-0.1523 -0.691967,-0.369 -0.97327,-0.6503 -0.281308,-0.2813 -0.498082,-0.6058 -0.650319,-0.9733 C 56.076115,1013.7804 55.999996,1013.3978 56,1013 c -4e-6,-0.3979 0.07612,-0.7806 0.228355,-1.1481 0.152237,-0.3676 0.369011,-0.692 0.650319,-0.9733 0.281303,-0.2813 0.605728,-0.4981 0.97327,-0.6503 C 58.219486,1010.0761 58.602169,1010 59,1010 c 0.39782,0 0.780499,0.076 1.148041,0.2283 0.367542,0.1522 0.691971,0.369 0.973278,0.6503 0.281299,0.2813 0.49807,0.6057 0.65031,0.9733 0.152245,0.3675 0.228367,0.7502 0.228371,1.1481 z" /><text
             id="text362"
             style="font-variant:normal;font-weight:normal;font-size:16px;font-family:SegoeUI;-inkscape-font-specification:SegoeUI;writing-mode:lr-tb;fill:#374151;fill-opacity:1;fill-rule:nonzero;stroke:none"
             transform="translate(79,1018)"><tspan
               id="tspan360"
               y="0"
               x="0 9.171875 18.226562 22.101562 25.976562 35.398438 39.273438 48.328125 57.75 62.132812 71.539062 77.101562 86.476562 90.351562 98.71875 106.10938 111.53125 118.32031 122.70312 127.71094 137.08594 142.64844 147.03125 152.59375 160.96094 169.10156 172.97656 179.375 190.9375 200.3125 205.875 209.75 219.17188 223.55469 230.34375 239.71875 243.59375 252.64844 258.07031 261.94531 271.32031 280.375">Building projects for real-world solutions</tspan></text>
<text
             id="text366"
             style="font-variant:normal;font-weight:600;font-size:20px;font-family:SegoeUI;-inkscape-font-specification:SegoeUI-Semibold;writing-mode:lr-tb;fill:#000000;fill-opacity:1;fill-rule:nonzero;stroke:none"
             transform="translate(56,1095)"><tspan
               id="tspan364"
               y="0"
               x="0 12.421875 23.046875 31.025391 38.251953 43.476562 50.371094 55.595703 65 75.439453 82.666016 87.890625 99.833984 111.50391">Certifications</tspan></text>
<text
             id="text370"
             style="font-variant:normal;font-weight:600;font-size:16px;font-family:SegoeUI;-inkscape-font-specification:SegoeUI-Semibold;writing-mode:lr-tb;fill:#111827;fill-opacity:1;fill-rule:nonzero;stroke:none"
             transform="translate(56,1127)"><tspan
               id="tspan368"
               y="0"
               x="0 11.765625 20.117188 27.640625 35.757812 44.257812 53.140625 57.539062 66.25 74.648438 78.828125 83.007812 87.1875 94.085938 98.484375 104 113.55469 119.47656 123.875 128.5 137.83594 143.52344 152.02344 157.94531 166.29688 174.41406 180.19531 184.375 192.36719 200.86719 205.26562 215.20312 224.51562 232.86719 238.64844 243.04688 252.71094 262.26562">Hacke2 Skills for Interavtive Chat Bot</tspan></text>
<text
             id="text374"
             style="font-variant:normal;font-weight:normal;font-size:14px;font-family:SegoeUI;-inkscape-font-specification:SegoeUI;writing-mode:lr-tb;fill:#4b5563;fill-opacity:1;fill-rule:nonzero;stroke:none"
             transform="translate(860.65625,1124)"><tspan
               id="tspan372"
               y="0"
               x="0 7.546875 15.09375 18.928711 25.764648 33.085938 41.316406 45.151367 52.698242 60.245117 67.791992">24 Feb 2024</tspan></text>
<text
             id="text378"
             style="font-variant:normal;font-weight:600;font-size:20px;font-family:SegoeUI;-inkscape-font-specification:SegoeUI-Semibold;writing-mode:lr-tb;fill:#000000;fill-opacity:1;fill-rule:nonzero;stroke:none"
             transform="translate(56,1204)"><tspan
               id="tspan376"
               y="0"
               x="0 10.351562 22.402344 34.072266 43.476562 53.916016 61.142578 66.367188 78.310547">Education</tspan></text>
<text
             id="text382"
             style="font-variant:normal;font-weight:600;font-size:16px;font-family:SegoeUI;-inkscape-font-specification:SegoeUI-Semibold;writing-mode:lr-tb;fill:#111827;fill-opacity:1;fill-rule:nonzero;stroke:none"
             transform="translate(56,1236)"><tspan
               id="tspan380"
               y="0"
               x="0 9.5859375 18.085938 27.421875 37.0625 42.984375 47.164062 55.296875 63.648438 68.046875 78.3125 82.492188 92.132812 100.26562 108.61719 112.79688 121.14844 129.28125 137.63281 142.03125 148.1875 156.53906 165.875 174.22656 182.625 192.26562 201.60156 207.52344">Kendriya Vidyalaya Janakpuri</tspan></text>
<text
             id="text386"
             style="font-variant:normal;font-weight:normal;font-size:16px;font-family:SegoeUI;-inkscape-font-specification:SegoeUI;writing-mode:lr-tb;fill:#4b5563;fill-opacity:1;fill-rule:nonzero;stroke:none"
             transform="translate(56,1260)"><tspan
               id="tspan384"
               y="0"
               x="0 8.625 17.25 22.671875 31.726562 36.109375 44.09375 49.515625 57.65625 66.710938 76.132812 84.273438 89.835938">12th Standard</tspan></text>
<text
             id="text390"
             style="font-variant:normal;font-weight:normal;font-size:14px;font-family:SegoeUI;-inkscape-font-specification:SegoeUI;writing-mode:lr-tb;fill:#4b5563;fill-opacity:1;fill-rule:nonzero;stroke:none"
             transform="translate(870.01563,1233)"><tspan
               id="tspan388"
               y="0"
               x="0 7.546875 15.09375 22.640625 30.1875 35.786133 43.333008 50.879883 58.426758">2022-2023</tspan></text>
<text
             id="text394"
             style="font-variant:normal;font-weight:600;font-size:16px;font-family:SegoeUI;-inkscape-font-specification:SegoeUI-Semibold;writing-mode:lr-tb;fill:#111827;fill-opacity:1;fill-rule:nonzero;stroke:none"
             transform="translate(56,1292)"><tspan
               id="tspan392"
               y="0"
               x="0 11.476562 19.976562 24.15625 33.46875 37.648438 42.046875 53.296875 62.632812 66.8125 74.804688 83.304688 89.328125 96.226562 100.40625 106.1875 114.32031 118.71875 127.42969 139.52344">Delhi University SOL</tspan></text>
<text
             id="text398"
             style="font-variant:normal;font-weight:normal;font-size:16px;font-family:SegoeUI;-inkscape-font-specification:SegoeUI;writing-mode:lr-tb;fill:#4b5563;fill-opacity:1;fill-rule:nonzero;stroke:none"
             transform="translate(56,1316)"><tspan
               id="tspan396"
               y="0"
               x="0 9.171875 19.078125 28.453125">BCom</tspan></text>
<text
             id="text402"
             style="font-variant:normal;font-weight:normal;font-size:14px;font-family:SegoeUI;-inkscape-font-specification:SegoeUI;writing-mode:lr-tb;fill:#4b5563;fill-opacity:1;fill-rule:nonzero;stroke:none"
             transform="translate(870.01563,1289)"><tspan
               id="tspan400"
               y="0"
               x="0 7.546875 15.09375 22.640625 30.1875 35.786133 43.333008 50.879883 58.426758">2023-2024</tspan></text>
</g></g></g></g></svg>